<svg xmlns="http://www.w3.org/2000/svg" fill="none" viewBox="-0.5 -0.5 48 48" id="Maid--Streamline-Kameleon.svg" height="48" width="48"><desc>Maid Streamline Icon: https://streamlinehq.com</desc><path fill="#fabc3d" d="M23.5 47c12.978836363636363 0 23.5 -10.521163636363635 23.5 -23.5S36.47883636363636 0 23.5 0 0 10.521163636363635 0 23.5s10.521163636363635 23.5 23.5 23.5Z" stroke-width="1"></path><path fill="#3e3e3f" d="M27.774863636363634 27.77272727272727c4.339381818181818 -0.9643545454545455 3.822381818181818 -4.612836363636363 3.8454545454545452 -9.827272727272726 0 -4.247518181818182 -3.870663636363636 -7.6909090909090905 -8.118181818181817 -7.6909090909090905s-8.118181818181817 3.4433909090909087 -8.118181818181817 7.6909090909090905c0.014527272727272727 4.429963636363636 -0.3401090909090909 8.8971 3.8454545454545452 9.827272727272726h8.545454545454545Z" stroke-width="1"></path><path fill="#3e3e3f" d="M35.63839090909091 33.18328181818182a3.418181818181818 3.418181818181818 0 0 0 -2.2081454545454546 -2.0470636363636365L27.77272727272727 29.909090909090907H19.227272727272727l-5.6575181818181814 1.2271272727272726a3.418181818181818 3.418181818181818 0 0 0 -2.2081454545454546 2.0470636363636365L9.827272727272726 37.17272727272727h27.345454545454544l-1.5343363636363636 -3.989445454545454Z" stroke-width="1"></path><path fill="#fff" d="M19.227272727272727 29.054545454545455a0.8545454545454545 0.8545454545454545 0 0 0 -0.8545454545454545 0.8545454545454545v0.15039999999999998a2.7311272727272726 2.7311272727272726 0 0 0 4.479527272727273 2.0983363636363634L23.5 31.618181818181817l-4.2727272727272725 -1.709090909090909v-0.8545454545454545Z" stroke-width="1"></path><path fill="#fff" d="M27.77272727272727 29.054545454545455v0.8545454545454545l-4.2727272727272725 1.709090909090909 0.6477454545454545 0.5396454545454544A2.7306999999999997 2.7306999999999997 0 0 0 28.627272727272725 30.059490909090908V29.909090909090907a0.8545454545454545 0.8545454545454545 0 0 0 -0.8545454545454545 -0.8545454545454545Z" stroke-width="1"></path><path fill="#fff" d="M31.618181818181817 34.60909090909091v-3.8454545454545452l-1.2818181818181817 -0.42727272727272725 -0.42727272727272725 4.2727272727272725H17.09090909090909l-0.42727272727272725 -4.2727272727272725 -1.2818181818181817 0.42727272727272725v3.8454545454545452l-0.8545454545454545 2.5636363636363635h17.945454545454545l-0.8545454545454545 -2.5636363636363635Z" stroke-width="1"></path><path fill="#f7b4b4" d="M23.502136363636364 29.48181818181818 23.5 29.480963636363636V31.618181818181817l4.2727272727272725 -1.709090909090909v-3.657027272727272c-1.2138818181818183 1.8761545454545454 -2.868281818181818 2.7623181818181815 -4.270590909090909 3.2297545454545453Z" stroke-width="1"></path><path fill="#fbc8c8" d="M19.227272727272727 26.244799999999998V29.909090909090907l4.2727272727272725 1.709090909090909v-2.1372181818181817c-1.4035909090909091 -0.4682909090909091 -3.0592727272727274 -1.3561636363636362 -4.2727272727272725 -3.236163636363636Z" stroke-width="1"></path><path fill="#fbc8c8" d="m28.20213636363636 16.663636363636364 -3.418181818181818 2.1363636363636362 0.42727272727272725 -3.8454545454545452 -4.699999999999999 4.2727272727272725v-2.1363636363636362c-2.7170272727272726 2.590554545454545 -3.3848545454545453 3.4814181818181815 -4.238972727272727 3.756581818181818 0.1157909090909091 1.1737181818181817 0.5665636363636364 2.415372727272727 1.751390909090909 2.6204636363636364 1.0429727272727272 3.8890363636363636 3.5113272727272724 5.358 5.478490909090908 6.013863636363635 1.9671636363636362 -0.6558636363636363 4.435090909090909 -2.1248272727272726 5.478490909090908 -6.013863636363635 0.846 -0.14612727272727272 1.3168545454545453 -0.8225 1.559972727272727 -1.6240636363636363 -1.4805 -0.750290909090909 -2.338463636363636 -2.3850363636363636 -2.338463636363636 -5.180254545454545Z" stroke-width="1"></path><path fill="#fbd7d7" d="M20.51122727272727 19.227272727272727v-2.1363636363636362c-2.7170272727272726 2.590554545454545 -3.3848545454545453 3.4814181818181815 -4.238972727272727 3.756581818181818 0.1157909090909091 1.1737181818181817 0.5665636363636364 2.415372727272727 1.751390909090909 2.6204636363636364 1.0429727272727272 3.8890363636363636 3.5113272727272724 5.358 5.478490909090908 6.013863636363635V16.50810909090909l-2.9909090909090907 2.719163636363636Z" stroke-width="1"></path><path fill="#3e3e3f" d="M22.22330909090909 20.081818181818182a0.8545454545454545 0.8545454545454545 0 0 0 -0.8545454545454545 -0.8545454545454545l-0.0025636363636363634 0c0.00042727272727272726 0.008972727272727273 0.0025636363636363634 0.017518181818181818 0.0025636363636363634 0.02649090909090909a0.8545454545454545 0.8545454545454545 0 0 1 -0.8519818181818182 0.8545454545454545A0.8528363636363636 0.8528363636363636 0 0 0 22.22330909090909 20.081818181818182Z" stroke-width="1"></path><path fill="#3e3e3f" d="M26.493045454545456 20.081818181818182a0.8545454545454545 0.8545454545454545 0 0 0 -0.8545454545454545 -0.8545454545454545l-0.0025636363636363634 0c0.00042727272727272726 0.008972727272727273 0.0025636363636363634 0.017518181818181818 0.0025636363636363634 0.02649090909090909a0.8545454545454545 0.8545454545454545 0 0 1 -0.8519818181818182 0.8545454545454545A0.8536909090909091 0.8536909090909091 0 0 0 26.493045454545456 20.081818181818182Z" stroke-width="1"></path><path fill="#f79392" d="M21.37431818181818 24.78181818181818h4.2727272727272725s0 1.2818181818181817 -2.1363636363636362 1.2818181818181817 -2.1363636363636362 -1.2818181818181817 -2.1363636363636362 -1.2818181818181817Z" stroke-width="1"></path><path fill="#fff" d="M28.646927272727275 14.989154545454547a1.4557181818181817 1.4557181818181817 0 0 0 0.23542727272727274 -0.7917363636363636 1.4655454545454545 1.4655454545454545 0 0 0 -1.4651181818181818 -1.4651181818181818c-0.18244545454545452 0 -0.3559181818181818 0.037599999999999995 -0.5169999999999999 0.0987 -0.4593181818181818 -4.005254545454545 -6.319363636363636 -4.005254545454545 -6.778681818181818 0a1.4557181818181817 1.4557181818181817 0 0 0 -0.5169999999999999 -0.0987 1.4655454545454545 1.4655454545454545 0 0 0 -1.4651181818181818 1.4651181818181818c0 0.29225454545454543 0.08759090909090908 0.5631454545454545 0.23542727272727274 0.7917363636363636 -0.7156818181818182 0.48281818181818176 -1.3318090909090907 1.0352818181818182 -1.7001181818181819 1.6497l0 1.4651181818181818c1.4416181818181817 -1.4416181818181817 3.1494272727272725 -2.0838090909090905 4.926454545454545 -2.3222272727272726a14.381999999999998 14.381999999999998 0 0 1 1.9099090909090908 -0.11963636363636364c0.6396272727272727 0 1.2788272727272727 0.03460909090909091 1.9099090909090908 0.11963636363636364 1.7774545454545454 0.23841818181818183 3.4848363636363637 0.8806090909090908 4.926454545454545 2.3222272727272726l0 -1.4651181818181818c-0.3687363636363636 -0.6144181818181818 -0.9848636363636364 -1.1668818181818181 -1.7005454545454544 -1.6497Z" stroke-width="1"></path></svg>