<svg xmlns="http://www.w3.org/2000/svg" fill="none" viewBox="-0.5 -0.5 48 48" id="Woman-3--Streamline-Kameleon.svg" height="48" width="48"><desc>Woman 3 Streamline Icon: https://streamlinehq.com</desc><path fill="#fabc3d" d="M23.5 47c12.978836363636363 0 23.5 -10.521163636363635 23.5 -23.5S36.47883636363636 0 23.5 0 0 10.521163636363635 0 23.5s10.521163636363635 23.5 23.5 23.5Z" stroke-width="1"></path><path fill="#3e3e3f" d="M30.60682727272727 30.462836363636363c-0.8541181818181818 -2.6178999999999997 -0.8588181818181817 -5.903627272727272 -0.7814818181818182 -7.671681818181817a1.6834545454545453 1.6834545454545453 0 0 1 -0.8468545454545454 0.4080454545454545c-0.5225545454545455 1.9479363636363636 -1.4027363636363634 3.2887181818181817 -2.398281818181818 4.224445454545455 0.05810909090909091 0.7152545454545454 0.17988181818181817 1.455290909090909 0.3956545454545454 2.1735363636363636l3.630963636363636 0.8656545454545453Z" stroke-width="1"></path><path fill="#f79392" d="M35.63839090909091 33.18328181818182a3.418181818181818 3.418181818181818 0 0 0 -2.2081454545454546 -2.0470636363636365L26.49090909090909 29.48181818181818l-2.9909090909090907 0.42727272727272725 -2.9909090909090907 -0.42727272727272725 -6.939336363636363 1.6543999999999999a3.418181818181818 3.418181818181818 0 0 0 -2.2081454545454546 2.0470636363636365L9.827272727272726 37.17272727272727h27.345454545454544l-1.5343363636363636 -3.989445454545454Z" stroke-width="1"></path><path fill="#f4d0a1" d="M27.77272727272727 28.627272727272725v-2.647381818181818c-1.2138818181818183 1.878290909090909 -2.8695636363636363 2.765736363636363 -4.2727272727272725 3.233172727272727 -1.4018818181818182 -0.46743636363636365 -3.058418181818182 -1.3489 -4.2727272727272725 -3.2233454545454543V28.627272727272725c0 0.42727272727272725 1.9077727272727272 6.7718454545454545 4.2727272727272725 8.545454545454545 2.365381818181818 -1.7736090909090907 4.2727272727272725 -8.118181818181817 4.2727272727272725 -8.545454545454545Z" stroke-width="1"></path><path fill="#f8e1c2" d="m29.909090909090907 18.95851818181818 -0.42727272727272725 0 0 -0.008972727272727273c-0.00769090909090909 -3.8488727272727266 -0.4375272727272727 -7.254663636363635 -5.9818181818181815 -7.254663636363635 -5.544290909090909 0 -5.974127272727272 3.405790909090909 -5.9818181818181815 7.254663636363635 0 7.177327272727272 3.418181818181818 9.408972727272728 5.9818181818181815 10.263518181818181 1.9671636363636362 -0.6558636363636363 4.435090909090909 -2.1248272727272726 5.478490909090908 -6.013863636363635C30.394472727272724 22.9548 30.763636363636362 21.22861818181818 30.763636363636362 19.907918181818182c0 -0.47469999999999996 -0.42727272727272725 -0.9493999999999999 -0.8545454545454545 -0.9493999999999999Z" stroke-width="1"></path><path fill="#fcf1e2" d="M23.5 11.694881818181816c-5.544290909090909 0 -5.974127272727272 3.405790909090909 -5.9818181818181815 7.254663636363635 0 7.177327272727272 3.418181818181818 9.408972727272728 5.9818181818181815 10.263518181818181v-17.518181818181816Z" stroke-width="1"></path><path fill="#3e3e3f" d="M26.063636363636363 11.694881818181816c0.42727272727272725 5.9818181818181815 1.709090909090909 7.254663636363635 3.8454545454545452 7.263636363636364 0.01709090909090909 -2.5717545454545454 1.5676636363636363 -7.553754545454544 -3.8454545454545452 -7.263636363636364Z" stroke-width="1"></path><path fill="#3e3e3f" d="M20.920981818181815 19.59729090909091c0.611 0 1.1224454545454543 0.11835454545454546 1.2643 0.48452727272727264 0.001709090909090909 -0.42727272727272725 -0.4285545454545454 -1.045109090909091 -1.2643 -1.045109090909091 -0.8344636363636363 0 -1.3044636363636362 0.6178363636363636 -1.2643 1.045109090909091 0.14185454545454546 -0.36574545454545454 0.6532999999999999 -0.48452727272727264 1.2643 -0.48452727272727264Z" stroke-width="1"></path><path fill="#3e3e3f" d="M26.015354545454546 19.59729090909091c0.611 0 1.1224454545454543 0.11835454545454546 1.2643 0.48452727272727264 0.001709090909090909 -0.42727272727272725 -0.4285545454545454 -1.045109090909091 -1.2643 -1.045109090909091 -0.8344636363636363 0 -1.3044636363636362 0.6178363636363636 -1.2643 1.045109090909091 0.14185454545454546 -0.36574545454545454 0.6532999999999999 -0.48452727272727264 1.2643 -0.48452727272727264Z" stroke-width="1"></path><path fill="#f79392" d="M21.363636363636363 24.513063636363636h4.2727272727272725s0 1.2818181818181817 -2.1363636363636362 1.2818181818181817 -2.1363636363636362 -1.2818181818181817 -2.1363636363636362 -1.2818181818181817Z" stroke-width="1"></path><path fill="#fff" d="M19.227272727272727 28.627272727272725s-2.9909090909090907 0.8545454545454545 -3.418181818181818 2.9909090909090907c2.1363636363636362 0 6.409090909090908 5.554545454545455 6.409090909090908 5.554545454545455h1.2818181818181817c-2.3649545454545455 -1.7736090909090907 -4.2727272727272725 -8.118181818181817 -4.2727272727272725 -8.545454545454545Z" stroke-width="1"></path><path fill="#fff" d="M27.77272727272727 28.627272727272725c0 0.42727272727272725 -1.9073454545454547 6.7718454545454545 -4.2727272727272725 8.545454545454545h1.2818181818181817s4.2727272727272725 -5.554545454545455 6.409090909090908 -5.554545454545455c-0.42727272727272725 -2.1363636363636362 -3.418181818181818 -2.9909090909090907 -3.418181818181818 -2.9909090909090907Z" stroke-width="1"></path><path fill="#f8e1c2" d="M20.409963636363635 27.40911818181818a13.949172727272726 13.949172727272726 0 0 1 -0.6738090909090908 3.0144090909090906C20.456536363636364 32.55476363636363 21.86952727272727 35.94987272727273 23.5 37.17272727272727V29.213063636363632c-1.2536181818181817 -0.4174454545454545 -2.2688181818181814 -1.0288727272727272 -3.0900363636363637 -1.8039454545454545Z" stroke-width="1"></path><path fill="#3e3e3f" d="m14.954545454545453 17.518181818181816 0 19.227272727272727s5.554545454545455 -3.259663636363636 5.554545454545455 -11.075763636363636V18.95851818181818c0 -6.831236363636363 5.9818181818181815 -3.418181818181818 5.554545454545455 -7.263636363636364C23.927272727272726 7.849427272727271 14.954545454545453 9.827272727272726 14.954545454545453 17.518181818181816Z" stroke-width="1"></path></svg>