<svg xmlns="http://www.w3.org/2000/svg" fill="none" viewBox="-0.5 -0.5 24 24" id="Artist--Streamline-Kameleon.svg" height="24" width="24"><desc>Artist Streamline Icon: https://streamlinehq.com</desc><path fill="#fabc3d" d="M11.5 23c6.351345454545454 0 11.5 -5.148654545454545 11.5 -11.5S17.851345454545456 0 11.5 0 0 5.148654545454545 0 11.5s5.148654545454545 11.5 11.5 11.5Z" stroke-width="1"></path><path fill="#f7b4b4" d="M12.912827272727272 14.059272727272726a1.2545454545454544 1.2545454545454544 0 0 1 -0.8869636363636363 0.36737272727272724h-1.0519363636363634a1.2547545454545455 1.2547545454545455 0 0 1 -0.8869636363636363 -0.36737272727272724L9.409090909090908 13.381609090909091v0.940490909090909S9.409090909090908 17.354545454545452 11.5 17.354545454545452s2.090909090909091 -3.032445454545454 2.090909090909091 -3.032445454545454v-0.940490909090909l-0.6780818181818181 0.6776636363636364Z" stroke-width="1"></path><path fill="#fbc8c8" d="M10.087172727272726 14.059272727272726 9.409090909090908 13.381609090909091v0.940490909090909S9.409090909090908 17.354545454545452 11.5 17.354545454545452V14.426645454545454h-0.5260727272727272a1.2543363636363636 1.2543363636363636 0 0 1 -0.8867545454545454 -0.36737272727272724Z" stroke-width="1"></path><path fill="#fff" d="m14.009090909090908 14.218181818181817 -0.41818181818181815 -0.20909090909090908s-0.20909090909090908 1.4636363636363636 -2.090909090909091 1.4636363636363636 -2.0064363636363636 -1.4757636363636362 -2.090909090909091 -1.4636363636363636l-0.41818181818181815 0.20909090909090908 0.8363636363636363 3.9727272727272727h3.3454545454545452l0.8363636363636363 -3.9727272727272727Z" stroke-width="1"></path><path fill="#fff" d="m18.19090909090909 18.19090909090909 -0.8363636363636363 -2.3a1.2549636363636363 1.2549636363636363 0 0 0 -0.6362636363636364 -0.6237181818181818L14.009090909090908 14.218181818181817l-0.8363636363636363 3.9727272727272727h5.018181818181818Z" stroke-width="1"></path><path fill="#fff" d="m4.809090909090909 18.19090909090909 0.8363636363636363 -2.3a1.2549636363636363 1.2549636363636363 0 0 1 0.6362636363636364 -0.6237181818181818L8.99090909090909 14.218181818181817l0.8363636363636363 3.9727272727272727H4.809090909090909Z" stroke-width="1"></path><path fill="#df2c2c" d="M11.918181818181818 5.6454545454545455h-0.8363636363636363v-0.41818181818181815a0.41818181818181815 0.41818181818181815 0 1 1 0.8363636363636363 0v0.41818181818181815Z" stroke-width="1"></path><path fill="#40c9e7" d="M9.695127272727273 17.563636363636363 9.827272727272726 18.19090909090909h3.3454545454545452l0.13214545454545454 -0.6272727272727272H9.695127272727273Z" stroke-width="1"></path><path fill="#40c9e7" d="M9.519072727272727 16.727272727272727h3.9618545454545453l0.13193636363636363 -0.6272727272727272h-4.225727272727273l0.13193636363636363 0.6272727272727272Z" stroke-width="1"></path><path fill="#e2e4e5" d="M9.409090909090908 12.963636363636363v1.0454545454545454l-0.20909090909090908 0.8363636363636363 0.6272727272727272 3.3454545454545452h-0.41818181818181815l-2.090909090909091 -1.6727272727272726 1.0454545454545454 -0.8363636363636363s-1.0454545454545454 -0.8363636363636363 -1.4636363636363636 -1.0454545454545454c1.0454545454545454 -1.4636363636363636 2.509090909090909 -1.6727272727272726 2.509090909090909 -1.6727272727272726Z" stroke-width="1"></path><path fill="#fbc8c8" d="M14.636363636363635 9.409090909090908c-0.08844545454545454 0 -0.15493636363636362 0.021327272727272726 -0.2099272727272727 0.05080909090909091 -0.0014636363636363636 -0.16037272727272728 0.0071090909090909095 -0.3167727272727272 0 -0.468990909090909H8.5859A13.808572727272725 13.808572727272725 0 0 0 8.572727272727272 9.618181818181817v2.580809090909091c0 0.2218454545454545 0.08823636363636363 0.43470000000000003 0.2450545454545454 0.5915181818181818l1.269390909090909 1.268763636363636a1.2545454545454544 1.2545454545454544 0 0 0 0.8869636363636363 0.36737272727272724h1.0519363636363634a1.2547545454545455 1.2547545454545455 0 0 0 0.8869636363636363 -0.36737272727272724l1.269390909090909 -1.268763636363636a0.8367818181818181 0.8367818181818181 0 0 0 0.2450545454545454 -0.5915181818181818v-0.738090909090909c0.4654363636363636 -0.18253636363636364 0.6272727272727272 -0.9743636363636363 0.6272727272727272 -1.587C15.054545454545453 9.641390909090909 14.845454545454544 9.409090909090908 14.636363636363635 9.409090909090908Z" stroke-width="1"></path><path fill="#fbd7d7" d="M8.5859 8.99090909090909a12.52370909090909 12.52370909090909 0 0 0 -0.012336363636363635 0.468990909090909A0.42926363636363635 0.42926363636363635 0 0 0 8.363636363636363 9.409090909090908c-0.20909090909090908 0 -0.41818181818181815 0.23229999999999998 -0.41818181818181815 0.46459999999999996 0 0.6128454545454545 0.16183636363636364 1.4044636363636362 0.6272727272727272 1.587v0.738090909090909c0 0.2218454545454545 0.08823636363636363 0.43470000000000003 0.2450545454545454 0.5915181818181818l1.269390909090909 1.268763636363636a1.2545454545454544 1.2545454545454544 0 0 0 0.8869636363636363 0.36737272727272724H11.5V8.99090909090909H8.5859Z" stroke-width="1"></path><path fill="#f79392" d="M10.663636363636362 12.127272727272727h1.6727272727272726s0 0.6272727272727272 -0.8363636363636363 0.6272727272727272 -0.8363636363636363 -0.6272727272727272 -0.8363636363636363 -0.6272727272727272Z" stroke-width="1"></path><path fill="#3e3e3f" d="M10.871472727272726 9.826645454545455a0.41818181818181815 0.41818181818181815 0 0 0 -0.41818181818181815 -0.41818181818181815l-0.0012545454545454546 0c0.00020909090909090907 0.0041818181818181815 0.0012545454545454546 0.008363636363636363 0.0012545454545454546 0.012963636363636363a0.41818181818181815 0.41818181818181815 0 0 1 -0.4169272727272727 0.41818181818181815 0.4173454545454545 0.4173454545454545 0 0 0 0.8351090909090909 -0.012963636363636363Z" stroke-width="1"></path><path fill="#3e3e3f" d="M12.960918181818181 9.826645454545455a0.41818181818181815 0.41818181818181815 0 0 0 -0.41818181818181815 -0.41818181818181815l-0.0012545454545454546 0c0.00020909090909090907 0.0041818181818181815 0.0012545454545454546 0.008363636363636363 0.0012545454545454546 0.012963636363636363a0.41818181818181815 0.41818181818181815 0 0 1 -0.4169272727272727 0.41818181818181815 0.4173454545454545 0.4173454545454545 0 0 0 0.8351090909090909 -0.012963636363636363Z" stroke-width="1"></path><path fill="#3e3e3f" d="M11.5 11.709090909090909c-1.0454545454545454 -1.0454545454545454 -1.2545454545454544 0.8363636363636363 -2.718181818181818 0 1.0454545454545454 1.2545454545454544 2.718181818181818 0.41818181818181815 2.718181818181818 0.41818181818181815s1.6727272727272726 0.8363636363636363 2.718181818181818 -0.41818181818181815c-1.4636363636363636 0.8363636363636363 -1.6727272727272726 -1.0454545454545454 -2.718181818181818 0Z" stroke-width="1"></path><path fill="#3e3e3f" d="M8.572727272727272 8.99090909090909v0.41818181818181815l0.41818181818181815 0.8363636363636363h0.20909090909090908v-1.2545454545454544h-0.6272727272727272Z" stroke-width="1"></path><path fill="#3e3e3f" d="m11.5 14.636363636363635 -0.41818181818181815 -1.4636363636363636h0.8363636363636363l-0.41818181818181815 1.4636363636363636Z" stroke-width="1"></path><path fill="#3e3e3f" d="M9.2 8.154545454545454v0.8363636363636363h4.6v1.2545454545454544h0.20909090909090908l0.41818181818181815 -0.8363636363636363v-0.41818181818181815a0.8363636363636363 0.8363636363636363 0 0 0 0.8363636363636363 -0.8363636363636363H9.2Z" stroke-width="1"></path><path fill="#df2c2c" d="M10.067518181818182 8.154336363636364s4.813272727272727 0.0012545454545454546 5.196118181818181 0c0.9599363636363636 -0.003136363636363636 1.899590909090909 -2.516827272727273 -1.3139272727272726 -2.5078363636363634 -1.8224363636363634 0.005018181818181818 -3.3080272727272724 -0.004390909090909091 -4.264827272727272 0C8.572727272727272 5.651727272727273 6.473663636363636 8.058990909090909 6.8999999999999995 8.997181818181819c1.0454545454545454 2.3 3.1792272727272723 -0.7774 3.1675181818181812 -0.8428454545454545Z" stroke-width="1"></path><path fill="#fa5655" d="M11.5 5.646918181818182c-0.721990909090909 -0.0010454545454545454 -1.3352545454545455 -0.002509090909090909 -1.8151181818181816 -0.00020909090909090907C8.572727272727272 5.651727272727273 6.473454545454545 8.058990909090909 6.8999999999999995 8.997181818181819c1.0454545454545454 2.3 3.1792272727272723 -0.7774 3.1675181818181812 -0.8428454545454545L11.5 8.154545454545454V5.646918181818182Z" stroke-width="1"></path><path fill="#e2e4e5" d="M13.59090909090909 12.963636363636363v1.0454545454545454l0.20909090909090908 0.8363636363636363 -0.6272727272727272 3.3454545454545452h0.41818181818181815l2.090909090909091 -1.6727272727272726 -1.0454545454545454 -0.8363636363636363s1.0454545454545454 -0.8363636363636363 1.4636363636363636 -1.0454545454545454c-1.0454545454545454 -1.4636363636363636 -2.509090909090909 -1.6727272727272726 -2.509090909090909 -1.6727272727272726Z" stroke-width="1"></path><path fill="#3e3e3f" d="M16.266854545454546 13.940090909090909c-0.5463545454545454 -1.3739363636363635 0.4965909090909091 -1.152090909090909 1.7346181818181816 -2.440090909090909 0.3544090909090909 1.2911363636363635 -0.39037272727272726 3.019272727272727 -0.9664181818181817 2.771081818181818l-0.7681999999999999 -0.33099090909090906Z" stroke-width="1"></path><path fill="#fa5655" d="M18.031372727272725 12.863272727272728c0.08217272727272727 -0.4426454545454545 0.08969999999999999 -0.9273181818181817 -0.029899999999999996 -1.3632727272727272 -0.47359090909090906 0.49261818181818173 -0.9183272727272728 0.7642272727272726 -1.2568454545454546 0.989 0.012336363636363635 0.5505363636363636 0.6433727272727272 0.8413818181818181 1.2867454545454544 0.37427272727272726Z" stroke-width="1"></path><path fill="#84462d" d="m15.29081818181818 18.19090909090909 1.720190909090909 -3.930281818181818 -0.7679909090909091 -0.33099090909090906L14.377927272727272 18.19090909090909h0.912890909090909Z" stroke-width="1"></path><path fill="#f3b607" d="m17.011218181818183 14.262090909090906 -0.7681999999999999 -0.3312 -0.1653909090909091 0.38409999999999994 0.7679909090909091 0.33099090909090906 0.1656 -0.38409999999999994Z" stroke-width="1"></path></svg>