<svg xmlns="http://www.w3.org/2000/svg" fill="none" viewBox="-0.5 -0.5 48 48" id="Astronaut--Streamline-Kameleon.svg" height="48" width="48"><desc>Astronaut Streamline Icon: https://streamlinehq.com</desc><path fill="#25b7d3" d="M23.5 47c12.978708181818181 0 23.5 -10.521291818181819 23.5 -23.5S36.47870818181818 0 23.5 0 0 10.521291818181819 0 23.5s10.521291818181819 23.5 23.5 23.5Z" stroke-width="1"></path><path fill="#fff" d="M21.793472727272725 37.17272727272727C21.123936363636364 37.15478181818182 9.827272727272726 37.17272727272727 9.827272727272726 37.17272727272727s0.42727272727272725 -8.118181818181817 1.709090909090909 -8.972727272727273c1.5642454545454545 -1.0429727272727272 7.6909090909090905 -1.709090909090909 7.6909090909090905 -1.709090909090909h8.545454545454545s6.126663636363636 0.6661181818181817 7.6909090909090905 1.709090909090909c1.2818181818181817 0.8545454545454545 1.709090909090909 8.972727272727273 1.709090909090909 8.972727272727273s-11.296663636363636 -0.017945454545454546 -11.966199999999999 0h-3.4130545454545453Z" stroke-width="1"></path><path fill="#e2e4e5" d="M27.77272727272727 26.49090909090909H19.227272727272727s-3.7830727272727267 0.4114636363636363 -6.162981818181818 1.0942454545454545C14.453354545454545 28.48712727272727 16.663636363636364 30.153063636363633 16.663636363636364 31.618181818181817l0 5.554545454545455h13.672727272727272l0 -5.554545454545455c0 -1.4651181818181818 2.210281818181818 -3.1310545454545453 3.599345454545454 -4.0330272727272725C31.555799999999998 26.902372727272727 27.77272727272727 26.49090909090909 27.77272727272727 26.49090909090909Z" stroke-width="1"></path><path fill="#fff" d="M32.04545454545455 26.918181818181818s-0.8545454545454545 1.709090909090909 -8.545454545454545 1.709090909090909 -8.545454545454545 -1.709090909090909 -8.545454545454545 -1.709090909090909V18.37272727272727c0 -4.719654545454545 3.8258 -8.545454545454545 8.545454545454545 -8.545454545454545s8.545454545454545 3.8258 8.545454545454545 8.545454545454545v8.545454545454545Z" stroke-width="1"></path><path fill="#f1f2f2" d="M32.04545454545455 26.918181818181818V18.37272727272727c0 -4.719654545454545 -3.8258 -8.545454545454545 -8.545454545454545 -8.545454545454545v18.799999999999997c7.6909090909090905 0 8.545454545454545 -1.709090909090909 8.545454545454545 -1.709090909090909Z" stroke-width="1"></path><path fill="#5b5c5f" d="m16.663636363636364 16.663636363636364 0 3.418181818181818 0 3.418181818181818c0 1.2818181818181817 4.2727272727272725 1.709090909090909 6.836363636363636 1.709090909090909V14.954545454545453c-2.5636363636363635 0 -6.836363636363636 0.42727272727272725 -6.836363636363636 1.709090909090909Z" stroke-width="1"></path><path fill="#3e3e3f" d="M23.5 14.954545454545453v10.254545454545454c2.5636363636363635 0 6.836363636363636 -0.42727272727272725 6.836363636363636 -1.709090909090909l0 -3.418181818181818 0 -3.418181818181818c0 -1.2818181818181817 -4.2727272727272725 -1.709090909090909 -6.836363636363636 -1.709090909090909Z" stroke-width="1"></path><path fill="#fa5655" d="M22.21818181818182 12.39090909090909h-0.8545454545454545v0.8545454545454545h0.8545454545454545v-0.8545454545454545Z" stroke-width="1"></path><path fill="#cfd3d4" d="M26.49090909090909 12.39090909090909h-3.418181818181818v0.8545454545454545h3.418181818181818v-0.8545454545454545Z" stroke-width="1"></path><path fill="#fff" d="M26.918181818181818 32.9H20.081818181818182l-2.1363636363636362 4.2727272727272725h11.536363636363635l-2.5636363636363635 -4.2727272727272725Z" stroke-width="1"></path><path fill="#47c4b7" d="M22.21818181818182 36.74545454545454c0.7079481818181818 0 1.2818181818181817 -0.57387 1.2818181818181817 -1.2818181818181817s-0.57387 -1.2818181818181817 -1.2818181818181817 -1.2818181818181817 -1.2818181818181817 0.57387 -1.2818181818181817 1.2818181818181817 0.57387 1.2818181818181817 1.2818181818181817 1.2818181818181817Z" stroke-width="1"></path><path fill="#cfd3d4" d="M24.78181818181818 34.18181818181818h-0.42727272727272725v2.5636363636363635h0.42727272727272725v-2.5636363636363635Z" stroke-width="1"></path><path fill="#cfd3d4" d="M26.063636363636363 34.18181818181818h-0.42727272727272725v2.5636363636363635h0.42727272727272725v-2.5636363636363635Z" stroke-width="1"></path><path fill="#e2e4e5" d="M14.954545454545453 23.5h-0.8545454545454545c-0.4721363636363636 0 -0.8545454545454545 -0.3824090909090909 -0.8545454545454545 -0.8545454545454545v-3.418181818181818c0 -0.4721363636363636 0.3824090909090909 -0.8545454545454545 0.8545454545454545 -0.8545454545454545h0.8545454545454545v5.127272727272727Z" stroke-width="1"></path><path fill="#e2e4e5" d="M32.04545454545455 23.5h0.8545454545454545c0.4721363636363636 0 0.8545454545454545 -0.3824090909090909 0.8545454545454545 -0.8545454545454545v-3.418181818181818c0 -0.4721363636363636 -0.3824090909090909 -0.8545454545454545 -0.8545454545454545 -0.8545454545454545h-0.8545454545454545v5.127272727272727Z" stroke-width="1"></path><path fill="#fa5655" d="M23.5 27.77272727272727c-7.6909090909090905 0 -8.545454545454545 -1.709090909090909 -8.545454545454545 -1.709090909090909v1.709090909090909s0.8545454545454545 1.709090909090909 8.545454545454545 1.709090909090909 8.545454545454545 -1.709090909090909 8.545454545454545 -1.709090909090909v-1.709090909090909s-0.8545454545454545 1.709090909090909 -8.545454545454545 1.709090909090909Z" stroke-width="1"></path><path fill="#0484ab" d="M34.18181818181818 30.336363636363636h-2.1363636363636362v2.1363636363636362h2.1363636363636362v-2.1363636363636362Z" stroke-width="1"></path><path fill="#fa5655" d="M36.3592 30.336363636363636H34.60909090909091v0.8545454545454545h1.918881818181818c-0.05255454545454545 -0.2961 -0.10852727272727272 -0.5832272727272727 -0.16877272727272727 -0.8545454545454545Z" stroke-width="1"></path><path fill="#fa5655" d="M36.60103636363636 31.618181818181817H34.60909090909091v0.8545454545454545h2.119272727272727c-0.039309090909090905 -0.28755454545454545 -0.08203636363636363 -0.5734 -0.1273272727272727 -0.8545454545454545Z" stroke-width="1"></path><path fill="#fa5655" d="M36.78519090909091 32.9H32.04545454545455v0.8545454545454545h4.841c-0.03076363636363636 -0.2802909090909091 -0.06451818181818181 -0.5665636363636364 -0.10126363636363635 -0.8545454545454545Z" stroke-width="1"></path><path fill="#df2c2c" d="M32.04545454545455 27.77272727272727v-1.709090909090909s-0.8545454545454545 1.709090909090909 -8.545454545454545 1.709090909090909v1.709090909090909c7.6909090909090905 0 8.545454545454545 -1.709090909090909 8.545454545454545 -1.709090909090909Z" stroke-width="1"></path><path fill="#fff" d="M32.9 18.37272727272727h-0.8545454545454545v2.5636363636363635h1.709090909090909v-1.709090909090909c0 -0.4717090909090909 -0.38283636363636364 -0.8545454545454545 -0.8545454545454545 -0.8545454545454545Z" stroke-width="1"></path><path fill="#fff" d="M13.245454545454544 19.227272727272727v1.709090909090909h1.709090909090909v-2.5636363636363635h-0.8545454545454545c-0.4717090909090909 0 -0.8545454545454545 0.38283636363636364 -0.8545454545454545 0.8545454545454545Z" stroke-width="1"></path></svg>