<svg xmlns="http://www.w3.org/2000/svg" fill="none" viewBox="-0.5 -0.5 48 48" id="Batman--Streamline-Kameleon.svg" height="48" width="48"><desc>Batman Streamline Icon: https://streamlinehq.com</desc><path fill="#25b7d3" d="M23.5 47c12.978836363636363 0 23.5 -10.521163636363635 23.5 -23.5S36.47883636363636 0 23.5 0 0 10.521163636363635 0 23.5s10.521163636363635 23.5 23.5 23.5Z" stroke-width="1"></path><path fill="#3e3e3f" d="M27.33391818181818 11.830327272727272C26.400754545454543 11.108236363636363 25.141154545454544 10.681818181818182 23.5 10.681818181818182c-1.6411545454545455 0 -2.900754545454545 0.4264181818181818 -3.833918181818182 1.148509090909091L17.09090909090909 9.827272727272726l0.42727272727272725 7.263636363636364c0 3.539527272727273 2.6781454545454544 6.409090909090908 5.9818181818181815 6.409090909090908s5.9818181818181815 -2.8695636363636363 5.9818181818181815 -6.409090909090908l0.42727272727272725 -7.263636363636364 -2.575172727272727 2.003054545454545Z" stroke-width="1"></path><path fill="#5b5c5f" d="M19.666081818181816 11.830327272727272 17.09090909090909 9.827272727272726l0.42727272727272725 7.263636363636364c0 3.539527272727273 2.6781454545454544 6.409090909090908 5.9818181818181815 6.409090909090908V10.681818181818182c-1.6411545454545455 0 -2.900754545454545 0.4264181818181818 -3.833918181818182 1.148509090909091Z" stroke-width="1"></path><path fill="#3e3e3f" d="M23.5 20.936363636363634c-1.709090909090909 0 -11.963636363636363 0.8545454545454545 -11.963636363636363 14.527272727272727 0 0 4.2727272727272725 1.709090909090909 11.963636363636363 1.709090909090909s11.963636363636363 -1.709090909090909 11.963636363636363 -1.709090909090909c0 -13.672727272727272 -10.254545454545454 -14.527272727272727 -11.963636363636363 -14.527272727272727Z" stroke-width="1"></path><path fill="#cfd3d4" d="M23.5 37.17272727272727c2.9259636363636363 0 5.355436363636364 -0.24739090909090905 7.244836363636363 -0.5541727272727273C30.359863636363638 25.520572727272725 23.5 23.5 23.5 23.5s-6.859863636363636 2.0205727272727274 -7.244836363636363 13.118554545454545C18.144563636363635 36.92533636363636 20.574036363636363 37.17272727272727 23.5 37.17272727272727Z" stroke-width="1"></path><path fill="#3e3e3f" d="m26.918181818181818 29.054545454545455 -1.709090909090909 1.2818181818181817v-1.709090909090909l-1.709090909090909 1.2818181818181817 -1.709090909090909 -1.2818181818181817v1.709090909090909l-1.7078090909090908 -1.2818181818181817c-1.2869454545454544 1.093390909090909 -2.1769545454545454 2.4149454545454545 -2.1363636363636362 4.2727272727272725 2.5636363636363635 -0.2849909090909091 4.2714454545454545 0 5.553263636363636 2.1363636363636362 1.2818181818181817 -2.1363636363636362 2.9909090909090907 -2.421354545454545 5.554545454545455 -2.1363636363636362 0.04059090909090909 -1.857781818181818 -0.8494181818181817 -3.1793363636363634 -2.1363636363636362 -4.2727272727272725Z" stroke-width="1"></path><path fill="#fbc8c8" d="M23.5 23.5c1.5783454545454545 0 3.0101363636363634 -0.6601363636363635 4.078745454545454 -1.7304545454545452C29.526681818181817 15.984272727272725 25.07150909090909 19.227272727272727 23.5 19.227272727272727c-1.5715090909090907 0 -6.026681818181818 -3.243 -4.078745454545454 2.542272727272727C20.489863636363634 22.839863636363635 21.921654545454544 23.5 23.5 23.5Z" stroke-width="1"></path><path fill="#cfd3d4" d="M26.71437272727273 16.95930909090909c-1.063909090909091 0.5729727272727272 -2.445281818181818 0.07391818181818181 -2.445281818181818 0.07391818181818181s0.34395454545454546 -1.427518181818182 1.4078636363636363 -2.0004909090909093c1.063909090909091 -0.5729727272727272 2.445281818181818 -0.07391818181818181 2.445281818181818 -0.07391818181818181s-0.34395454545454546 1.427518181818182 -1.4078636363636363 2.0004909090909093Z" stroke-width="1"></path><path fill="#cfd3d4" d="M20.28562727272727 16.95930909090909c1.063909090909091 0.5729727272727272 2.445281818181818 0.07391818181818181 2.445281818181818 0.07391818181818181s-0.34395454545454546 -1.427518181818182 -1.4078636363636363 -2.0004909090909093c-1.063909090909091 -0.5729727272727272 -2.445281818181818 -0.07391818181818181 -2.445281818181818 -0.07391818181818181s0.34395454545454546 1.427518181818182 1.4078636363636363 2.0004909090909093Z" stroke-width="1"></path><path fill="#fbd7d7" d="M19.421254545454545 21.769545454545455C20.49029090909091 22.839863636363635 21.921654545454544 23.5 23.5 23.5V19.227272727272727c-1.5715090909090907 0 -6.026681818181818 -3.243 -4.078745454545454 2.542272727272727Z" stroke-width="1"></path><path fill="#f79392" d="M21.363636363636363 20.509090909090908h4.2727272727272725s0 1.2818181818181817 -2.1363636363636362 1.2818181818181817 -2.1363636363636362 -1.2818181818181817 -2.1363636363636362 -1.2818181818181817Z" stroke-width="1"></path><path fill="#5b5c5f" d="M21.79090909090909 28.627272727272725v1.709090909090909l-1.7078090909090908 -1.2818181818181817c-1.286518181818182 1.093390909090909 -2.1769545454545454 2.4149454545454545 -2.1363636363636362 4.2727272727272725 2.5636363636363635 -0.2849909090909091 4.2714454545454545 0 5.553263636363636 2.1363636363636362V29.909090909090907l-1.709090909090909 -1.2818181818181817Z" stroke-width="1"></path></svg>