<svg xmlns="http://www.w3.org/2000/svg" fill="none" viewBox="-0.5 -0.5 48 48" id="Fashionista--Streamline-Kameleon.svg" height="48" width="48"><desc>Fashionista Streamline Icon: https://streamlinehq.com</desc><path fill="#e04f5f" d="M23.5 47c12.978836363636363 0 23.5 -10.521163636363635 23.5 -23.5S36.47883636363636 0 23.5 0 0 10.521163636363635 0 23.5s10.521163636363635 23.5 23.5 23.5Z" stroke-width="1"></path><path fill="#f7b4b4" d="M35.63839090909091 33.18328181818182a3.418181818181818 3.418181818181818 0 0 0 -2.2081454545454546 -2.0470636363636365L27.77272727272727 29.787318181818183v-3.5390999999999995c-1.2138818181818183 1.878290909090909 -2.8695636363636363 2.765736363636363 -4.2727272727272725 3.2335999999999996v7.6909090909090905h13.672727272727272l-1.5343363636363636 -3.989445454545454Z" stroke-width="1"></path><path fill="#fbc8c8" d="M19.227272727272727 26.24821818181818v3.5390999999999995l-5.6575181818181814 1.3489a3.418181818181818 3.418181818181818 0 0 0 -2.2081454545454546 2.0466363636363636L9.827272727272726 37.17272727272727h13.672727272727272V29.48181818181818c-1.4031636363636362 -0.4678636363636363 -3.0588454545454544 -1.354881818181818 -4.2727272727272725 -3.2335999999999996Z" stroke-width="1"></path><path fill="#3e3e3f" d="m19.227272727272727 29.48181818181818 2.1363636363636362 7.6909090909090905H13.245454545454544l4.2727272727272725 -7.263636363636364 1.709090909090909 -0.42727272727272725Z" stroke-width="1"></path><path fill="#3e3e3f" d="m27.77272727272727 29.48181818181818 -2.1363636363636362 7.6909090909090905h8.118181818181817L29.48181818181818 29.909090909090907l-1.709090909090909 -0.42727272727272725Z" stroke-width="1"></path><path fill="#f37a10" d="M30.763636363636362 29.054545454545455c-2.296163636363636 -2.869990909090909 0.061099999999999995 -2.9909090909090907 0.061099999999999995 -7.6909090909090905l-0.024781818181818183 -3.418181818181818v-0.8545454545454545c-0.2520909090909091 -3.8168272727272723 -3.4194636363636364 -6.836363636363636 -7.299954545454545 -6.836363636363636s-7.072218181818181 3.0195363636363637 -7.324736363636363 6.836363636363636v0.8545454545454545l0 3.418181818181818c0 4.699999999999999 2.3572636363636366 4.820918181818182 0.061099999999999995 7.6909090909090905 -1.709090909090909 2.1363636363636362 -5.127272727272727 5.127272727272727 -0.42727272727272725 8.118181818181817h3.418181818181818c-5.9818181818181815 -2.9909090909090907 1.3211272727272727 -3.8035818181818177 0.8545454545454545 -7.6909090909090905 -0.5093090909090908 -4.242390909090909 -1.709090909090909 -2.9909090909090907 -1.709090909090909 -6.409090909090908l0 -5.127272727272727h0.7622545454545454c1.6787545454545454 0 3.2664999999999997 -0.7631090909090908 4.315454545454545 -2.073981818181818L23.5 15.809090909090909l0.04999090909090909 0.06238181818181818A5.526345454545454 5.526345454545454 0 0 0 27.86544545454545 17.945454545454545H28.627272727272725l0 5.127272727272727c0 3.418181818181818 -1.199781818181818 2.1666999999999996 -1.709090909090909 6.409090909090908 -0.4665818181818182 3.8873272727272727 6.836363636363636 4.699999999999999 0.8545454545454545 7.6909090909090905h3.418181818181818c4.699999999999999 -2.9909090909090907 1.2818181818181817 -5.9818181818181815 -0.42727272727272725 -8.118181818181817Z" stroke-width="1"></path><path fill="#fbc8c8" d="m29.909090909090907 19.227272727272727 -0.42727272727272725 0 0 -0.008972727272727273A30.30303636363636 30.30303636363636 0 0 0 29.45575454545454 17.945454545454545h-1.5907363636363634c-1.679181818181818 0 -3.2669272727272727 -0.7631090909090908 -4.315454545454545 -2.073981818181818L23.5 15.809090909090909l-0.04999090909090909 0.06238181818181818A5.525490909090909 5.525490909090909 0 0 1 19.134981818181817 17.945454545454545h-1.5907363636363634A31.046918181818178 31.046918181818178 0 0 0 17.518181818181816 19.2183L17.518181818181816 19.227272727272727l-0.42727272727272725 0c-0.42727272727272725 0 -0.8545454545454545 0.47469999999999996 -0.8545454545454545 0.9493999999999999 0 1.3207 0.36916363636363636 3.0464545454545453 1.7851454545454544 3.291281818181818C19.06490909090909 27.35656363636363 21.532836363636363 28.825954545454547 23.5 29.48181818181818c1.9671636363636362 -0.6558636363636363 4.435090909090909 -2.1252545454545455 5.478490909090908 -6.013863636363635C30.394472727272724 23.223554545454544 30.763636363636362 21.497372727272726 30.763636363636362 20.176672727272727 30.763636363636362 19.701972727272725 30.336363636363636 19.227272727272727 29.909090909090907 19.227272727272727Z" stroke-width="1"></path><path fill="#f99134" d="M16.175263636363635 17.09090909090909v0.8545454545454545l0 3.418181818181818c0 4.699999999999999 2.3572636363636366 4.820918181818182 0.061099999999999995 7.6909090909090905 -1.709090909090909 2.1363636363636362 -5.127272727272727 5.127272727272727 -0.42727272727272725 8.118181818181817h3.418181818181818c-5.9818181818181815 -2.9909090909090907 1.3211272727272727 -3.8035818181818177 0.8545454545454545 -7.6909090909090905 -0.5093090909090908 -4.242390909090909 -1.709090909090909 -2.9909090909090907 -1.709090909090909 -6.409090909090908l0 -5.127272727272727h0.7622545454545454c1.6787545454545454 0 3.2664999999999997 -0.7631090909090908 4.315454545454545 -2.073981818181818L23.5 15.809090909090909V10.254545454545454c-3.880490909090909 0 -7.072218181818181 3.0195363636363637 -7.324736363636363 6.836363636363636Z" stroke-width="1"></path><path fill="#fbd7d7" d="M23.45000909090909 15.871472727272726A5.525490909090909 5.525490909090909 0 0 1 19.134981818181817 17.945454545454545h-1.5907363636363634A31.046918181818178 31.046918181818178 0 0 0 17.518181818181816 19.2183L17.518181818181816 19.227272727272727l-0.42727272727272725 0c-0.42727272727272725 0 -0.8545454545454545 0.47469999999999996 -0.8545454545454545 0.9493999999999999 0 1.3207 0.36916363636363636 3.0464545454545453 1.7851454545454544 3.291281818181818C19.06490909090909 27.35656363636363 21.532836363636363 28.825954545454547 23.5 29.48181818181818V15.809090909090909l-0.04999090909090909 0.06238181818181818Z" stroke-width="1"></path><path fill="#f79392" d="M21.363636363636363 24.78181818181818h4.2727272727272725s0 1.2818181818181817 -2.1363636363636362 1.2818181818181817 -2.1363636363636362 -1.2818181818181817 -2.1363636363636362 -1.2818181818181817Z" stroke-width="1"></path><path fill="#fbd7d7" d="M18.37272727272727 23.5c-1.709090909090909 0 -2.1363636363636362 -1.8987999999999998 -2.1363636363636362 -3.3233272727272722C16.236363636363635 19.701972727272725 16.663636363636364 19.227272727272727 17.09090909090909 19.227272727272727l1.2818181818181817 0v4.2727272727272725Z" stroke-width="1"></path><path fill="#fbc8c8" d="M28.627272727272725 23.5c1.709090909090909 0 2.1363636363636362 -1.8987999999999998 2.1363636363636362 -3.3233272727272722C30.763636363636362 19.701972727272725 30.336363636363636 19.227272727272727 29.909090909090907 19.227272727272727l-1.2818181818181817 0v4.2727272727272725Z" stroke-width="1"></path><path fill="#3e3e3f" d="m28.627272727272725 18.37272727272727 -5.127272727272727 0 -5.127272727272727 0c-0.8545454545454545 0 -1.2818181818181817 0.8545454545454545 -1.2818181818181817 2.1363636363636362s0.8545454545454545 2.5636363636363635 2.5636363636363635 2.5636363636363635c2.5636363636363635 0 2.5636363636363635 -2.5636363636363635 3.8454545454545452 -2.5636363636363635s1.2818181818181817 2.5636363636363635 3.8454545454545452 2.5636363636363635c1.709090909090909 0 2.5636363636363635 -1.2818181818181817 2.5636363636363635 -2.5636363636363635s-0.42727272727272725 -2.1363636363636362 -1.2818181818181817 -2.1363636363636362Z" stroke-width="1"></path><path fill="#5b5c5f" d="M18.37272727272727 18.37272727272727c-0.8545454545454545 0 -1.2818181818181817 0.8545454545454545 -1.2818181818181817 2.1363636363636362 0 0.5776727272727272 0.17518181818181816 1.1540636363636363 0.5221272727272727 1.6142363636363635L21.363636363636363 18.37272727272727l-2.9909090909090907 0Z" stroke-width="1"></path><path fill="#fbe158" d="M25.636363636363633 17.945454545454545H21.363636363636363c-0.23500000000000001 0 -0.42727272727272725 0.19227272727272726 -0.42727272727272725 0.42727272727272725l0.42727272727272725 0.8545454545454545h4.2727272727272725l0.42727272727272725 -0.8545454545454545c0 -0.23500000000000001 -0.19227272727272726 -0.42727272727272725 -0.42727272727272725 -0.42727272727272725Z" stroke-width="1"></path><path fill="#facb1b" d="M16.932390909090905 24.892054545454545a0.6960272727272727 0.6960272727272727 0 1 0 0 -1.3920545454545454 0.6960272727272727 0.6960272727272727 0 0 0 0 1.3920545454545454Z" stroke-width="1"></path><path fill="#facb1b" d="M30.177845454545455 24.892054545454545a0.6960272727272727 0.6960272727272727 0 1 0 0 -1.3920545454545454 0.6960272727272727 0.6960272727272727 0 0 0 0 1.3920545454545454Z" stroke-width="1"></path></svg>