<svg xmlns="http://www.w3.org/2000/svg" fill="none" viewBox="-0.5 -0.5 48 48" id="Man-7--Streamline-Kameleon.svg" height="48" width="48"><desc>Man 7 Streamline Icon: https://streamlinehq.com</desc><path fill="#32bea6" d="M23.5 47c12.978836363636363 0 23.5 -10.521163636363635 23.5 -23.5S36.47883636363636 0 23.5 0 0 10.521163636363635 0 23.5s10.521163636363635 23.5 23.5 23.5Z" stroke-width="1"></path><path fill="#fbc8c8" d="M30.221 19.308027272727273c-0.7302090909090909 0.40548181818181817 -0.7391818181818182 0.8203636363636363 -0.7391818181818182 1.5548454545454544V21.363636363636363h-0.8545454545454545V15.730472727272728c-1.0429727272727272 0.8156636363636364 -2.550390909090909 1.3758181818181818 -4.699999999999999 1.3758181818181818l-2.9909090909090907 0c-1.4283727272727271 0 -2.620890909090909 -0.8788999999999999 -2.9178454545454544 -2.053045454545454C17.5921 16.253454545454545 17.521172727272724 17.705327272727274 17.518181818181816 19.227272727272727v3.418181818181818l1.709090909090909 4.2727272727272725 2.1812272727272726 1.7069545454545454A1.2818181818181817 1.2818181818181817 0 0 0 22.36559090909091 29.054545454545455h2.2688181818181814a1.2818181818181817 1.2818181818181817 0 0 0 0.9570909090909091 -0.42940909090909085L27.77272727272727 26.918181818181818l1.3706909090909092 -3.4267272727272724C30.35430909090909 23.403863636363635 30.763636363636362 21.56659090909091 30.763636363636362 20.176672727272727c0 -0.3563454545454545 -0.24098181818181816 -0.7131181818181818 -0.5426363636363636 -0.8686454545454545Z" stroke-width="1"></path><path fill="#3e3e3f" d="M35.46363636363636 32.47272727272727a2.5632090909090905 2.5632090909090905 0 0 0 -1.3001909090909092 -1.2745545454545455L29.054545454545455 29.48181818181818H17.945454545454545l-5.1089 1.7163545454545455A2.5632090909090905 2.5632090909090905 0 0 0 11.536363636363635 32.47272727272727l-1.709090909090909 4.699999999999999h27.345454545454544l-1.709090909090909 -4.699999999999999Z" stroke-width="1"></path><path fill="#df2c2c" d="M23.5 33.76992727272727c1.647990909090909 0 5.554545454545455 -0.42727272727272725 5.554545454545455 -2.9909090909090907l0 -1.312581818181818h-1.2818181818181817v1.312581818181818s-0.8545454545454545 1.709090909090909 -4.2727272727272725 1.709090909090909 -4.2727272727272725 -1.709090909090909 -4.2727272727272725 -1.709090909090909v-1.312581818181818h-1.2818181818181817l0 1.312581818181818c0 2.5636363636363635 3.9065545454545454 2.9909090909090907 5.554545454545455 2.9909090909090907Z" stroke-width="1"></path><path fill="#daddde" d="m14.055136363636365 30.77901818181818 -1.218581818181818 0.4093272727272727A2.5632090909090905 2.5632090909090905 0 0 0 11.536363636363635 32.4629l-1.709090909090909 4.699999999999999h5.090527272727273l-0.8626636363636364 -6.383881818181818Z" stroke-width="1"></path><path fill="#daddde" d="m32.944863636363635 30.788845454545452 1.218581818181818 0.4093272727272727A2.5632090909090905 2.5632090909090905 0 0 1 35.46363636363636 32.47272727272727l1.709090909090909 4.699999999999999H32.0822l0.8626636363636364 -6.383881818181818Z" stroke-width="1"></path><path fill="#f7b4b4" d="M24.63440909090909 29.054545454545455h-2.2688181818181814a1.2818181818181817 1.2818181818181817 0 0 1 -0.9570909090909091 -0.42940909090909085L19.227272727272727 26.918181818181818v3.860836363636363s0.8545454545454545 1.709090909090909 4.2727272727272725 1.709090909090909 4.2727272727272725 -1.709090909090909 4.2727272727272725 -1.709090909090909V26.918181818181818l-2.1812272727272726 1.7069545454545454A1.2818181818181817 1.2818181818181817 0 0 1 24.63440909090909 29.054545454545455Z" stroke-width="1"></path><path fill="#fbc8c8" d="M21.408499999999997 28.625136363636365 19.227272727272727 26.918181818181818v3.860836363636363s0.8545454545454545 1.709090909090909 4.2727272727272725 1.709090909090909V29.054545454545455h-1.1344090909090907a1.2801090909090909 1.2801090909090909 0 0 1 -0.9570909090909091 -0.42940909090909085Z" stroke-width="1"></path><path fill="#fbd7d7" d="M18.37272727272727 15.829172727272725V21.363636363636363h-0.8545454545454545v-0.5007636363636363c0 -0.7289272727272726 -0.009399999999999999 -1.1429545454545453 -0.7233727272727273 -1.5454454545454543 -0.30849090909090904 0.1508272727272727 -0.5584454545454545 0.5118727272727273 -0.5584454545454545 0.8746272727272727 0 1.3924818181818182 0.41060909090909087 3.2335999999999996 1.6266272727272726 3.3156363636363633L19.227272727272727 26.918181818181818l2.1812272727272726 1.7069545454545454A1.2801090909090909 1.2801090909090909 0 0 0 22.36559090909091 29.054545454545455H23.5V17.10629090909091l-2.5636363636363635 0c-1.0899727272727273 0 -2.040654545454545 -0.5131545454545454 -2.5636363636363635 -1.2771181818181816Z" stroke-width="1"></path><path fill="#3e3e3f" d="M22.21818181818182 20.0972a0.8545454545454545 0.8545454545454545 0 0 0 -0.8545454545454545 -0.8545454545454545l-0.0025636363636363634 0c0.00042727272727272726 0.009399999999999999 0.0025636363636363634 0.017945454545454546 0.0025636363636363634 0.026918181818181817a0.8545454545454545 0.8545454545454545 0 0 1 -0.8519818181818182 0.8545454545454545A0.8528363636363636 0.8528363636363636 0 0 0 22.21818181818182 20.0972Z" stroke-width="1"></path><path fill="#3e3e3f" d="M26.488345454545453 20.0972a0.8545454545454545 0.8545454545454545 0 0 0 -0.8545454545454545 -0.8545454545454545l-0.0025636363636363634 0c0.00042727272727272726 0.008972727272727273 0.0025636363636363634 0.017518181818181818 0.0025636363636363634 0.02649090909090909a0.8545454545454545 0.8545454545454545 0 0 1 -0.8519818181818182 0.8545454545454545 0.8528363636363636 0.8528363636363636 0 0 0 1.7065272727272727 -0.02649090909090909Z" stroke-width="1"></path><path fill="#f79392" d="M21.363636363636363 24.7972h4.2727272727272725s0 1.2818181818181817 -2.1363636363636362 1.2818181818181817 -2.1363636363636362 -1.2818181818181817 -2.1363636363636362 -1.2818181818181817Z" stroke-width="1"></path><path fill="#692e19" d="M30.763636363636362 11.124472727272726H20.936363636363634c-1.6518363636363635 0 -2.9909090909090907 1.9103363636363635 -2.9909090909090907 3.3587909090909087 0 1.4488818181818182 1.3390727272727272 2.6230272727272728 2.9909090909090907 2.6230272727272728l2.9909090909090907 0c2.149609090909091 0 3.657027272727272 -0.5601545454545453 4.699999999999999 -1.3758181818181818V21.363636363636363h0.8545454545454545v-0.5007636363636363c0 -0.773790909090909 0 -1.1929454545454543 0.8545454545454545 -1.6202181818181816V15.381818181818181c0 -0.42684545454545453 -0.16193636363636363 -0.8122454545454545 -0.4204363636363636 -1.1117636363636363C30.54871818181818 13.210845454545455 30.763636363636362 12.043963636363635 30.763636363636362 11.124472727272726Z" stroke-width="1"></path><path fill="#84462d" d="M20.936363636363634 11.124472727272726c-1.3668454545454545 0 -2.5170636363636363 1.3074545454545454 -2.8742636363636365 2.5794454545454544A1.7078090909090908 1.7078090909090908 0 0 0 16.663636363636364 15.381818181818181v3.860836363636363c0.8545454545454545 0.42727272727272725 0.8545454545454545 0.8464272727272727 0.8545454545454545 1.6202181818181816V21.363636363636363h0.8545454545454545V15.829172727272725c0.5229818181818181 0.7639636363636363 1.4736636363636362 1.2771181818181816 2.5636363636363635 1.2771181818181816l2.5636363636363635 0v-5.9818181818181815h-2.5636363636363635Z" stroke-width="1"></path></svg>