<svg xmlns="http://www.w3.org/2000/svg" fill="none" viewBox="-0.5 -0.5 48 48" id="Ninja--Streamline-Kameleon.svg" height="48" width="48"><desc>Ninja Streamline Icon: https://streamlinehq.com</desc><path fill="#32bea6" d="M23.5 47c12.978836363636363 0 23.5 -10.521163636363635 23.5 -23.5S36.47883636363636 0 23.5 0 0 10.521163636363635 0 23.5s10.521163636363635 23.5 23.5 23.5Z" stroke-width="1"></path><path fill="#3e3e3f" d="m15.700990909090908 27.55011818181818 -2.408963636363636 -5.320827272727272a1.0169090909090908 1.0169090909090908 0 1 0 -1.853081818181818 0.8387363636363636l2.4102454545454544 5.323390909090909 1.8517999999999997 -0.8417272727272727Z" stroke-width="1"></path><path fill="#f3b607" d="m17.518181818181816 28.627272727272725 -0.42727272727272725 -1.709090909090909 -4.699999999999999 2.1363636363636362 1.709090909090909 1.2818181818181817 3.418181818181818 -1.709090909090909Z" stroke-width="1"></path><path fill="#3e3e3f" d="M35.46363636363636 30.76064545454545C34.52320909090909 30.161181818181817 31.190909090909088 29.054545454545455 28.627272727272725 27.77272727272727c0.5934818181818181 -2.830681818181818 2.1363636363636362 -7.6909090909090905 1.2818181818181817 -13.245454545454544 -0.3896727272727273 -2.5337272727272726 -4.699999999999999 -4.699999999999999 -6.409090909090908 -4.699999999999999s-6.019418181818181 2.166272727272727 -6.409090909090908 4.699999999999999c-0.8545454545454545 5.554545454545455 0.6883363636363636 10.414772727272727 1.2818181818181817 13.245454545454544 -2.5636363636363635 1.2818181818181817 -5.895936363636363 2.3884545454545454 -6.836363636363636 2.987918181818182C10.237027272727271 31.588699999999996 9.827272727272726 37.17272727272727 9.827272727272726 37.17272727272727h27.345454545454544s-0.4097545454545454 -5.584027272727273 -1.709090909090909 -6.412081818181818Z" stroke-width="1"></path><path fill="#5b5c5f" d="M23.5 31.297727272727272V9.827272727272726c-1.709090909090909 0 -6.019418181818181 2.166272727272727 -6.409090909090908 4.699999999999999 -0.8545454545454545 5.554545454545455 0.6883363636363636 10.414772727272727 1.2818181818181817 13.245454545454544l5.127272727272727 3.525Z" stroke-width="1"></path><path fill="#fbd7d7" d="M23.5 17.518181818181816c-2.9909090909090907 0 -5.127272727272727 0.42727272727272725 -5.127272727272727 0.42727272727272725v2.1363636363636362s2.9909090909090907 2.5636363636363635 5.127272727272727 2.5636363636363635 5.127272727272727 -2.5636363636363635 5.127272727272727 -2.5636363636363635v-2.1363636363636362s-2.1363636363636362 -0.42727272727272725 -5.127272727272727 -0.42727272727272725Z" stroke-width="1"></path><path fill="#fbc8c8" d="M28.627272727272725 20.081818181818182v-2.1363636363636362s-2.1363636363636362 -0.42727272727272725 -5.127272727272727 -0.42727272727272725v5.127272727272727c2.1363636363636362 0 5.127272727272727 -2.5636363636363635 5.127272727272727 -2.5636363636363635Z" stroke-width="1"></path><path fill="#3e3e3f" d="M22.21561818181818 19.654545454545453a0.8545454545454545 0.8545454545454545 0 0 0 -0.8545454545454545 -0.8545454545454545l-0.0025636363636363634 0c0.00042727272727272726 0.008972727272727273 0.0025636363636363634 0.017518181818181818 0.0025636363636363634 0.02649090909090909a0.8545454545454545 0.8545454545454545 0 0 1 -0.8519818181818182 0.8545454545454545A0.8528363636363636 0.8528363636363636 0 0 0 22.21561818181818 19.654545454545453Z" stroke-width="1"></path><path fill="#3e3e3f" d="M26.485354545454545 19.654545454545453a0.8545454545454545 0.8545454545454545 0 0 0 -0.8545454545454545 -0.8545454545454545l-0.0025636363636363634 0c0.00042727272727272726 0.008972727272727273 0.0025636363636363634 0.017518181818181818 0.0025636363636363634 0.02649090909090909a0.8545454545454545 0.8545454545454545 0 0 1 -0.8519818181818182 0.8545454545454545A0.8536909090909091 0.8536909090909091 0 0 0 26.485354545454545 19.654545454545453Z" stroke-width="1"></path><path fill="#e2e4e5" d="M24.752763636363635 32.15868181818182 18.37272727272727 27.77272727272727a36.44422727272727 36.44422727272727 0 0 1 -1.920590909090909 0.8814636363636363L23.038972727272725 33.42127272727272l1.7137909090909091 -1.262590909090909Z" stroke-width="1"></path><path fill="#f1f2f2" d="m22.81251818181818 37.17272727272727 9.022718181818181 -7.981454545454545a63.9840909090909 63.9840909090909 0 0 1 -1.9381090909090906 -0.8220727272727272L17.945454545454545 37.17272727272727h4.867063636363636Z" stroke-width="1"></path></svg>