<svg xmlns="http://www.w3.org/2000/svg" fill="none" viewBox="-0.5 -0.5 48 48" id="Pilot-1--Streamline-Kameleon.svg" height="48" width="48"><desc>Pilot 1 Streamline Icon: https://streamlinehq.com</desc><path fill="#25b7d3" d="M23.5 47c12.978836363636363 0 23.5 -10.521163636363635 23.5 -23.5S36.47883636363636 0 23.5 0 0 10.521163636363635 0 23.5s10.521163636363635 23.5 23.5 23.5Z" stroke-width="1"></path><path fill="#f7b4b4" d="M24.63440909090909 29.054545454545455h-2.2688181818181814a1.281390909090909 1.281390909090909 0 0 1 -0.9570909090909091 -0.4289818181818182L19.227272727272727 26.918181818181818v1.9227272727272726S19.227272727272727 32.04545454545455 23.5 32.04545454545455s4.2727272727272725 -3.204545454545454 4.2727272727272725 -3.204545454545454V26.918181818181818l-2.1812272727272726 1.7073818181818181A1.281390909090909 1.281390909090909 0 0 1 24.63440909090909 29.054545454545455Z" stroke-width="1"></path><path fill="#fbc8c8" d="M21.408499999999997 28.624281818181814 19.227272727272727 26.9169v1.9227272727272726s0 3.204545454545454 4.2727272727272725 3.204545454545454v-2.9909090909090907h-1.1344090909090907a1.281390909090909 1.281390909090909 0 0 1 -0.9570909090909091 -0.4289818181818182Z" stroke-width="1"></path><path fill="#fff" d="M19.49431818181818 28.760581818181816 23.5 37.17272727272727l4.005681818181818 -8.412145454545454L23.50640909090909 30.763636363636362l-4.012090909090909 -2.003054545454545Z" stroke-width="1"></path><path fill="#3e3e3f" d="m25.209090909090907 37.17272727272727 -1.1959363636363636 -4.3581818181818175L24.78181818181818 32.046309090909084l-1.2899363636363637 -1.2920727272727273 -1.2809636363636363 1.2809636363636363 0.7767818181818181 0.7763545454545454L21.79090909090909 37.17272727272727h3.418181818181818Z" stroke-width="1"></path><path fill="#5b5c5f" d="M23.5 37.17272727272727V30.762354545454542l-0.008118181818181818 -0.008118181818181818 -1.2809636363636363 1.2809636363636363 0.7767818181818181 0.7763545454545454L21.79090909090909 37.17272727272727h1.709090909090909Z" stroke-width="1"></path><path fill="#0484ab" d="m9.827272727272726 37.17272727272727 1.709090909090909 -4.699999999999999a2.564490909090909 2.564490909090909 0 0 1 1.3001909090909092 -1.2745545454545455L18.37272727272727 29.054545454545455l5.127272727272727 8.118181818181817H9.827272727272726Z" stroke-width="1"></path><path fill="#0484ab" d="m37.17272727272727 37.17272727272727 -1.709090909090909 -4.699999999999999a2.564490909090909 2.564490909090909 0 0 0 -1.3001909090909092 -1.2745545454545455L28.627272727272725 29.054545454545455 23.5 37.17272727272727h13.672727272727272Z" stroke-width="1"></path><path fill="#3e3e3f" d="M11.14711818181818 31.64723636363636 11.461163636363636 33.32727272727273l1.2160181818181819 -0.4717090909090909 -0.31447272727272724 -1.6804636363636363 -1.2155909090909092 0.4721363636363636Z" stroke-width="1"></path><path fill="#3e3e3f" d="m13.578727272727273 30.702963636363638 0.3140454545454545 1.6804636363636363 1.2160181818181819 -0.4717090909090909 -0.31447272727272724 -1.6804636363636363 -1.2155909090909092 0.4717090909090909Z" stroke-width="1"></path><path fill="#3e3e3f" d="m17.63098181818182 29.129318181818178 -1.6210727272727272 0.6297999999999999 0.31447272727272724 1.6804636363636363L17.945454545454545 30.810636363636362l-0.31447272727272724 -1.6813181818181817Z" stroke-width="1"></path><path fill="#f3b607" d="m12.36270909090909 31.175099999999997 0.31447272727272724 1.6804636363636363 1.2155909090909092 -0.4721363636363636 -0.3140454545454545 -1.6804636363636363 -1.2160181818181819 0.4721363636363636Z" stroke-width="1"></path><path fill="#f3b607" d="m14.79431818181818 30.231254545454547 0.31447272727272724 1.6804636363636363 1.2155909090909092 -0.4721363636363636 -0.31447272727272724 -1.6804636363636363 -1.2155909090909092 0.4721363636363636Z" stroke-width="1"></path><path fill="#3e3e3f" d="M35.89090909090909 31.64723636363636 35.57686363636363 33.32727272727273l-1.2160181818181819 -0.4717090909090909 0.31447272727272724 -1.6804636363636363L35.89090909090909 31.64723636363636Z" stroke-width="1"></path><path fill="#3e3e3f" d="m33.4593 30.702963636363638 -0.3140454545454545 1.6804636363636363 -1.2160181818181819 -0.4717090909090909 0.31447272727272724 -1.6804636363636363 1.2155909090909092 0.4717090909090909Z" stroke-width="1"></path><path fill="#3e3e3f" d="m29.407045454545454 29.129318181818178 1.6206454545454545 0.6297999999999999 -0.3140454545454545 1.6804636363636363 -1.6210727272727272 -0.6289454545454545 0.31447272727272724 -1.6813181818181817Z" stroke-width="1"></path><path fill="#f3b607" d="m34.67531818181818 31.175099999999997 -0.31447272727272724 1.6804636363636363 -1.2155909090909092 -0.4721363636363636 0.3140454545454545 -1.6804636363636363 1.2160181818181819 0.4721363636363636Z" stroke-width="1"></path><path fill="#f3b607" d="m32.243709090909086 30.231254545454547 -0.31447272727272724 1.6804636363636363 -1.2155909090909092 -0.4721363636363636 0.3140454545454545 -1.6804636363636363 1.2160181818181819 0.4721363636363636Z" stroke-width="1"></path><path fill="#f3b607" d="M32.58552727272727 35.508072727272726C33.54902727272727 35.088063636363636 35.46363636363636 34.60909090909091 35.46363636363636 34.60909090909091h-2.9909090909090907l-0.42727272727272725 -0.8545454545454545 -0.42727272727272725 0.8545454545454545h-2.9909090909090907s1.9146090909090907 0.4789727272727272 2.8781090909090907 0.8989818181818182L32.04545454545455 36.31818181818181l0.5400727272727273 -0.8101090909090908Z" stroke-width="1"></path><path fill="#fbc8c8" d="M29.909090909090907 19.227272727272727c-0.42727272727272725 0 -0.42727272727272725 0.47469999999999996 -0.42727272727272725 0.47469999999999996v-1.3305272727272726c-0.001709090909090909 -0.9553818181818182 -0.02990909090909091 -1.8312909090909089 -0.15595454545454543 -2.6089272727272723C28.54010909090909 15.388654545454544 26.837854545454544 14.954545454545453 23.5 14.954545454545453c-3.3382818181818177 0 -5.04010909090909 0.4341090909090909 -5.825863636363636 0.8079727272727273 -0.12604545454545454 0.7776363636363636 -0.15424545454545452 1.6535454545454544 -0.15595454545454543 2.6089272727272723v4.2727272727272725l1.709090909090909 4.2727272727272725 2.1812272727272726 1.7073818181818181a1.281390909090909 1.281390909090909 0 0 0 0.9570909090909091 0.4289818181818182h2.2688181818181814c0.36574545454545454 0 0.7139727272727272 -0.15595454545454543 0.9570909090909091 -0.4289818181818182L27.77272727272727 26.9169l1.3702636363636362 -3.425445454545454C30.35430909090909 23.40429090909091 30.763636363636362 21.56701818181818 30.763636363636362 20.176672727272727 30.763636363636362 19.701972727272725 30.336363636363636 19.227272727272727 29.909090909090907 19.227272727272727Z" stroke-width="1"></path><path fill="#fbd7d7" d="M17.518181818181816 18.371445454545455v1.3305272727272726S17.518181818181816 19.227272727272727 17.09090909090909 19.227272727272727s-0.8545454545454545 0.47469999999999996 -0.8545454545454545 0.9493999999999999c0 1.3899181818181818 0.4093272727272727 3.227618181818182 1.6206454545454545 3.314781818181818L19.227272727272727 26.9169l2.1812272727272726 1.7073818181818181a1.281390909090909 1.281390909090909 0 0 0 0.9570909090909091 0.4289818181818182H23.5V14.954545454545453c-3.3382818181818177 0 -5.04010909090909 0.4341090909090909 -5.825863636363636 0.8079727272727273 -0.12604545454545454 0.7776363636363636 -0.15424545454545452 1.6535454545454544 -0.15595454545454543 2.6089272727272723Z" stroke-width="1"></path><path fill="#3e3e3f" d="M22.21818181818182 20.080536363636362a0.8545454545454545 0.8545454545454545 0 0 0 -0.8545454545454545 -0.8545454545454545l-0.0025636363636363634 0c0.00042727272727272726 0.009399999999999999 0.0025636363636363634 0.017945454545454546 0.0025636363636363634 0.026918181818181817a0.8545454545454545 0.8545454545454545 0 0 1 -0.8519818181818182 0.8545454545454545A0.8528363636363636 0.8528363636363636 0 0 0 22.21818181818182 20.080536363636362Z" stroke-width="1"></path><path fill="#3e3e3f" d="M26.488345454545453 20.080536363636362a0.8545454545454545 0.8545454545454545 0 0 0 -0.8545454545454545 -0.8545454545454545l-0.0025636363636363634 0c0.00042727272727272726 0.008545454545454545 0.0025636363636363634 0.01709090909090909 0.0025636363636363634 0.02649090909090909a0.8545454545454545 0.8545454545454545 0 0 1 -0.8519818181818182 0.8545454545454545 0.8528363636363636 0.8528363636363636 0 0 0 1.7065272727272727 -0.02649090909090909Z" stroke-width="1"></path><path fill="#f79392" d="M21.363636363636363 24.353263636363636h4.2727272727272725s0 1.2818181818181817 -2.1363636363636362 1.2818181818181817 -2.1363636363636362 -1.2818181818181817 -2.1363636363636362 -1.2818181818181817Z" stroke-width="1"></path><path fill="#84462d" d="m17.09090909090909 17.09090909090909 0 1.2818181818181817s0.42727272727272725 2.9909090909090907 0.8545454545454545 3.8454545454545452l0.42727272727272725 0 0 -5.127272727272727h-1.2818181818181817Z" stroke-width="1"></path><path fill="#84462d" d="m29.909090909090907 17.09090909090909 0 1.2818181818181817s-0.42727272727272725 2.9909090909090907 -0.8545454545454545 3.8454545454545452l-0.42727272727272725 0 0 -5.127272727272727h1.2818181818181817Z" stroke-width="1"></path><path fill="#fff" d="M23.5 9.827272727272726c-0.8545454545454545 0 -8.545454545454545 1.709090909090909 -8.545454545454545 4.2727272727272725 0 0.8545454545454545 2.1363636363636362 2.1363636363636362 2.1363636363636362 2.1363636363636362 0 -0.2572181818181818 1.2818181818181817 -1.2818181818181817 6.409090909090908 -1.2818181818181817s6.409090909090908 1.0246 6.409090909090908 1.2818181818181817c0 0 2.1363636363636362 -1.2818181818181817 2.1363636363636362 -2.1363636363636362 0 -2.5636363636363635 -7.6909090909090905 -4.2727272727272725 -8.545454545454545 -4.2727272727272725Z" stroke-width="1"></path><path fill="#f3b607" d="M23.5 14.527272727272727c-4.699999999999999 0 -6.409090909090908 1.2818181818181817 -6.409090909090908 1.709090909090909l0 0.8545454545454545c1.2818181818181817 -1.2818181818181817 6.409090909090908 -1.2818181818181817 6.409090909090908 -1.2818181818181817s5.127272727272727 0 6.409090909090908 1.2818181818181817l0 -0.8545454545454545c0 -0.42727272727272725 -1.709090909090909 -1.709090909090909 -6.409090909090908 -1.709090909090909Z" stroke-width="1"></path><path fill="#f3b607" d="M24.040072727272726 12.862618181818181C25.003572727272726 12.44260909090909 26.918181818181818 11.963636363636363 26.918181818181818 11.963636363636363h-2.9909090909090907l-0.42727272727272725 -0.8545454545454545 -0.42727272727272725 0.8545454545454545h-2.9909090909090907s1.9146090909090907 0.4789727272727272 2.8781090909090907 0.8989818181818182L23.5 13.672727272727272l0.5400727272727273 -0.8101090909090908Z" stroke-width="1"></path><path fill="#3e3e3f" d="M23.5 15.822336363636362s-5.554545454545455 0 -6.409090909090908 1.2818181818181817c1.2805363636363636 2.4448545454545454 6.2501454545454544 2.0069 6.409090909090908 2.1231181818181817 0.15894545454545453 -0.1157909090909091 5.128554545454545 0.3217363636363636 6.409090909090908 -2.1231181818181817 -0.8545454545454545 -1.2818181818181817 -6.409090909090908 -1.2818181818181817 -6.409090909090908 -1.2818181818181817Z" stroke-width="1"></path><path fill="#5b5c5f" d="M17.09090909090909 17.104154545454545c1.2805363636363636 2.4448545454545454 6.2501454545454544 2.0069 6.409090909090908 2.1231181818181817v-3.4049363636363634s-5.554545454545455 0 -6.409090909090908 1.2818181818181817Z" stroke-width="1"></path><path fill="#6fdaf1" d="M23.5 37.17272727272727 19.227272727272727 28.2l-1.709090909090909 0.8545454545454545 -0.5695545454545454 4.557718181818181H19.654545454545453l-0.9968272727272728 1.709090909090909L21.79090909090909 37.17272727272727h1.709090909090909Z" stroke-width="1"></path><path fill="#6fdaf1" d="m23.5 37.17272727272727 4.2727272727272725 -8.972727272727273 1.709090909090909 0.8545454545454545 0.5695545454545454 4.557718181818181H27.345454545454544l0.9968272727272728 1.709090909090909L25.209090909090907 37.17272727272727h-1.709090909090909Z" stroke-width="1"></path></svg>