<svg xmlns="http://www.w3.org/2000/svg" fill="none" viewBox="-0.5 -0.5 48 48" id="Rasta--Streamline-Kameleon.svg" height="48" width="48"><desc>Rasta Streamline Icon: https://streamlinehq.com</desc><path fill="#e04f5f" d="M23.5 47c12.978708181818181 0 23.5 -10.521291818181819 23.5 -23.5S36.47870818181818 0 23.5 0 0 10.521291818181819 0 23.5s10.521291818181819 23.5 23.5 23.5Z" stroke-width="1"></path><path fill="#facb1b" d="m9.827272727272726 37.17272727272727 1.709090909090909 -4.699999999999999c0.26277272727272727 -0.5695545454545454 0.7255090909090909 -1.022890909090909 1.3001909090909092 -1.2745545454545455L18.37272727272727 29.054545454545455l3.8454545454545452 8.118181818181817H9.827272727272726Z" stroke-width="1"></path><path fill="#fff" d="m22.21818181818182 37.17272727272727 -3.8454545454545452 -8.118181818181817 0.8545454545454545 -0.2149181818181818V27.77272727272727l-1.709090909090909 0.42727272727272725 -2.5636363636363635 7.263636363636364 4.2727272727272725 -0.8545454545454545 2.1363636363636362 2.5636363636363635h0.8545454545454545Z" stroke-width="1"></path><path fill="#facb1b" d="m37.17272727272727 37.17272727272727 -1.709090909090909 -4.699999999999999c-0.26277272727272727 -0.5695545454545454 -0.7255090909090909 -1.022890909090909 -1.3001909090909092 -1.2745545454545455L28.627272727272725 29.054545454545455l-3.8454545454545452 8.118181818181817h12.39090909090909Z" stroke-width="1"></path><path fill="#fff" d="m24.78181818181818 37.17272727272727 3.8454545454545452 -8.118181818181817 -0.8545454545454545 -0.2149181818181818V27.77272727272727l1.709090909090909 0.42727272727272725 2.5636363636363635 7.263636363636364 -4.2727272727272725 -0.8545454545454545 -2.1363636363636362 2.5636363636363635h-0.8545454545454545Z" stroke-width="1"></path><path fill="#9c6144" d="m27.77272727272727 26.916814545454542 -2.1812272727272726 1.7073818181818181c-0.2431181818181818 0.27302727272727273 -0.5913454545454545 0.4289818181818182 -0.9570909090909091 0.4289818181818182h-2.2688181818181814c-0.36574545454545454 0 -0.7139727272727272 -0.15595454545454543 -0.9570909090909091 -0.4289818181818182L19.227272727272727 26.916814545454542v1.9227272727272726l-0.8545454545454545 0.21363636363636362 3.8454545454545452 8.119463636363635h2.5636363636363635l3.8454545454545452 -8.119463636363635 -0.8545454545454545 -0.21363636363636362v-1.9227272727272726Z" stroke-width="1"></path><path fill="#bf8662" d="M21.408499999999997 28.62419636363636 19.227272727272727 26.916814545454542v1.9227272727272726l-0.8545454545454545 0.21363636363636362 3.8454545454545452 8.119463636363635h1.2818181818181817v-8.119463636363635h-1.1344090909090907c-0.36574545454545454 0 -0.7139727272727272 -0.15595454545454543 -0.9570909090909091 -0.4289818181818182Z" stroke-width="1"></path><path fill="#bf8662" d="M23.5 12.818181818181817c-5.544290909090909 0 -5.974127272727272 2.5636363636363635 -5.9818181818181815 6.409090909090908v3.4168999999999996l1.709090909090909 4.2727272727272725 2.1812272727272726 1.7073818181818181c0.2431181818181818 0.27302727272727273 0.5913454545454545 0.4289818181818182 0.9570909090909091 0.4289818181818182h2.2688181818181814c0.36574545454545454 0 0.7139727272727272 -0.15595454545454543 0.9570909090909091 -0.4289818181818182L27.77272727272727 26.9169l1.709090909090909 -4.2727272727272725V19.227272727272727c-0.00769090909090909 -3.8454545454545452 -0.4375272727272727 -6.409090909090908 -5.9818181818181815 -6.409090909090908Z" stroke-width="1"></path><path fill="#cc9978" d="M17.518181818181816 19.227272727272727v3.4168999999999996l1.709090909090909 4.2727272727272725 2.1812272727272726 1.7073818181818181c0.2431181818181818 0.27302727272727273 0.5913454545454545 0.4289818181818182 0.9570909090909091 0.4289818181818182H23.5V12.818181818181817c-5.544290909090909 0 -5.974127272727272 2.5636363636363635 -5.9818181818181815 6.409090909090908Z" stroke-width="1"></path><path fill="#3e3e3f" d="M22.21818181818182 20.080450909090906c0 -0.4717090909090909 -0.38283636363636364 -0.8545454545454545 -0.8545454545454545 -0.8545454545454545l-0.0025636363636363634 0c0.00042727272727272726 0.009399999999999999 0.0025636363636363634 0.017945454545454546 0.0025636363636363634 0.026918181818181817 0 0.47128181818181814 -0.3811272727272727 0.8528363636363636 -0.8519818181818182 0.8545454545454545 0.0141 0.4593181818181818 0.3888181818181818 0.8280545454545454 0.8519818181818182 0.8280545454545454 0.4717090909090909 -0.00042727272727272726 0.8545454545454545 -0.38283636363636364 0.8545454545454545 -0.8549727272727272Z" stroke-width="1"></path><path fill="#3e3e3f" d="M26.488345454545453 20.080450909090906c0 -0.4717090909090909 -0.38283636363636364 -0.8545454545454545 -0.8545454545454545 -0.8545454545454545l-0.0025636363636363634 0c0.00042727272727272726 0.008972727272727273 0.0025636363636363634 0.017518181818181818 0.0025636363636363634 0.02649090909090909 0 0.47128181818181814 -0.3811272727272727 0.8528363636363636 -0.8519818181818182 0.8545454545454545 0.0141 0.4593181818181818 0.3888181818181818 0.8280545454545454 0.8519818181818182 0.8280545454545454 0.4717090909090909 0 0.8545454545454545 -0.3824090909090909 0.8545454545454545 -0.8545454545454545Z" stroke-width="1"></path><path fill="#84462d" d="M21.363636363636363 24.35317818181818h4.2727272727272725s0 1.2818181818181817 -2.1363636363636362 1.2818181818181817 -2.1363636363636362 -1.2818181818181817 -2.1363636363636362 -1.2818181818181817Z" stroke-width="1"></path><path fill="#099686" d="M23.5 9.94943c-2.3000090909090907 0.024781818181818183 -8.972727272727273 0.4610272727272727 -8.972727272727273 4.701281818181818 0 0.22474545454545455 0.12519090909090907 0.5029 0.3131909090909091 0.7955818181818182 1.2395181818181817 -2.9114363636363634 6.635545454545454 -2.9182727272727274 8.659536363636363 -2.927672727272727 2.023990909090909 0.008972727272727273 7.420018181818182 0.015809090909090908 8.659536363636363 2.927672727272727 0.188 -0.2926818181818182 0.3131909090909091 -0.5708363636363636 0.3131909090909091 -0.7955818181818182 0 -4.240254545454545 -6.6727181818181815 -4.6765 -8.972727272727273 -4.701281818181818Z" stroke-width="1"></path><path fill="#facb1b" d="M23.5 12.519005454545454c-2.023990909090909 0.008972727272727273 -7.420018181818182 0.015809090909090908 -8.659536363636363 2.927672727272727 0.24012727272727274 0.3751454545454545 0.5845090909090909 0.773790909090909 0.9182090909090909 1.1228727272727272 1.7048181818181818 -1.5877454545454546 5.417818181818181 -1.4805 7.741327272727272 -1.4869090909090907 2.3235090909090905 0.0064090909090909086 6.036509090909091 -0.10083636363636363 7.741327272727272 1.4864818181818182 0.3337 -0.34908181818181816 0.6780818181818181 -0.7477272727272727 0.9182090909090909 -1.1228727272727272 -1.2395181818181817 -2.9114363636363634 -6.635545454545454 -2.9182727272727274 -8.659536363636363 -2.9272454545454543Z" stroke-width="1"></path><path fill="#df2c2c" d="M23.5 15.082641818181816c-2.327781818181818 0.0064090909090909086 -6.0369363636363635 -0.09998181818181819 -7.741327272727272 1.4864818181818182 0.4084727272727272 0.42727272727272725 0.515290909090909 1.0045181818181816 1.4894727272727273 1.1271454545454545 1.1814090909090909 0.14826363636363635 3.2660727272727272 0.3422454545454545 6.251854545454545 0.3721545454545454 2.985781818181818 -0.030336363636363634 5.070872727272727 -0.22389090909090908 6.251854545454545 -0.3721545454545454 0.9746090909090909 -0.12262727272727271 1.081 -0.6994454545454545 1.4894727272727273 -1.1271454545454545 -1.7043909090909088 -1.5864636363636364 -5.413545454545454 -1.4800727272727272 -7.741327272727272 -1.4864818181818182Z" stroke-width="1"></path><path fill="#3e3e3f" d="m32.86667272727272 24.241659999999996 -2.0449272727272723 -7.1299c-0.21278181818181816 0.2713181818181818 -0.48324545454545453 0.5105909090909091 -1.069890909090909 0.5845090909090909 -0.5819454545454545 0.07306363636363636 -1.3856454545454544 0.15723636363636362 -2.4063999999999997 0.2273090909090909v10.70360909090909c0 0.4717090909090909 0.38283636363636364 0.8545454545454545 0.8545454545454545 0.8545454545454545s0.8545454545454545 -0.38283636363636364 0.8545454545454545 -0.8545454545454545v-5.0055l0.4336818181818181 3.524145454545454c0.05768181818181818 0.4682909090909091 0.4841 0.8015636363636363 0.9523909090909091 0.7438818181818182 0.4682909090909091 -0.05768181818181818 0.8011363636363635 -0.4841 0.7438818181818182 -0.9523909090909091l-0.5088818181818182 -4.135145454545454 0.5481909090909091 1.911190909090909c0.12989090909090908 0.45376363636363637 0.6033090909090908 0.7161090909090908 1.0570727272727274 0.585790909090909 0.45376363636363637 -0.1303181818181818 0.7161090909090908 -0.6037363636363636 0.585790909090909 -1.0574999999999999Z" stroke-width="1"></path><path fill="#12b2a0" d="M23.5 12.519048181818182v-2.5696181818181816c-2.3000090909090907 0.024781818181818183 -8.972727272727273 0.4610272727272727 -8.972727272727273 4.701281818181818 0 0.22474545454545455 0.12519090909090907 0.5029 0.3131909090909091 0.7955818181818182 1.2395181818181817 -2.9114363636363634 6.635545454545454 -2.9182727272727274 8.659536363636363 -2.9272454545454543Z" stroke-width="1"></path><path fill="#fbe158" d="M23.5 15.082641818181816v-2.5636363636363635c-2.023990909090909 0.008972727272727273 -7.420018181818182 0.015809090909090908 -8.659536363636363 2.927672727272727 0.24012727272727274 0.3751454545454545 0.5845090909090909 0.773790909090909 0.9182090909090909 1.1228727272727272 1.7048181818181818 -1.5877454545454546 5.417818181818181 -1.4805 7.741327272727272 -1.4869090909090907Z" stroke-width="1"></path><path fill="#fa5655" d="M15.758672727272726 16.569123636363635c0.4084727272727272 0.42727272727272725 0.5148636363636364 1.0045181818181816 1.4894727272727273 1.1267181818181817 1.1814090909090909 0.14826363636363635 3.2660727272727272 0.3422454545454545 6.251854545454545 0.3721545454545454v-2.985354545454545c-2.327781818181818 0.0064090909090909086 -6.0369363636363635 -0.09998181818181819 -7.741327272727272 1.4864818181818182Z" stroke-width="1"></path><path fill="#3e3e3f" d="M17.248145454545455 17.69626909090909c-0.5866454545454545 -0.07349090909090908 -0.8571090909090908 -0.31276363636363635 -1.069890909090909 -0.5840818181818181l-2.0449272727272723 7.1299c-0.1303181818181818 0.45376363636363637 0.13202727272727272 0.9267545454545454 0.585790909090909 1.0570727272727274 0.45376363636363637 0.12989090909090908 0.9267545454545454 -0.13202727272727272 1.0570727272727274 -0.585790909090909l0.5481909090909091 -1.911190909090909 -0.5088818181818182 4.135145454545454c-0.05768181818181818 0.4682909090909091 0.2755909090909091 0.8947090909090908 0.7438818181818182 0.9523909090909091 0.46871818181818176 0.05768181818181818 0.8951363636363636 -0.2755909090909091 0.9523909090909091 -0.7438818181818182L17.945454545454545 23.62168727272727v5.0055c0 0.4717090909090909 0.38283636363636364 0.8545454545454545 0.8545454545454545 0.8545454545454545s0.8545454545454545 -0.38283636363636364 0.8545454545454545 -0.8545454545454545v-10.70360909090909c-1.0207545454545452 -0.07007272727272727 -1.824454545454545 -0.15424545454545452 -2.4063999999999997 -0.2273090909090909Z" stroke-width="1"></path></svg>