<svg xmlns="http://www.w3.org/2000/svg" fill="none" viewBox="-0.5 -0.5 48 48" id="Scientist-2--Streamline-Kameleon.svg" height="48" width="48"><desc>Scientist 2 Streamline Icon: https://streamlinehq.com</desc><path fill="#e04f5f" d="M23.5 47c12.978836363636363 0 23.5 -10.521163636363635 23.5 -23.5S36.47883636363636 0 23.5 0 0 10.521163636363635 0 23.5s10.521163636363635 23.5 23.5 23.5Z" stroke-width="1"></path><path fill="#40c9e7" d="m28.627272727272725 29.054545454545455 -0.8545454545454545 -0.42727272727272725H19.227272727272727l-0.8545454545454545 0.42727272727272725 5.127272727272727 8.119463636363635L28.627272727272725 29.054545454545455Z" stroke-width="1"></path><path fill="#f7b4b4" d="M24.63440909090909 29.054545454545455h-2.2688181818181814a1.281390909090909 1.281390909090909 0 0 1 -0.9570909090909091 -0.4289818181818182L19.227272727272727 26.918181818181818v1.9227272727272726S19.227272727272727 32.04545454545455 23.5 32.04545454545455s4.2727272727272725 -3.204545454545454 4.2727272727272725 -3.204545454545454V26.918181818181818l-2.1812272727272726 1.7073818181818181A1.281390909090909 1.281390909090909 0 0 1 24.63440909090909 29.054545454545455Z" stroke-width="1"></path><path fill="#fbc8c8" d="M21.408499999999997 28.625563636363633 19.227272727272727 26.918181818181818v1.9227272727272726S19.227272727272727 32.04545454545455 23.5 32.04545454545455v-2.9909090909090907h-1.1344090909090907a1.281390909090909 1.281390909090909 0 0 1 -0.9570909090909091 -0.4289818181818182Z" stroke-width="1"></path><path fill="#fff" d="M37.17272727272727 19.823745454545453s-3.451081818181818 -8.048536363636362 -8.544172727272727 -6.004036363636363C29.37243636363636 14.936172727272726 29.477972727272725 16.50212727272727 29.48181818181818 18.37272727272727v4.2727272727272725l-0.5742545454545455 1.4356363636363636C31.644245454545455 23.92641818181818 32.04545454545455 21.96010909090909 32.04545454545455 21.96010909090909l2.5636363636363635 0.8545454545454545 -1.2818181818181817 -2.9909090909090907h3.8454545454545452Z" stroke-width="1"></path><path fill="#fbc8c8" d="M30.763636363636362 20.177954545454543c0 -0.47469999999999996 -0.42727272727272725 -0.9493999999999999 -0.8545454545454545 -0.9493999999999999s-0.42727272727272725 0.47469999999999996 -0.42727272727272725 0.47469999999999996V18.37272727272727c-0.00769090909090909 -3.8454545454545452 -0.4375272727272727 -6.409090909090908 -5.9818181818181815 -6.409090909090908 -5.544290909090909 0 -5.974127272727272 2.5636363636363635 -5.9818181818181815 6.409090909090908v4.2727272727272725l1.709090909090909 4.2727272727272725 2.1812272727272726 1.7073818181818181A1.281390909090909 1.281390909090909 0 0 0 22.36559090909091 29.054545454545455h2.2688181818181814c0.36574545454545454 0 0.7139727272727272 -0.15595454545454543 0.9570909090909091 -0.4289818181818182L27.77272727272727 26.918181818181818l1.3702636363636362 -3.425445454545454C30.35430909090909 23.405572727272727 30.763636363636362 21.568299999999997 30.763636363636362 20.177954545454543Z" stroke-width="1"></path><path fill="#fff" d="M17.518181818181816 22.645454545454545V18.37272727272727c0.003845454545454545 -1.8706 0.10938181818181818 -3.4365545454545448 0.8532636363636363 -4.553018181818182C13.278354545454546 11.77520909090909 9.827272727272726 19.823745454545453 9.827272727272726 19.823745454545453h3.8454545454545452l-1.2818181818181817 2.9909090909090907 2.5636363636363635 -0.8545454545454545s0.40120909090909085 1.966309090909091 3.137890909090909 2.1209818181818183L17.518181818181816 22.645454545454545Z" stroke-width="1"></path><path fill="#fbd7d7" d="M17.518181818181816 18.37272727272727v1.3305272727272726s0 -0.47469999999999996 -0.42727272727272725 -0.47469999999999996 -0.8545454545454545 0.47469999999999996 -0.8545454545454545 0.9493999999999999c0 1.3899181818181818 0.4093272727272727 3.227618181818182 1.6206454545454545 3.314781818181818L19.227272727272727 26.918181818181818l2.1812272727272726 1.7073818181818181A1.281390909090909 1.281390909090909 0 0 0 22.36559090909091 29.054545454545455H23.5V11.963636363636363c-5.544290909090909 0 -5.974127272727272 2.5636363636363635 -5.9818181818181815 6.409090909090908Z" stroke-width="1"></path><path fill="#f79392" d="m23.5 24.523745454545452 -2.1103 0C21.4743 24.871118181818183 21.84730909090909 25.636363636363633 23.5 25.636363636363633c1.652690909090909 0 2.0256999999999996 -0.7652454545454545 2.1103 -1.1126181818181817l-2.1103 0Z" stroke-width="1"></path><path fill="#fff" d="M23.5 23.6692c-0.8545454545454545 -1.2818181818181817 -2.9909090909090907 -0.42727272727272725 -3.8454545454545452 0.8545454545454545l3.8454545454545452 0 3.8454545454545452 0c-0.8545454545454545 -1.2818181818181817 -2.9909090909090907 -2.1363636363636362 -3.8454545454545452 -0.8545454545454545Z" stroke-width="1"></path><path fill="#40c9e7" d="M23.813618181818182 16.364545454545453c-0.10254545454545454 0 -0.2072272727272727 0.0008545454545454545 -0.3136181818181818 0.0021363636363636363a26.05081818181818 26.05081818181818 0 0 0 -0.3136181818181818 -0.0021363636363636363c-5.259727272727273 0 -6.561627272727272 1.619790909090909 -6.561627272727272 1.619790909090909s0.08545454545454545 3.6826636363636363 0.8088272727272727 4.044136363636364c0.8088272727272727 0.40462727272727267 4.044563636363636 0.40462727272727267 4.044563636363636 0.40462727272727267 0.8088272727272727 0 0.8088272727272727 -2.022281818181818 2.0218545454545453 -2.022281818181818 1.2134545454545453 0 1.2134545454545453 2.022281818181818 2.022281818181818 2.022281818181818 0 0 3.235309090909091 0 4.044136363636364 -0.40462727272727267 0.7233727272727273 -0.36189999999999994 0.8088272727272727 -4.044136363636364 0.8088272727272727 -4.044136363636364S29.07249090909091 16.364545454545453 23.813618181818182 16.364545454545453Z" stroke-width="1"></path><path fill="#3e3e3f" d="M23.813618181818182 16.364545454545453c5.2593 0 6.561627272727272 1.619790909090909 6.561627272727272 1.619790909090909s-0.08545454545454545 3.6826636363636363 -0.8088272727272727 4.044136363636364c-0.8088272727272727 0.40462727272727267 -4.044136363636364 0.40462727272727267 -4.044136363636364 0.40462727272727267 -0.8088272727272727 0 -0.8088272727272727 -2.022281818181818 -2.022281818181818 -2.022281818181818s-1.2134545454545453 2.022281818181818 -2.022281818181818 2.022281818181818c0 0 -3.235309090909091 0 -4.044136363636364 -0.40462727272727267 -0.7233727272727273 -0.36189999999999994 -0.8088272727272727 -4.044136363636364 -0.8088272727272727 -4.044136363636364S17.92622727272727 16.364545454545453 23.186381818181815 16.364545454545453c0.10254545454545454 0 0.20765454545454543 0.0008545454545454545 0.3136181818181818 0.0021363636363636363 0.10639090909090908 -0.0012818181818181817 0.21064545454545452 -0.0021363636363636363 0.3136181818181818 -0.0021363636363636363Zm0 -0.8088272727272727c-0.10639090909090908 0 -0.21406363636363634 0.0008545454545454545 -0.32344545454545454 0.0021363636363636363 -0.08972727272727272 -0.0012818181818181817 -0.1978272727272727 -0.0021363636363636363 -0.30379090909090906 -0.0021363636363636363 -5.489172727272726 0 -7.034190909090909 1.7253272727272728 -7.192281818181817 1.9218727272727272l-0.1850090909090909 0.2303 0.006836363636363636 0.29524545454545453c0.19099090909090907 4.282554545454545 1.1250090909090908 4.792290909090909 1.2557545454545453 4.749136363636364 0.9088090909090908 0.45419090909090903 3.602336363636363 0.4896545454545454 4.406036363636363 0.4896545454545454 0.8682181818181818 0 1.2544727272727272 -0.7891727272727272 1.5104090909090908 -1.3113 0.19056363636363635 -0.3888181818181818 0.36019090909090906 -0.7105545454545454 0.5118727272727273 -0.7105545454545454 0.15125454545454545 0 0.32088181818181816 0.3217363636363636 0.5118727272727273 0.7105545454545454 0.25593636363636363 0.5221272727272727 0.642190909090909 1.3113 1.5104090909090908 1.3113 0.8037 0 3.497227272727273 -0.035463636363636364 4.406036363636363 -0.4896545454545454 0.2867 -0.14356363636363637 1.1591909090909092 -0.5793818181818182 1.2557545454545453 -4.749136363636364l0.006836363636363636 -0.29567272727272725 -0.18543636363636362 -0.2303c-0.1580909090909091 -0.19654545454545455 -1.7035363636363636 -1.9214454545454545 -7.191854545454546 -1.9214454545454545Z" stroke-width="1"></path><path fill="#6fdaf1" d="M23.5 16.368390909090905c-5.521645454545454 -0.0658 -6.8244 1.6142363636363635 -6.874818181818181 1.6176545454545455 0 1.2134545454545453 0.08545454545454545 3.6826636363636363 0.8083999999999999 4.044136363636364 0.051699999999999996 0.026063636363636362 0.11408181818181819 0.04999090909090909 0.18415454545454543 0.07263636363636364 4.529518181818182 -2.872981818181818 7.391818181818182 -4.7376 8.695 -5.593427272727272 -0.7870363636363636 -0.09741818181818182 -1.7154999999999998 -0.1538181818181818 -2.8127363636363634 -0.141Z" stroke-width="1"></path><path fill="#3e3e3f" d="m25.209090909090907 37.17400909090909 -1.1959363636363636 -4.3581818181818175L24.78181818181818 32.04759090909091l-1.2899363636363637 -1.2920727272727273 -1.2809636363636363 1.2809636363636363 0.7767818181818181 0.7763545454545454L21.79090909090909 37.17400909090909h3.418181818181818Z" stroke-width="1"></path><path fill="#5b5c5f" d="M23.5 37.17400909090909V30.763636363636362l-0.008118181818181818 -0.008118181818181818 -1.2809636363636363 1.2809636363636363 0.7767818181818181 0.7763545454545454L21.79090909090909 37.17400909090909h1.709090909090909Z" stroke-width="1"></path><path fill="#fff" d="M12.836554545454545 31.199881818181815A2.562354545454545 2.562354545454545 0 0 0 11.536363636363635 32.47400909090909l-1.709090909090909 4.699999999999999h13.672727272727272l-5.127272727272727 -8.118181818181817 -5.536172727272727 2.144054545454545Z" stroke-width="1"></path><path fill="#fff" d="M35.46363636363636 32.47400909090909a2.562354545454545 2.562354545454545 0 0 0 -1.3001909090909092 -1.2741272727272728L28.627272727272725 29.05582727272727l-5.127272727272727 8.118181818181817h13.672727272727272l-1.709090909090909 -4.699999999999999Z" stroke-width="1"></path><path fill="#9ce5f4" d="m28.612318181818182 29.08103636363636 0.014954545454545455 -0.025209090909090907 -0.8545454545454545 -0.42727272727272725 -4.266318181818181 2.1282454545454543 2.475190909090909 2.4892909090909088 2.6307181818181817 -4.165054545454545Z" stroke-width="1"></path><path fill="#9ce5f4" d="M18.387681818181814 29.08103636363636 18.37272727272727 29.05582727272727l0.8545454545454545 -0.42727272727272725 4.266318181818181 2.1282454545454543 -2.475190909090909 2.4892909090909088 -2.6307181818181817 -4.165054545454545Z" stroke-width="1"></path><path fill="#f1f2f2" d="m23.5 37.17400909090909 -4.2727272727272725 -8.972727272727273 -1.709090909090909 0.8545454545454545 -0.8545454545454545 4.699999999999999 2.9909090909090907 0.42727272727272725 -0.42727272727272725 2.9909090909090907h4.2727272727272725Z" stroke-width="1"></path><path fill="#f1f2f2" d="m23.5 37.17400909090909 4.2727272727272725 -8.972727272727273 1.709090909090909 0.8545454545454545 0.8545454545454545 4.699999999999999 -2.9909090909090907 0.42727272727272725 0.42727272727272725 2.9909090909090907H23.5Z" stroke-width="1"></path><path fill="#e2e4e5" d="M16.663636363636364 35.205563636363635H11.963636363636363v0.8545454545454545h4.699999999999999v-0.8545454545454545Z" stroke-width="1"></path><path fill="#df2c2c" d="M14.1 33.923745454545454h-1.2818181818181817v1.2818181818181817h1.2818181818181817v-1.2818181818181817Z" stroke-width="1"></path><path fill="#fa5655" d="M14.1 33.923745454545454h-1.2818181818181817v-0.21363636363636362c0 -0.3525 0.2884090909090909 -0.6409090909090909 0.6409090909090909 -0.6409090909090909s0.6409090909090909 0.2884090909090909 0.6409090909090909 0.6409090909090909v0.21363636363636362Z" stroke-width="1"></path><path fill="#f37a10" d="M15.809090909090909 34.35101818181818h-1.2818181818181817v0.8545454545454545h1.2818181818181817v-0.8545454545454545Z" stroke-width="1"></path><path fill="#f3b607" d="M15.809090909090909 34.35101818181818h-1.2818181818181817v-0.21363636363636362c0 -0.3525 0.2884090909090909 -0.6409090909090909 0.6409090909090909 -0.6409090909090909s0.6409090909090909 0.2884090909090909 0.6409090909090909 0.6409090909090909v0.21363636363636362Z" stroke-width="1"></path></svg>