<svg xmlns="http://www.w3.org/2000/svg" fill="none" viewBox="-0.5 -0.5 48 48" id="Soldier-3--Streamline-Kameleon.svg" height="48" width="48"><desc>Soldier 3 Streamline Icon: https://streamlinehq.com</desc><path fill="#fabc3d" d="M23.5 47c12.978836363636363 0 23.5 -10.521163636363635 23.5 -23.5S36.47883636363636 0 23.5 0 0 10.521163636363635 0 23.5s10.521163636363635 23.5 23.5 23.5Z" stroke-width="1"></path><path fill="#0c7367" d="M35.46363636363636 32.47272727272727a2.562354545454545 2.562354545454545 0 0 0 -1.3001909090909092 -1.2741272727272728L27.77272727272727 29.48181818181818v-2.136790909090909l-1.3856454545454544 1.384790909090909a2.5636363636363635 2.5636363636363635 0 0 1 -1.812490909090909 0.7507181818181817h-2.149609090909091a2.5640636363636364 2.5640636363636364 0 0 1 -1.812490909090909 -0.7507181818181817L19.227272727272727 27.345027272727272V29.48181818181818l-6.3907181818181815 1.716781818181818A2.562354545454545 2.562354545454545 0 0 0 11.536363636363635 32.47272727272727l-1.709090909090909 4.699999999999999h27.345454545454544l-1.709090909090909 -4.699999999999999Z" stroke-width="1"></path><path fill="#099686" d="M27.833827272727273 29.498481818181816 27.77272727272727 29.48181818181818v-2.136790909090909l-1.3856454545454544 1.384790909090909a2.5636363636363635 2.5636363636363635 0 0 1 -1.812490909090909 0.7507181818181817h-2.149609090909091a2.5640636363636364 2.5640636363636364 0 0 1 -1.812490909090909 -0.7507181818181817L19.227272727272727 27.345027272727272V29.48181818181818l-0.061099999999999995 0.016663636363636363c0.7631090909090908 0.5033272727272726 2.0163 0.8622363636363635 3.479281818181818 0.9652090909090908V34.18181818181818h1.709090909090909v-3.718554545454545c1.4629818181818182 -0.10297272727272726 2.716172727272727 -0.46145454545454545 3.479281818181818 -0.9647818181818182Z" stroke-width="1"></path><path fill="#fbc8c8" d="M29.40960909090909 17.724127272727273C28.96097272727273 16.98152727272727 26.252063636363637 16.682436363636363 23.5 16.663636363636364c-2.752063636363636 0.018799999999999997 -5.460972727272727 0.31789090909090906 -5.909609090909091 1.0604909090909092 -0.055118181818181816 0.5981818181818181 -0.07092727272727273 1.2433636363636364 -0.0722090909090909 1.9304181818181816v5.273827272727273c0 0.4533363636363636 0.1803090909090909 0.8883 0.5007636363636363 1.2087545454545454l2.593972727272727 2.5931181818181814a2.5636363636363635 2.5636363636363635 0 0 0 1.812490909090909 0.7507181818181817h2.149609090909091a2.5640636363636364 2.5640636363636364 0 0 0 1.812490909090909 -0.7507181818181817l2.593972727272727 -2.5931181818181814a1.7099454545454544 1.7099454545454544 0 0 0 0.5007636363636363 -1.2087545454545454V19.654545454545453c-0.001709090909090909 -0.6870545454545455 -0.017518181818181818 -1.3322363636363634 -0.07263636363636364 -1.9304181818181816Z" stroke-width="1"></path><path fill="#fbd7d7" d="M17.590390909090907 17.724127272727273c-0.055118181818181816 0.5981818181818181 -0.07092727272727273 1.2433636363636364 -0.0722090909090909 1.9304181818181816v5.273827272727273c0 0.4533363636363636 0.1803090909090909 0.8883 0.5007636363636363 1.2087545454545454l2.593972727272727 2.592690909090909a2.5636363636363635 2.5636363636363635 0 0 0 1.812490909090909 0.7507181818181817H23.5V16.663636363636364c-2.752063636363636 0.018799999999999997 -5.460972727272727 0.31789090909090906 -5.909609090909091 1.0604909090909092Z" stroke-width="1"></path><path fill="#f79392" d="M21.79090909090909 24.78181818181818h3.418181818181818s0 1.2818181818181817 -1.709090909090909 1.2818181818181817 -1.709090909090909 -1.2818181818181817 -1.709090909090909 -1.2818181818181817Z" stroke-width="1"></path><path fill="#3e3e3f" d="m32.47272727272727 37.17272727272727 -0.6977363636363636 -6.853027272727273a57.020399999999995 57.020399999999995 0 0 0 -3.0259454545454543 -0.753281818181818L26.647718181818178 34.18181818181818H20.395436363636364l-2.1013272727272727 -4.615399999999999c-0.5964727272727272 0.1316 -1.7932636363636363 0.4063363636363636 -3.0259454545454543 0.753281818181818l-1.0113545454545454 6.853454545454545H32.47272727272727Z" stroke-width="1"></path><path fill="#5b5c5f" d="m29.089581818181813 37.17272727272727 -0.7327727272727272 -1.2818181818181817H18.686345454545453l-0.7323454545454545 1.2818181818181817h11.135581818181818Z" stroke-width="1"></path><path fill="#5b5c5f" d="m14.570427272727272 29.558727272727275 0.031618181818181816 0.41787272727272723a1.2818181818181817 1.2818181818181817 0 0 0 1.4339272727272725 1.1758545454545453l1.582190909090909 -0.19355454545454545a1.2805363636363636 1.2805363636363636 0 0 0 1.0711727272727272 -1.6437181818181816l-0.11194545454545454 -0.3704454545454545 -4.006963636363636 0.613990909090909Z" stroke-width="1"></path><path fill="#5b5c5f" d="m32.47272727272727 29.558727272727275 -0.031618181818181816 0.41787272727272723a1.2818181818181817 1.2818181818181817 0 0 1 -1.4339272727272725 1.1758545454545453l-1.582190909090909 -0.19355454545454545a1.2805363636363636 1.2805363636363636 0 0 1 -1.0711727272727272 -1.6437181818181816l0.11194545454545454 -0.3704454545454545L32.47272727272727 29.558727272727275Z" stroke-width="1"></path><path fill="#facb1b" d="M33.75454545454545 32.04545454545455H29.48181818181818v4.2727272727272725h4.2727272727272725V32.04545454545455Z" stroke-width="1"></path><path fill="#3e3e3f" d="m29.909090909090907 34.60909090909091 1.709090909090909 -1.709090909090909 1.709090909090909 1.709090909090909v0.8545454545454545l-1.709090909090909 -1.709090909090909 -1.709090909090909 1.709090909090909v-0.8545454545454545Z" stroke-width="1"></path><path fill="#3e3e3f" d="M29.430118181818184 21.84260909090909A1.2818181818181817 1.2818181818181817 0 0 0 29.054545454545455 22.749281818181817V24.78181818181818l-1.8987999999999998 1.709090909090909H19.844254545454547L17.945454545454545 24.78181818181818v-2.0325363636363636c0 -0.3401090909090909 -0.13501818181818181 -0.6661181818181817 -0.3755727272727273 -0.9062454545454545L16.663636363636364 20.936363636363634v3.7087272727272724c0 0.3593363636363636 0.1508272727272727 0.7020090909090909 0.4157363636363636 0.9451272727272727l4.3440818181818175 3.982181818181818a1.2818181818181817 1.2818181818181817 0 0 0 0.8660818181818182 0.3366909090909091h2.4209272727272726c0.32045454545454544 0 0.6297999999999999 -0.12006363636363637 0.8660818181818182 -0.3371181818181818l4.3440818181818175 -3.982181818181818c0.26490909090909087 -0.24269090909090907 0.4157363636363636 -0.5853636363636364 0.4157363636363636 -0.9446999999999999V20.936363636363634l-0.9062454545454545 0.9062454545454545ZM24.78181818181818 28.627272727272725h-2.5636363636363635l-0.9493999999999999 -0.8545454545454545h4.462436363636364L24.78181818181818 28.627272727272725Z" stroke-width="1"></path><path fill="#0c7367" d="M32.04545454545455 21.363636363636363c-0.42727272727272725 -2.9909090909090907 -0.42727272727272725 -4.2727272727272725 -1.2818181818181817 -4.699999999999999 0 -4.699999999999999 -3.8454545454545452 -6.836363636363636 -7.263636363636364 -6.836363636363636s-7.263636363636364 2.1363636363636362 -7.263636363636364 6.836363636363636c-0.8545454545454545 0.42727272727272725 -0.8545454545454545 1.709090909090909 -1.2818181818181817 4.699999999999999 -0.19099090909090907 1.3373636363636363 2.5636363636363635 1.2818181818181817 2.5636363636363635 1.2818181818181817l0 -4.699999999999999c0 -0.9066727272727272 2.9695454545454543 -1.2613090909090907 5.9818181818181815 -1.2818181818181817 3.012272727272727 0.020509090909090907 5.9818181818181815 0.3751454545454545 5.9818181818181815 1.2818181818181817l0 4.699999999999999s2.7546272727272725 0.055545454545454544 2.5636363636363635 -1.2818181818181817Z" stroke-width="1"></path><path fill="#099686" d="M23.5 9.827272727272726c-3.418181818181818 0 -7.263636363636364 2.1363636363636362 -7.263636363636364 6.836363636363636 -0.8545454545454545 0.42727272727272725 -0.8545454545454545 1.709090909090909 -1.2818181818181817 4.699999999999999 -0.19099090909090907 1.3373636363636363 2.5636363636363635 1.2818181818181817 2.5636363636363635 1.2818181818181817l0 -4.699999999999999c0 -0.9066727272727272 2.9695454545454543 -1.2613090909090907 5.9818181818181815 -1.2818181818181817V9.827272727272726Z" stroke-width="1"></path><path fill="#12b2a0" d="M23.5 14.954545454545453c-3.589090909090909 0 -5.9818181818181815 1.2818181818181817 -5.9818181818181815 3.418181818181818 0.7977181818181818 -0.8545454545454545 3.9877363636363636 -1.709090909090909 5.9818181818181815 -1.709090909090909s5.184099999999999 0.8545454545454545 5.9818181818181815 1.709090909090909c0 -2.1363636363636362 -2.3927272727272726 -3.418181818181818 -5.9818181818181815 -3.418181818181818Z" stroke-width="1"></path><path fill="#3e3e3f" d="M30.14024545454545 18.34239090909091c-0.0987 -0.11963636363636364 -0.4981999999999999 -0.5405 -1.4792181818181818 -0.9331636363636364C27.4245 16.914445454545454 25.77992727272727 16.663636363636364 23.773454545454545 16.663636363636364c-0.09314545454545455 0 -0.18714545454545453 0.00042727272727272726 -0.2837090909090909 0.001709090909090909A16.54100909090909 16.54100909090909 0 0 0 23.22654545454545 16.663636363636364c-4.7380272727272725 0 -6.134781818181818 1.3984636363636362 -6.366790909090908 1.6787545454545454l-0.20338181818181816 0.2461090909090909 0.007263636363636364 0.3191727272727273c0.08673636363636364 3.6330999999999998 0.8844545454545454 4.020636363636363 1.1844 4.166336363636363 0.7947272727272727 0.38625454545454546 2.9866363636363635 0.4276999999999999 3.8920272727272724 0.4276999999999999 0.8425818181818181 0 1.2194363636363637 -0.7481545454545454 1.4450363636363637 -1.1955090909090909 0.08203636363636363 -0.1627909090909091 0.23500000000000001 -0.46615454545454543 0.3221636363636364 -0.5191363636363636 0.07135454545454545 0.05298181818181818 0.22389090909090908 0.3559181818181818 0.30635454545454543 0.5191363636363636 0.2256 0.44692727272727273 0.6028818181818182 1.1955090909090909 1.4450363636363637 1.1955090909090909 0.9053909090909091 0 3.0977272727272727 -0.04187272727272727 3.8920272727272724 -0.4276999999999999 0.30037272727272724 -0.1457 1.0976636363636363 -0.5336636363636363 1.1844 -4.166336363636363l0.00769090909090909 -0.3196 -0.2025272727272727 -0.24568181818181814Z" stroke-width="1"></path><path fill="#5b5c5f" d="M23.5 17.521172727272724c-4.803827272727273 -0.055545454545454544 -5.937809090909091 1.3642818181818182 -5.9818181818181815 1.3672727272727272 0 1.0254545454545454 0.07434545454545453 3.112681818181818 0.7037181818181818 3.4186090909090905 0.04486363636363636 0.02179090909090909 0.09912727272727273 0.042727272727272725 0.16022727272727272 0.06152727272727272 3.940736363636364 -2.428190909090909 6.431309090909091 -4.0043999999999995 7.5648636363636355 -4.727772727272726 -0.6849181818181818 -0.08289090909090908 -1.4924636363636363 -0.1303181818181818 -2.446990909090909 -0.11963636363636364Z" stroke-width="1"></path></svg>