<svg xmlns="http://www.w3.org/2000/svg" fill="none" viewBox="-0.5 -0.5 48 48" id="Surfer--Streamline-Kameleon.svg" height="48" width="48"><desc>Surfer Streamline Icon: https://streamlinehq.com</desc><path fill="#e04f5f" d="M23.5 47c12.978836363636363 0 23.5 -10.521163636363635 23.5 -23.5S36.47883636363636 0 23.5 0 0 10.521163636363635 0 23.5s10.521163636363635 23.5 23.5 23.5Z" stroke-width="1"></path><path fill="#0484ab" d="M35.46363636363636 32.47272727272727a2.5632090909090905 2.5632090909090905 0 0 0 -1.3001909090909092 -1.2745545454545455L27.77272727272727 29.48181818181818v-2.5662l-2.1812272727272726 1.7073818181818181a1.281390909090909 1.281390909090909 0 0 1 -0.9570909090909091 0.4289818181818182h-2.2688181818181814a1.281390909090909 1.281390909090909 0 0 1 -0.9570909090909091 -0.4289818181818182L19.227272727272727 26.91561818181818V29.48181818181818l-6.3907181818181815 1.7163545454545455A2.5632090909090905 2.5632090909090905 0 0 0 11.536363636363635 32.47272727272727l-1.709090909090909 4.699999999999999h27.345454545454544l-1.709090909090909 -4.699999999999999Z" stroke-width="1"></path><path fill="#21b2d1" d="M10.944163636363635 34.101490909090906 9.827272727272726 37.17272727272727h27.345454545454544l-0.9156454545454544 -2.5183454545454547c-2.5213363636363635 -1.5437363636363635 -7.478981818181818 -2.5935454545454544 -13.184354545454545 -2.5935454545454544 -4.993963636363636 0 -9.412390909090908 0.8049818181818181 -12.128563636363635 2.040654545454545Z" stroke-width="1"></path><path fill="#fff" d="M28.2 29.599318181818184a0.20509090909090907 0.20509090909090907 0 0 0 -0.4089 0c0 1.121590909090909 -2.111154545454545 2.4367363636363635 -3.545509090909091 3.166090909090909 -0.21534545454545453 -0.4059090909090909 -0.4802545454545455 -0.7139727272727272 -0.7455909090909091 -0.7139727272727272s-0.5302454545454546 0.3076363636363636 -0.7455909090909091 0.7143999999999999c-1.4343545454545454 -0.7293545454545455 -3.545936363636363 -2.0444999999999998 -3.545936363636363 -3.1665181818181813a0.20466363636363635 0.20466363636363635 0 1 0 -0.4089 0c0 1.4262363636363635 2.4486999999999997 2.8610181818181815 3.782645454545454 3.536536363636363 -0.18757272727272725 0.4571818181818182 -0.3080636363636363 0.9558090909090909 -0.3080636363636363 1.270281818181818 0 0.7092727272727272 0.00042727272727272726 2.1406363636363634 1.2258454545454545 2.1406363636363634 1.2254181818181817 0 1.2262727272727272 -1.4313636363636364 1.2262727272727272 -2.1406363636363634 0 -0.31447272727272724 -0.1209181818181818 -0.8130999999999999 -0.30849090909090904 -1.270709090909091C25.752154545454545 32.459909090909086 28.2 31.025554545454543 28.2 29.599318181818184Z" stroke-width="1"></path><path fill="#f37a10" d="M23.5 35.72982727272727a0.8173727272727273 0.8173727272727273 0 1 0 0 -1.6347454545454545 0.8173727272727273 0.8173727272727273 0 0 0 0 1.6347454545454545Z" stroke-width="1"></path><path fill="#fbc8c8" d="M29.909090909090907 19.225990909090907c-0.42727272727272725 0 -0.42727272727272725 0.47469999999999996 -0.42727272727272725 0.47469999999999996v-1.3305272727272726c-0.0012818181818181817 -0.7037181818181818 -0.017518181818181818 -1.3642818181818182 -0.07605454545454544 -1.9748545454545452 -3.6544636363636367 1.1698727272727272 -9.116290909090909 1.0997999999999999 -11.568836363636363 -1.3775272727272727 -0.2661909090909091 0.9459818181818181 -0.3161818181818182 2.0782545454545454 -0.3187454545454545 3.351954545454545v4.2727272727272725l1.709090909090909 4.2727272727272725 2.1812272727272726 1.7073818181818181a1.281390909090909 1.281390909090909 0 0 0 0.9570909090909091 0.4289818181818182h2.2688181818181814c0.36574545454545454 0 0.7139727272727272 -0.15595454545454543 0.9570909090909091 -0.4289818181818182L27.77272727272727 26.91561818181818l1.3702636363636362 -3.425445454545454C30.35430909090909 23.40300909090909 30.763636363636362 21.56573636363636 30.763636363636362 20.175390909090908c0 -0.47469999999999996 -0.42727272727272725 -0.9493999999999999 -0.8545454545454545 -0.9493999999999999Z" stroke-width="1"></path><path fill="#fbd7d7" d="M17.836927272727273 15.01820909090909c-0.2661909090909091 0.9459818181818181 -0.3161818181818182 2.0782545454545454 -0.3187454545454545 3.351954545454545v1.3305272727272726s0 -0.47469999999999996 -0.42727272727272725 -0.47469999999999996 -0.8545454545454545 0.4742727272727273 -0.8545454545454545 0.9493999999999999c0 1.3899181818181818 0.4093272727272727 3.227618181818182 1.6206454545454545 3.314781818181818L19.227272727272727 26.91561818181818l2.1812272727272726 1.7073818181818181a1.281390909090909 1.281390909090909 0 0 0 0.9570909090909091 0.4289818181818182H23.5v-11.95509090909091c-2.2530090909090905 -0.141 -4.373990909090909 -0.7767818181818181 -5.663072727272727 -2.0786818181818183Z" stroke-width="1"></path><path fill="#3e3e3f" d="M22.21818181818182 20.079254545454543a0.8545454545454545 0.8545454545454545 0 0 0 -0.8545454545454545 -0.8545454545454545l-0.0025636363636363634 0c0.00042727272727272726 0.009399999999999999 0.0025636363636363634 0.017945454545454546 0.0025636363636363634 0.026918181818181817a0.8545454545454545 0.8545454545454545 0 0 1 -0.8519818181818182 0.8545454545454545A0.8528363636363636 0.8528363636363636 0 0 0 22.21818181818182 20.079254545454543Z" stroke-width="1"></path><path fill="#3e3e3f" d="M26.488345454545453 20.079254545454543a0.8545454545454545 0.8545454545454545 0 0 0 -0.8545454545454545 -0.8545454545454545l-0.0025636363636363634 0c0.00042727272727272726 0.008545454545454545 0.0025636363636363634 0.01709090909090909 0.0025636363636363634 0.02649090909090909a0.8545454545454545 0.8545454545454545 0 0 1 -0.8519818181818182 0.8545454545454545 0.8528363636363636 0.8528363636363636 0 0 0 1.7065272727272727 -0.02649090909090909Z" stroke-width="1"></path><path fill="#f79392" d="M21.363636363636363 24.351981818181816h4.2727272727272725s0 1.2818181818181817 -2.1363636363636362 1.2818181818181817 -2.1363636363636362 -1.2818181818181817 -2.1363636363636362 -1.2818181818181817Z" stroke-width="1"></path><path fill="#f3b607" d="M32.04545454545455 15.066063636363637C31.22893636363636 9.1321 17.97920909090909 8.63090909090909 17.539118181818182 13.881663636363635 17.01912727272727 14.174772727272725 16.663636363636364 14.725527272727271 16.663636363636364 15.365154545454544v3.860836363636363c0.8545454545454545 0.42727272727272725 0.8545454545454545 0.8464272727272727 0.8545454545454545 1.6202181818181816v0.5007636363636363h0.8545454545454545V15.483936363636362c2.449981818181818 1.8650454545454545 6.9017363636363624 1.9927999999999997 10.254545454545454 1.1335545454545455v4.729481818181818h0.8545454545454545v-0.5007636363636363c0 -0.773790909090909 0 -1.1929454545454543 0.8545454545454545 -1.6202181818181816v-3.1720727272727274c0.678509090909091 -0.2849909090909091 1.2630181818181818 -0.6174090909090909 1.709090909090909 -0.9878545454545453Z" stroke-width="1"></path><path fill="#facb1b" d="M23.5 10.263945454545453c-3.0396181818181818 0.08972727272727272 -5.765190909090909 1.284381818181818 -5.960881818181818 3.617718181818182 -0.5199909090909091 0.29310909090909093 -0.8754818181818181 0.8438636363636364 -0.8754818181818181 1.483490909090909v3.860836363636363c0.8545454545454545 0.42727272727272725 0.8545454545454545 0.8464272727272727 0.8545454545454545 1.6202181818181816v0.5007636363636363h0.8545454545454545V15.483936363636362c1.2997636363636362 0.9895636363636362 3.1639545454545455 1.4860545454545455 5.127272727272727 1.6095363636363635V10.263945454545453Z" stroke-width="1"></path></svg>