<svg xmlns="http://www.w3.org/2000/svg" fill="none" viewBox="-0.5 -0.5 48 48" id="Thief--Streamline-Kameleon.svg" height="48" width="48"><desc>Thief Streamline Icon: https://streamlinehq.com</desc><path fill="#e04f5f" d="M23.5 47c12.978836363636363 0 23.5 -10.521163636363635 23.5 -23.5S36.47883636363636 0 23.5 0 0 10.521163636363635 0 23.5s10.521163636363635 23.5 23.5 23.5Z" stroke-width="1"></path><path fill="#3e3e3f" d="M35.46363636363636 30.336363636363636c-1.5642454545454545 -1.0429727272727272 -6.836363636363636 -2.1363636363636362 -6.836363636363636 -2.1363636363636362h-0.8545454545454545l-4.2727272727272725 3.418181818181818 -4.2727272727272725 -3.418181818181818h-0.8545454545454545s-5.272118181818182 1.093390909090909 -6.836363636363636 2.1363636363636362c-1.2818181818181817 0.8545454545454545 -1.709090909090909 6.836363636363636 -1.709090909090909 6.836363636363636h27.345454545454544s-0.42727272727272725 -5.9818181818181815 -1.709090909090909 -6.836363636363636Z" stroke-width="1"></path><path fill="#3e3e3f" d="m30.336363636363636 25.636363636363633 -2.5636363636363635 -1.2818181818181817H19.227272727272727l-2.5636363636363635 1.2818181818181817 6.836363636363636 5.9818181818181815 6.836363636363636 -5.9818181818181815Z" stroke-width="1"></path><path fill="#5b5c5f" d="M31.472054545454544 27.908172727272724 30.336363636363636 25.636363636363633 23.5 31.618181818181817 16.663636363636364 25.636363636363633l-1.135690909090909 2.2718090909090907a1.2818181818181817 1.2818181818181817 0 0 0 0.5729727272727272 1.7197727272727272L23.5 33.32727272727273l7.399081818181818 -3.699327272727272a1.2818181818181817 1.2818181818181817 0 0 0 0.5729727272727272 -1.7197727272727272Z" stroke-width="1"></path><path fill="#b5bbbd" d="M21.79090909090909 35.03636363636363h-0.8545454545454545l-0.42727272727272725 -3.631818181818182a0.6409090909090909 0.6409090909090909 0 0 1 1.2818181818181817 0V35.03636363636363Z" stroke-width="1"></path><path fill="#b5bbbd" d="M25.209090909090907 35.03636363636363h0.8545454545454545l0.42727272727272725 -3.631818181818182a0.6409090909090909 0.6409090909090909 0 0 0 -1.2818181818181817 0V35.03636363636363Z" stroke-width="1"></path><path fill="#3e3e3f" d="M23.5 9.827272727272726c-4.2727272727272725 0 -6.836363636363636 2.9909090909090907 -6.836363636363636 4.699999999999999s0.004272727272727273 4.302636363636363 0.42727272727272725 7.263636363636364c0.42727272727272725 2.9909090909090907 5.127272727272727 6.409090909090908 6.409090909090908 6.409090909090908s5.9818181818181815 -3.418181818181818 6.409090909090908 -6.409090909090908c0.423 -2.961 0.42727272727272725 -5.554545454545455 0.42727272727272725 -7.263636363636364s-2.5636363636363635 -4.699999999999999 -6.836363636363636 -4.699999999999999Z" stroke-width="1"></path><path fill="#5b5c5f" d="M16.663636363636364 14.527272727272727c0 1.709090909090909 0.004272727272727273 4.302636363636363 0.42727272727272725 7.263636363636364 0.42727272727272725 2.9909090909090907 5.127272727272727 6.409090909090908 6.409090909090908 6.409090909090908V9.827272727272726c-4.2727272727272725 0 -6.836363636363636 2.9909090909090907 -6.836363636363636 4.699999999999999Z" stroke-width="1"></path><path fill="#fbd7d7" d="M18.799999999999997 18.37272727272727c0 -1.709090909090909 4.2727272727272725 -1.2818181818181817 4.2727272727272725 0.42727272727272725 0 1.2818181818181817 -4.2727272727272725 2.9909090909090907 -4.2727272727272725 -0.42727272727272725Z" stroke-width="1"></path><path fill="#fbd7d7" d="M28.2 18.37272727272727c0 -1.709090909090909 -4.2727272727272725 -1.2818181818181817 -4.2727272727272725 0.42727272727272725 0 1.2818181818181817 4.2727272727272725 2.9909090909090907 4.2727272727272725 -0.42727272727272725Z" stroke-width="1"></path><path fill="#3e3e3f" d="M22.220745454545455 18.799999999999997a0.8545454545454545 0.8545454545454545 0 0 0 -0.8545454545454545 -0.8545454545454545L21.363636363636363 17.945454545454545c0.00042727272727272726 0.008972727272727273 0.0025636363636363634 0.017518181818181818 0.0025636363636363634 0.02649090909090909a0.8545454545454545 0.8545454545454545 0 0 1 -0.8519818181818182 0.8545454545454545A0.8536909090909091 0.8536909090909091 0 0 0 22.220745454545455 18.799999999999997Z" stroke-width="1"></path><path fill="#3e3e3f" d="M26.49090909090909 18.799999999999997a0.8545454545454545 0.8545454545454545 0 0 0 -0.8545454545454545 -0.8545454545454545l-0.0025636363636363634 0c0.00042727272727272726 0.008972727272727273 0.0025636363636363634 0.017945454545454546 0.0025636363636363634 0.026918181818181817a0.8545454545454545 0.8545454545454545 0 0 1 -0.8519818181818182 0.8545454545454545A0.8532636363636363 0.8532636363636363 0 0 0 26.49090909090909 18.799999999999997Z" stroke-width="1"></path><path fill="#fbd7d7" d="M23.5 22.645454545454545c-1.2818181818181817 0 -2.5636363636363635 0 -2.5636363636363635 0.8545454545454545s1.709090909090909 1.2818181818181817 2.5636363636363635 1.2818181818181817 2.5636363636363635 -0.42727272727272725 2.5636363636363635 -1.2818181818181817 -1.2818181818181817 -0.8545454545454545 -2.5636363636363635 -0.8545454545454545Z" stroke-width="1"></path></svg>