<svg xmlns="http://www.w3.org/2000/svg" fill="none" viewBox="-0.5 -0.5 48 48" id="Barista-Woman--Streamline-Kameleon.svg" height="48" width="48"><desc>Barista Woman Streamline Icon: https://streamlinehq.com</desc><path fill="#e04f5f" d="M23.5 47c12.978836363636363 0 23.5 -10.521163636363635 23.5 -23.5S36.47883636363636 0 23.5 0 0 10.521163636363635 0 23.5s10.521163636363635 23.5 23.5 23.5Z" stroke-width="1"></path><path fill="#f99134" d="m30.33593636363636 16.975972727272726 -0.024354545454545455 0.005981818181818182A0.5178545454545455 0.5178545454545455 0 0 1 29.794581818181815 17.518181818181816L28.2 17.518181818181816l-0.10040909090909089 1.9603272727272727L28.627272727272725 22.645454545454545l0.8545454545454545 -3.418181818181818 0.42727272727272725 0c0.42727272727272725 0 0.8545454545454545 0.47469999999999996 0.8545454545454545 0.9493999999999999 0 1.3207 -0.36916363636363636 3.0464545454545453 -1.7851454545454544 3.291281818181818 -0.30336363636363634 1.1318454545454546 -0.7306363636363635 2.0539 -1.227981818181818 2.8153L27.564645454545456 29.909090909090907H27.77272727272727l4.6401818181818175 1.0066545454545452L30.336363636363636 16.975972727272726Z" stroke-width="1"></path><path fill="#fbc8c8" d="m29.909090909090907 19.227272727272727 -0.42727272727272725 0 -0.8545454545454545 3.418181818181818 -0.45034545454545455 -2.702072727272727c-0.12177272727272725 -0.008545454545454545 -0.25892727272727273 -0.05084545454545454 -0.4157363636363636 -0.13672727272727273 -0.5298181818181817 -0.29054545454545455 -2.1363636363636362 -1.2818181818181817 -4.2727272727272725 -1.2818181818181817s-3.7429090909090905 0.9912727272727272 -4.2727272727272725 1.2818181818181817a1.035709090909091 1.035709090909091 0 0 1 -0.3918090909090909 0.13202727272727272L18.37272727272727 22.645454545454545l-0.8545454545454545 -3.418181818181818 -0.42727272727272725 0c-0.42727272727272725 0 -0.8545454545454545 0.47469999999999996 -0.8545454545454545 0.9493999999999999 0 1.3207 0.36916363636363636 3.0464545454545453 1.7851454545454544 3.291281818181818C19.06490909090909 27.356990909090907 21.532836363636363 28.825954545454547 23.5 29.48181818181818c1.9671636363636362 -0.6558636363636363 4.435090909090909 -2.1248272727272726 5.478490909090908 -6.013863636363635C30.394472727272724 23.223554545454544 30.763636363636362 21.497372727272726 30.763636363636362 20.176672727272727 30.763636363636362 19.701972727272725 30.336363636363636 19.227272727272727 29.909090909090907 19.227272727272727Z" stroke-width="1"></path><path fill="#3e3e3f" d="M35.63839090909091 33.18328181818182a3.418181818181818 3.418181818181818 0 0 0 -2.2081454545454546 -2.0470636363636365L27.77272727272727 29.909090909090907H19.227272727272727l-5.6575181818181814 1.2271272727272726a3.418181818181818 3.418181818181818 0 0 0 -2.2081454545454546 2.0470636363636365L9.827272727272726 37.17272727272727h27.345454545454544l-1.5343363636363636 -3.989445454545454Z" stroke-width="1"></path><path fill="#f7b4b4" d="M23.5 29.48181818181818v7.6909090909090905h0.8545454545454545l3.418181818181818 -7.263636363636364v-3.6604454545454543c-1.2138818181818183 1.878290909090909 -2.8695636363636363 2.7653090909090907 -4.2727272727272725 3.233172727272727Z" stroke-width="1"></path><path fill="#fbc8c8" d="M19.227272727272727 26.248645454545454V29.909090909090907l3.418181818181818 7.263636363636364h0.8545454545454545V29.48181818181818c-1.4031636363636362 -0.4678636363636363 -3.0588454545454544 -1.354881818181818 -4.2727272727272725 -3.233172727272727Z" stroke-width="1"></path><path fill="#f99134" d="M18.02150909090909 23.467954545454543C16.605527272727272 23.223554545454544 16.236363636363635 21.497372727272726 16.236363636363635 20.176672727272727 16.236363636363635 19.701972727272725 16.663636363636364 19.227272727272727 17.09090909090909 19.227272727272727l0.42727272727272725 0 0.8545454545454545 3.418181818181818 0.5276818181818181 -3.1669454545454543L18.799999999999997 17.518181818181816l-1.618081818181818 0a0.5187090909090909 0.5187090909090909 0 0 1 -0.5174272727272727 -0.5422090909090909L14.587090909090909 30.91574545454545 19.227272727272727 29.909090909090907h0.20808181818181817l-0.18586363636363634 -3.6258363636363637c-0.4973454545454545 -0.7614 -0.924190909090909 -1.6830272727272726 -1.227981818181818 -2.8153Z" stroke-width="1"></path><path fill="#fbd7d7" d="M23.488463636363633 18.52440909090909c-2.1363636363636362 0 -3.7429090909090905 0.9912727272727272 -4.2727272727272725 1.2818181818181817a1.035709090909091 1.035709090909091 0 0 1 -0.3918090909090909 0.13202727272727272L18.37272727272727 22.645454545454545l-0.8545454545454545 -3.418181818181818 -0.42727272727272725 0c-0.42727272727272725 0 -0.8545454545454545 0.47469999999999996 -0.8545454545454545 0.9493999999999999 0 1.3207 0.36916363636363636 3.0464545454545453 1.7851454545454544 3.291281818181818C19.06490909090909 27.356990909090907 21.532836363636363 28.825954545454547 23.5 29.48181818181818V18.524836363636364l-0.011536363636363636 -0.00042727272727272726Z" stroke-width="1"></path><path fill="#099686" d="M32.28173636363636 35.081227272727276A0.8553999999999998 0.8553999999999998 0 0 0 31.517345454545453 34.60909090909091h-0.8964181818181817L29.909090909090907 30.336363636363636l-1.709090909090909 -0.42727272727272725 0.3614727272727272 4.699999999999999H18.438527272727274L18.799999999999997 29.909090909090907l-1.709090909090909 0.42727272727272725 -0.7122636363636363 4.2727272727272725h-0.8959909090909091a0.8545454545454545 0.8545454545454545 0 0 0 -0.764390909090909 0.4721363636363636L13.672727272727272 37.17272727272727h19.654545454545453l-1.0455363636363637 -2.0915Z" stroke-width="1"></path><path fill="#3e3e3f" d="M24.336172727272725 10.715145454545453c0.001709090909090909 -0.011109090909090909 0.006836363636363636 -0.02179090909090909 0.006836363636363636 -0.033327272727272726 0 -0.23585454545454546 -0.38283636363636364 -0.42727272727272725 -0.8545454545454545 -0.42727272727272725s-0.8545454545454545 0.19141818181818182 -0.8545454545454545 0.42727272727272725c0 0.011536363636363636 0.005127272727272727 0.022218181818181817 0.006836363636363636 0.033327272727272726 -2.4692090909090907 0.19312727272727273 -5.751945454545454 1.3574454545454544 -5.976263636363636 6.260827272727273A0.5182818181818182 0.5182818181818182 0 0 0 17.18191818181818 17.518181818181816l6.3065454545454545 0 6.3065454545454545 0c0.29524545454545453 0 0.5311 -0.24739090909090905 0.5174272727272727 -0.5422090909090909 -0.2243181818181818 -4.903381818181818 -3.507054545454545 -6.0677 -5.976263636363636 -6.260827272727273Z" stroke-width="1"></path><path fill="#f79392" d="M21.363636363636363 24.78181818181818h4.2727272727272725s0 1.2818181818181817 -2.1363636363636362 1.2818181818181817 -2.1363636363636362 -1.2818181818181817 -2.1363636363636362 -1.2818181818181817Z" stroke-width="1"></path><path fill="#3e3e3f" d="M22.220745454545455 20.081818181818182a0.8545454545454545 0.8545454545454545 0 0 0 -0.8545454545454545 -0.8545454545454545L21.363636363636363 19.227272727272727c0.00042727272727272726 0.008972727272727273 0.0025636363636363634 0.017518181818181818 0.0025636363636363634 0.02649090909090909a0.8545454545454545 0.8545454545454545 0 0 1 -0.8519818181818182 0.8545454545454545A0.8536909090909091 0.8536909090909091 0 0 0 22.220745454545455 20.081818181818182Z" stroke-width="1"></path><path fill="#3e3e3f" d="M26.49090909090909 20.081818181818182a0.8545454545454545 0.8545454545454545 0 0 0 -0.8545454545454545 -0.8545454545454545l-0.0025636363636363634 0c0.00042727272727272726 0.008972727272727273 0.0025636363636363634 0.017945454545454546 0.0025636363636363634 0.026918181818181817a0.8545454545454545 0.8545454545454545 0 0 1 -0.8519818181818182 0.8545454545454545A0.8532636363636363 0.8532636363636363 0 0 0 26.49090909090909 20.081818181818182Z" stroke-width="1"></path><path fill="#12b2a0" d="M23.5 15.381818181818181a1.2818181818181817 1.2818181818181817 0 1 0 0 -2.5636363636363635 1.2818181818181817 1.2818181818181817 0 0 0 0 2.5636363636363635Z" stroke-width="1"></path><path fill="#fff" d="M23.5 12.818181818181817a1.2818181818181817 1.2818181818181817 0 1 1 0 2.5636363636363635 1.2818181818181817 1.2818181818181817 0 0 1 0 -2.5636363636363635Zm0 -0.42727272727272725c-0.9425636363636363 0 -1.709090909090909 0.7665272727272727 -1.709090909090909 1.709090909090909s0.7665272727272727 1.709090909090909 1.709090909090909 1.709090909090909 1.709090909090909 -0.7665272727272727 1.709090909090909 -1.709090909090909 -0.7665272727272727 -1.709090909090909 -1.709090909090909 -1.709090909090909Z" stroke-width="1"></path><path fill="#5b5c5f" d="M23.488463636363633 16.388045454545452c-3.490390909090909 0.027345454545454544 -6.054027272727272 1.1579090909090908 -5.9818181818181815 1.1301363636363635 0.42727272727272725 0.8545454545454545 0.42727272727272725 2.9909090909090907 1.709090909090909 2.2880454545454545 0.5298181818181817 -0.29054545454545455 2.1363636363636362 -1.2818181818181817 4.2727272727272725 -1.2818181818181817s3.7429090909090905 0.9912727272727272 4.2727272727272725 1.2818181818181817c1.2818181818181817 0.7028636363636364 1.2818181818181817 -1.4335 1.709090909090909 -2.2880454545454545 0.0722090909090909 0.0282 -2.4914272727272726 -1.102790909090909 -5.9818181818181815 -1.1301363636363635Z" stroke-width="1"></path></svg>