<svg xmlns="http://www.w3.org/2000/svg" fill="none" viewBox="-0.5 -0.5 48 48" id="Woman-11--Streamline-Kameleon.svg" height="48" width="48"><desc>Woman 11 Streamline Icon: https://streamlinehq.com</desc><path fill="#e04f5f" d="M23.5 47c12.978836363636363 0 23.5 -10.521163636363635 23.5 -23.5S36.47883636363636 0 23.5 0 0 10.521163636363635 0 23.5s10.521163636363635 23.5 23.5 23.5Z" stroke-width="1"></path><path fill="#3e3e3f" d="M32.20867272727273 30.878145454545454c-0.9899909090909091 -1.318990909090909 -2.050909090909091 -3.692063636363636 -2.115854545454545 -7.836609090909091 -0.22132727272727273 0.21363636363636362 -0.49264545454545455 0.3704454545454545 -0.8250636363636363 0.4422272727272727 -0.5127272727272727 1.9222999999999997 -1.3732545454545453 3.2528272727272727 -2.3499999999999996 4.188554545454545v1.9440909090909089l5.290918181818181 1.2617363636363634Z" stroke-width="1"></path><path fill="#bf8662" d="M35.63839090909091 33.18328181818182a3.418181818181818 3.418181818181818 0 0 0 -2.2081454545454546 -2.0470636363636365L26.49090909090909 29.48181818181818l-2.9909090909090907 0.42727272727272725 -2.9909090909090907 -0.42727272727272725 -6.939336363636363 1.6543999999999999a3.418181818181818 3.418181818181818 0 0 0 -2.2081454545454546 2.0470636363636365L9.827272727272726 37.17272727272727h27.345454545454544l-1.5343363636363636 -3.989445454545454Z" stroke-width="1"></path><path fill="#cc9978" d="m23.5 29.909090909090907 -2.9909090909090907 -0.42727272727272725 -6.939336363636363 1.6543999999999999a3.418181818181818 3.418181818181818 0 0 0 -2.2081454545454546 2.0470636363636365L9.827272727272726 37.17272727272727h13.672727272727272V29.909090909090907Z" stroke-width="1"></path><path fill="#facb1b" d="m30.728172727272725 30.369263636363634 -1.709090909090909 -0.42727272727272725v2.252581818181818a3.0947363636363634 3.0947363636363634 0 0 1 -1.7112272727272726 2.768727272727273l-3.7899090909090902 1.8949545454545451 -3.7899090909090902 -1.8949545454545451a3.095163636363636 3.095163636363636 0 0 1 -1.7112272727272726 -2.768727272727273v-2.252581818181818l-1.709090909090909 0.42727272727272725 -2.1363636363636362 6.836363636363636h18.693181818181817l-2.1363636363636362 -6.836363636363636Z" stroke-width="1"></path><path fill="#af7653" d="M23.784990909090908 29.51471818181818c-1.516390909090909 -0.5054636363636363 -3.3280272727272724 -1.5001545454545455 -4.557718181818181 -3.7083v4.990118181818182s0.8545454545454545 1.709090909090909 4.2727272727272725 1.709090909090909 4.2727272727272725 -1.709090909090909 4.2727272727272725 -1.709090909090909v-4.1026727272727275c-1.1805545454545454 1.598 -2.6918181818181814 2.3884545454545454 -3.9877363636363636 2.8208545454545453Z" stroke-width="1"></path><path fill="#bf8662" d="M30.47864545454545 19.402454545454543c-2.9571545454545456 0 -5.1208636363636355 -2.308981818181818 -5.102063636363637 -6.358672727272727 -0.3106272727272727 3.423309090909091 -2.2893272727272724 6.376190909090909 -8.49930909090909 6.376190909090909l0 -0.005127272727272727c-0.2448272727272727 0.17817272727272726 -0.42727272727272725 0.4849545454545454 -0.42727272727272725 0.7942999999999999 0 1.3437727272727271 0.3815545454545454 3.107981818181818 1.8599181818181816 3.303672727272727 1.045109090909091 3.8796363636363633 3.5100454545454545 5.346463636363636 5.475072727272727 6.001472727272727 1.9697272727272728 -0.6567181818181818 4.4427818181818175 -2.1290999999999998 5.483190909090909 -6.030954545454545 1.351890909090909 -0.29353636363636365 1.709090909090909 -1.9778454545454542 1.709090909090909 -3.274190909090909 0 -0.444790909090909 -0.4862363636363636 -0.9609363636363636 -0.4986272727272727 -0.806690909090909Z" stroke-width="1"></path><path fill="#3e3e3f" d="M25.422727272727272 11.996536363636364c-6.836363636363636 -1.709090909090909 -8.671072727272726 1.4715272727272726 -8.545454545454545 7.423863636363636 6.209981818181818 0 8.18910909090909 -2.952881818181818 8.49930909090909 -6.376190909090909 -0.018799999999999997 4.049690909090908 2.1449090909090907 6.358672727272727 5.102063636363637 6.358672727272727 0.3563454545454545 -4.522254545454545 -0.10681818181818181 -8.260890909090909 -5.055918181818182 -7.406345454545454Z" stroke-width="1"></path><path fill="#3e3e3f" d="M26.701981818181817 20.11471818181818a0.8545454545454545 0.8545454545454545 0 0 0 -0.8545454545454545 -0.8545454545454545l-0.0025636363636363634 0c0.00042727272727272726 0.008972727272727273 0.0025636363636363634 0.017518181818181818 0.0025636363636363634 0.02649090909090909a0.8545454545454545 0.8545454545454545 0 0 1 -0.8519818181818182 0.8545454545454545 0.8528363636363636 0.8528363636363636 0 0 0 1.7065272727272727 -0.02649090909090909Z" stroke-width="1"></path><path fill="#fff" d="m29.61854545454545 23.532899999999998 0.6524454545454544 1.5753545454545452a0.7062818181818181 0.7062818181818181 0 1 1 -1.3048909090909089 0l0.6524454545454544 -1.5753545454545452Z" stroke-width="1"></path><path fill="#3e3e3f" d="M22.973599999999998 29.20280909090909c-1.7881363636363634 -0.7802 -3.7582909090909085 -2.329063636363636 -4.663681818181818 -5.689563636363636 -0.6909 -0.09143636363636364 -1.1399636363636363 -0.5272545454545454 -1.4249545454545454 -1.1015090909090908H16.877272727272725c0.21363636363636362 8.411290909090908 2.5790181818181814 7.33499090909091 3.0977272727272727 10.707881818181818 0.26704545454545453 1.7355818181818181 -0.9613636363636363 3.5100454545454545 -2.6704545454545454 2.3726454545454545 0.5930545454545454 2.3688 6.676136363636363 1.6360272727272727 6.676136363636363 -3.4942363636363636 0 -1.0835636363636363 -0.4114636363636363 -1.9936545454545456 -1.0070818181818182 -2.7952181818181816Z" stroke-width="1"></path><path fill="#fff" d="m17.227636363636364 23.532899999999998 0.6524454545454544 1.5753545454545452a0.7062818181818181 0.7062818181818181 0 1 1 -1.3048909090909089 0l0.6524454545454544 -1.5753545454545452Z" stroke-width="1"></path><path fill="#cc9978" d="m16.877272727272725 19.420399999999997 0 -0.005127272727272727c-0.2448272727272727 0.17817272727272726 -0.42727272727272725 0.4849545454545454 -0.42727272727272725 0.7942999999999999 0 1.3437727272727271 0.3815545454545454 3.107981818181818 1.8599181818181816 3.303672727272727 1.045109090909091 3.8796363636363633 3.5100454545454545 5.346463636363636 5.475072727272727 6.001472727272727V17.071681818181816c-1.2732727272727271 1.4194 -3.4250181818181815 2.3487181818181817 -6.907718181818182 2.3487181818181817Z" stroke-width="1"></path><path fill="#3e3e3f" d="M22.43181818181818 20.11471818181818a0.8545454545454545 0.8545454545454545 0 0 0 -0.8545454545454545 -0.8545454545454545l-0.0025636363636363634 0c0.00042727272727272726 0.008972727272727273 0.0025636363636363634 0.017518181818181818 0.0025636363636363634 0.02649090909090909a0.8545454545454545 0.8545454545454545 0 0 1 -0.8519818181818182 0.8545454545454545 0.8528363636363636 0.8528363636363636 0 0 0 1.7065272727272727 -0.02649090909090909Z" stroke-width="1"></path><path fill="#84462d" d="M21.577272727272724 24.81471818181818h4.2727272727272725s0 1.2818181818181817 -2.1363636363636362 1.2818181818181817 -2.1363636363636362 -1.2818181818181817 -2.1363636363636362 -1.2818181818181817Z" stroke-width="1"></path></svg>