<svg xmlns="http://www.w3.org/2000/svg" fill="none" viewBox="-0.5 -0.5 48 48" id="Woman-7--Streamline-Kameleon.svg" height="48" width="48"><desc>Woman 7 Streamline Icon: https://streamlinehq.com</desc><path fill="#e04f5f" d="M23.5 47c12.978836363636363 0 23.5 -10.521163636363635 23.5 -23.5S36.47883636363636 0 23.5 0 0 10.521163636363635 0 23.5s10.521163636363635 23.5 23.5 23.5Z" stroke-width="1"></path><path fill="#af7653" d="m37.17272727272727 37.17272727272727 -1.5343363636363636 -3.989445454545454a3.418181818181818 3.418181818181818 0 0 0 -2.2081454545454546 -2.0470636363636365L27.77272727272727 29.787318181818183v-3.1118272727272727c-1.2138818181818183 1.878290909090909 -2.8695636363636363 2.765736363636363 -4.2727272727272725 3.2335999999999996 -1.4031636363636362 -0.4678636363636363 -3.0588454545454544 -1.354881818181818 -4.2727272727272725 -3.2335999999999996V30.763636363636362s0.8545454545454545 1.709090909090909 4.2727272727272725 1.709090909090909v4.699999999999999h13.672727272727272Z" stroke-width="1"></path><path fill="#bf8662" d="M19.227272727272727 26.675490909090907v3.1118272727272727l-5.6575181818181814 1.3489a3.418181818181818 3.418181818181818 0 0 0 -2.2081454545454546 2.0470636363636365L9.827272727272726 37.17272727272727h13.672727272727272V29.909090909090907c-1.4031636363636362 -0.4678636363636363 -3.0588454545454544 -1.354881818181818 -4.2727272727272725 -3.2335999999999996Z" stroke-width="1"></path><path fill="#3e3e3f" d="m23.5 33.61482727272727 -4.415436363636363 -3.974063636363636a0.21363636363636362 0.21363636363636362 0 1 1 0.28584545454545457 -0.31746363636363634L23.5 33.03971818181818l4.130018181818182 -3.7168454545454543a0.21363636363636362 0.21363636363636362 0 1 1 0.28584545454545457 0.31746363636363634L23.5 33.61482727272727Z" stroke-width="1"></path><path fill="#fff" d="M33.32727272727273 37.17272727272727c-0.764390909090909 -1.4125636363636362 -2.0265545454545455 -3.4173272727272725 -4.057809090909091 -3.4173272727272725 -3.4250181818181815 0 -4.0330272727272725 2.5636363636363635 -5.745536363636363 2.5636363636363635 -1.7125090909090908 0 -2.321372727272727 -2.4756181818181817 -5.74510909090909 -2.5636363636363635 -2.075690909090909 -0.05298181818181818 -3.344690909090909 1.9009363636363634 -4.106090909090908 3.4173272727272725h19.654545454545453Z" stroke-width="1"></path><path fill="#fbe158" d="m23.5 32.47272727272727 0.6524454545454544 1.5753545454545452a0.7062818181818181 0.7062818181818181 0 1 1 -1.3048909090909089 0L23.5 32.47272727272727Z" stroke-width="1"></path><path fill="#bf8662" d="M27.478763636363635 27.05533636363636c0.6127090909090909 -0.8263454545454545 1.1386818181818181 -1.865472727272727 1.495881818181818 -3.1917272727272725 1.0053727272727273 -0.1303181818181818 1.2489181818181818 -3.255390909090909 -0.0008545454545454545 -3.826654545454545 -2.8900727272727273 -1.2386636363636363 -3.9373181818181817 -3.8057181818181816 -4.628218181818182 -4.7089727272727275 -0.04999090909090909 0.20936363636363634 -0.27046363636363635 1.5133999999999999 1.2903636363636364 3.854427272727273l-0.00042727272727272726 0c-2.346581818181818 -0.39095454545454544 -3.936890909090909 -3.6335272727272723 -4.223163636363636 -4.218036363636363 -0.38839090909090906 1.8629090909090908 -1.6291909090909091 6.499672727272727 -3.4070727272727273 7.208945454545454a5.268272727272727 5.268272727272727 0 0 0 -0.6716727272727273 -2.5636363636363635l-0.3255818181818182 0c-0.42727272727272725 0 -0.8545454545454545 0.47469999999999996 -0.8545454545454545 0.9493999999999999 0 1.4450363636363637 0.43880909090909087 3.1229363636363634 1.870172727272727 3.3045272727272725a10.172936363636364 10.172936363636364 0 0 0 0.8370272727272727 2.144481818181818l-0.0012818181818181817 0.010681818181818181 -0.022218181818181817 -0.009827272727272726C20.06771818181818 28.35253636363636 21.940454545454546 29.3891 23.5 29.909090909090907c1.3249727272727272 -0.44179999999999997 2.8755454545454544 -1.256181818181818 4.067209090909091 -2.9272454545454543l-0.08844545454545454 0.07349090909090908Z" stroke-width="1"></path><path fill="#cc9978" d="M21.412772727272728 14.954545454545453c-0.38839090909090906 1.8629090909090908 -1.6291909090909091 6.499672727272727 -3.4070727272727273 7.208945454545454a5.268272727272727 5.268272727272727 0 0 0 -0.6716727272727273 -2.5636363636363635l-0.3255818181818182 0c-0.42727272727272725 0 -0.8545454545454545 0.47469999999999996 -0.8545454545454545 0.9493999999999999 0 1.4450363636363637 0.43880909090909087 3.123363636363636 1.870172727272727 3.3045272727272725a10.172936363636364 10.172936363636364 0 0 0 0.8370272727272727 2.144481818181818l-0.0012818181818181817 0.010681818181818181 -0.022218181818181817 -0.009827272727272726c1.2296909090909092 2.343590909090909 3.102 3.380581818181818 4.661972727272727 3.9001454545454544V17.970663636363636c-1.1506454545454545 -1.115181818181818 -1.8996545454545453 -2.6337090909090906 -2.0868 -3.016118181818182Z" stroke-width="1"></path><path fill="#3e3e3f" d="M33.32684545454545 18.755136363636364c0 -3.871090909090909 -4.851681818181818 -9.571763636363636 -10.2084 -8.28780909090909 -1.2305454545454544 0.24226363636363632 -2.499545454545454 0.8635181818181817 -2.6345636363636364 1.013490909090909 -6.789363636363636 -1.1651727272727272 -11.409036363636364 10.709163636363636 -1.6232090909090908 14.538381818181819l0.0012818181818181817 -0.010681818181818181a10.163963636363636 10.163963636363636 0 0 1 -0.8370272727272727 -2.144481818181818c-1.4864818181818182 -0.18885454545454544 -1.870172727272727 -1.9577636363636362 -1.870172727272727 -3.3045272727272725 0 -0.47469999999999996 0.42727272727272725 -0.9493999999999999 0.8545454545454545 -0.9493999999999999l0.3255818181818182 0 0.0008545454545454545 0.001709090909090909a5.269981818181818 5.269981818181818 0 0 1 0.6708181818181818 2.5619272727272726c1.777881818181818 -0.7088454545454546 3.0186818181818182 -5.3460363636363635 3.4070727272727273 -7.208945454545454 0.28584545454545457 0.5840818181818181 1.8765818181818181 3.8270818181818185 4.223163636363636 4.218036363636363 -1.7056727272727272 -2.5589363636363633 -1.2831 -3.883054545454545 -1.2818181818181817 -3.8877545454545452 0.0021363636363636363 0.004699999999999999 1.6309 3.461336363636364 4.619672727272727 4.7423 1.256181818181818 0.5742545454545455 1.0019545454545455 3.696763636363636 0.0008545454545454545 3.826654545454545 -0.35719999999999996 1.3262545454545454 -0.8831727272727273 2.365381818181818 -1.495881818181818 3.1917272727272725 1.6907181818181816 -1.3959 3.878781818181818 -3.384427272727273 4.627363636363636 -4.882018181818181 0.8391636363636363 -1.6783272727272727 0.21406363636363634 -3.169081818181818 -0.3183181818181818 -4.001409090909091 0.3730090909090909 0.15894545454545453 0.9024 0.3704454545454545 1.538181818181818 0.5828Z" stroke-width="1"></path><path fill="#fbe158" d="m17.22293636363636 23.927272727272726 0.6524454545454544 1.5753545454545452a0.7062818181818181 0.7062818181818181 0 1 1 -1.3048909090909089 0L17.22293636363636 23.927272727272726Z" stroke-width="1"></path><path fill="#fbe158" d="m29.61384545454545 23.927272727272726 0.6524454545454544 1.5753545454545452a0.7062818181818181 0.7062818181818181 0 1 1 -1.3048909090909089 0L29.61384545454545 23.927272727272726Z" stroke-width="1"></path><path fill="#3e3e3f" d="M22.13400909090909 20.509090909090908a0.8545454545454545 0.8545454545454545 0 0 0 -0.8545454545454545 -0.8545454545454545l-0.0025636363636363634 0c0.00042727272727272726 0.008972727272727273 0.0025636363636363634 0.017518181818181818 0.0025636363636363634 0.02649090909090909a0.8545454545454545 0.8545454545454545 0 0 1 -0.8519818181818182 0.8545454545454545A0.8528363636363636 0.8528363636363636 0 0 0 22.13400909090909 20.509090909090908Z" stroke-width="1"></path><path fill="#3e3e3f" d="M26.403745454545454 20.509090909090908a0.8545454545454545 0.8545454545454545 0 0 0 -0.8545454545454545 -0.8545454545454545l-0.0025636363636363634 0c0.00042727272727272726 0.008972727272727273 0.0025636363636363634 0.017518181818181818 0.0025636363636363634 0.02649090909090909a0.8545454545454545 0.8545454545454545 0 0 1 -0.8519818181818182 0.8545454545454545A0.8536909090909091 0.8536909090909091 0 0 0 26.403745454545454 20.509090909090908Z" stroke-width="1"></path><path fill="#84462d" d="M21.28202727272727 25.209090909090907h4.2727272727272725s0 1.2818181818181817 -2.1363636363636362 1.2818181818181817 -2.1363636363636362 -1.2818181818181817 -2.1363636363636362 -1.2818181818181817Z" stroke-width="1"></path></svg>