<svg xmlns="http://www.w3.org/2000/svg" fill="none" viewBox="-0.5 -0.5 48 48" id="Woman-8--Streamline-Kameleon.svg" height="48" width="48"><desc>Woman 8 Streamline Icon: https://streamlinehq.com</desc><path fill="#fabc3d" d="M23.5 47c12.978836363636363 0 23.5 -10.521163636363635 23.5 -23.5S36.47883636363636 0 23.5 0 0 10.521163636363635 0 23.5s10.521163636363635 23.5 23.5 23.5Z" stroke-width="1"></path><path fill="#84462d" d="m30.763636363636362 24.78181818181818 0 -6.836363636363636c0 -4.011663636363636 -3.251972727272727 -7.263636363636364 -7.263636363636364 -7.263636363636364s-7.263636363636364 3.251972727272727 -7.263636363636364 7.263636363636364l0 6.836363636363636c0 4.2727272727272725 -3.8454545454545452 3.418181818181818 -3.8454545454545452 3.418181818181818s0.42727272727272725 3.418181818181818 5.9818181818181815 3.418181818181818l5.119581818181818 0L23.5 31.618181818181817l5.127272727272727 0c5.554545454545455 0 5.9818181818181815 -3.418181818181818 5.9818181818181815 -3.418181818181818s-3.8454545454545452 0.8545454545454545 -3.8454545454545452 -3.418181818181818Z" stroke-width="1"></path><path fill="#9c6144" d="m16.236363636363635 17.945454545454545 0 6.836363636363636c0 4.2727272727272725 -3.8454545454545452 3.418181818181818 -3.8454545454545452 3.418181818181818s0.42727272727272725 3.418181818181818 5.9818181818181815 3.418181818181818l5.119581818181818 0L23.5 31.618181818181817V10.681818181818182c-4.011663636363636 0 -7.263636363636364 3.251972727272727 -7.263636363636364 7.263636363636364Z" stroke-width="1"></path><path fill="#40c9e7" d="M35.63839090909091 33.18328181818182a3.418181818181818 3.418181818181818 0 0 0 -2.2081454545454546 -2.0470636363636365L27.77272727272727 29.909090909090907H19.227272727272727l-5.6575181818181814 1.2271272727272726a3.418181818181818 3.418181818181818 0 0 0 -2.2081454545454546 2.0470636363636365L9.827272727272726 37.17272727272727h27.345454545454544l-1.5343363636363636 -3.989445454545454Z" stroke-width="1"></path><path fill="#fff" d="M17.945454545454545 31.404545454545453a1.4924636363636363 1.4924636363636363 0 0 0 1.4343545454545454 1.4894727272727273A1.4800727272727272 1.4800727272727272 0 0 0 19.227272727272727 33.54090909090909a1.4924636363636363 1.4924636363636363 0 0 0 1.4343545454545454 1.4894727272727273A1.4800727272727272 1.4800727272727272 0 0 0 20.509090909090908 35.67727272727272a1.4954545454545454 1.4954545454545454 0 0 0 2.0803909090909087 1.3766727272727273l-3.352809090909091 -7.124345454545454A1.4907545454545452 1.4907545454545452 0 0 0 17.945454545454545 31.404545454545453Z" stroke-width="1"></path><path fill="#fff" d="M29.054545454545455 31.404545454545453a1.4924636363636363 1.4924636363636363 0 0 1 -1.4343545454545454 1.4894727272727273c0.09485454545454546 0.1961181818181818 0.1525363636363636 0.4140272727272727 0.1525363636363636 0.6468909090909091a1.4924636363636363 1.4924636363636363 0 0 1 -1.4343545454545454 1.4894727272727273c0.09485454545454546 0.1961181818181818 0.1525363636363636 0.4140272727272727 0.1525363636363636 0.6468909090909091a1.4954545454545454 1.4954545454545454 0 0 1 -2.0803909090909087 1.3766727272727273l3.352809090909091 -7.124345454545454A1.4907545454545452 1.4907545454545452 0 0 1 29.054545454545455 31.404545454545453Z" stroke-width="1"></path><path fill="#f7b4b4" d="M23.5 29.48181818181818v7.6909090909090905h0.8545454545454545l3.418181818181818 -7.263636363636364v-3.6604454545454543c-1.2138818181818183 1.878290909090909 -2.8695636363636363 2.7653090909090907 -4.2727272727272725 3.233172727272727Z" stroke-width="1"></path><path fill="#fbc8c8" d="M19.227272727272727 26.248645454545454V29.909090909090907l3.418181818181818 7.263636363636364h0.8545454545454545V29.48181818181818c-1.4031636363636362 -0.4678636363636363 -3.0588454545454544 -1.354881818181818 -4.2727272727272725 -3.233172727272727Z" stroke-width="1"></path><path fill="#fbc8c8" d="m29.909090909090907 19.227272727272727 -0.42727272727272725 0 0 -0.008972727272727273c-0.001709090909090909 -0.8122454545454545 -0.022645454545454545 -1.6039818181818182 -0.10639090909090908 -2.3491454545454546C29.104536363636363 17.7378 28.3034 18.37272727272727 27.345454545454544 18.37272727272727c-0.8507 0 -1.5792 -0.5007636363636363 -1.9227272727272726 -1.2202909090909089C25.079199999999997 17.87196363636364 24.3507 18.37272727272727 23.5 18.37272727272727s-1.5792 -0.5007636363636363 -1.9227272727272726 -1.2202909090909089C21.233745454545453 17.87196363636364 20.505245454545452 18.37272727272727 19.654545454545453 18.37272727272727c-0.9579454545454544 0 -1.759081818181818 -0.6349272727272727 -2.0299727272727273 -1.5035727272727273 -0.08331818181818182 0.7451636363636364 -0.10468181818181817 1.5369 -0.10639090909090908 2.3491454545454546L17.518181818181816 19.227272727272727l-0.42727272727272725 0c-0.42727272727272725 0 -0.8545454545454545 0.47469999999999996 -0.8545454545454545 0.9493999999999999 0 1.3207 0.36916363636363636 3.0464545454545453 1.7851454545454544 3.291281818181818C19.06490909090909 27.356990909090907 21.532836363636363 28.825954545454547 23.5 29.48181818181818c1.9671636363636362 -0.6558636363636363 4.435090909090909 -2.1248272727272726 5.478490909090908 -6.013863636363635C30.394472727272724 23.223554545454544 30.763636363636362 21.497372727272726 30.763636363636362 20.176672727272727 30.763636363636362 19.701972727272725 30.336363636363636 19.227272727272727 29.909090909090907 19.227272727272727Z" stroke-width="1"></path><path fill="#9ce5f4" d="M15.381818181818181 33.75454545454545a0.8545454545454545 0.8545454545454545 0 1 0 0 -1.709090909090909 0.8545454545454545 0.8545454545454545 0 0 0 0 1.709090909090909Z" stroke-width="1"></path><path fill="#9ce5f4" d="M17.518181818181816 36.31818181818181a0.8545454545454545 0.8545454545454545 0 1 0 0 -1.709090909090909 0.8545454545454545 0.8545454545454545 0 0 0 0 1.709090909090909Z" stroke-width="1"></path><path fill="#9ce5f4" d="M12.39090909090909 36.31818181818181a0.8545454545454545 0.8545454545454545 0 1 0 0 -1.709090909090909 0.8545454545454545 0.8545454545454545 0 0 0 0 1.709090909090909Z" stroke-width="1"></path><path fill="#9ce5f4" d="M31.618181818181817 33.75454545454545a0.8545454545454545 0.8545454545454545 0 1 0 0 -1.709090909090909 0.8545454545454545 0.8545454545454545 0 0 0 0 1.709090909090909Z" stroke-width="1"></path><path fill="#9ce5f4" d="M29.48181818181818 36.31818181818181a0.8545454545454545 0.8545454545454545 0 1 0 0 -1.709090909090909 0.8545454545454545 0.8545454545454545 0 0 0 0 1.709090909090909Z" stroke-width="1"></path><path fill="#9ce5f4" d="M34.60909090909091 36.31818181818181a0.8545454545454545 0.8545454545454545 0 1 0 0 -1.709090909090909 0.8545454545454545 0.8545454545454545 0 0 0 0 1.709090909090909Z" stroke-width="1"></path><path fill="#fbd7d7" d="M21.577272727272724 17.15243636363636C21.233745454545453 17.87196363636364 20.505245454545452 18.37272727272727 19.654545454545453 18.37272727272727c-0.9579454545454544 0 -1.759081818181818 -0.6349272727272727 -2.0299727272727273 -1.5035727272727273 -0.08331818181818182 0.7451636363636364 -0.10468181818181817 1.5369 -0.10639090909090908 2.3491454545454546L17.518181818181816 19.227272727272727l-0.42727272727272725 0c-0.42727272727272725 0 -0.8545454545454545 0.47469999999999996 -0.8545454545454545 0.9493999999999999 0 1.3207 0.36916363636363636 3.0464545454545453 1.7851454545454544 3.291281818181818C19.06490909090909 27.356990909090907 21.532836363636363 28.825954545454547 23.5 29.48181818181818V18.37272727272727c-0.8507 0 -1.5792 -0.5007636363636363 -1.9227272727272726 -1.2202909090909089Z" stroke-width="1"></path><path fill="#f79392" d="M21.363636363636363 24.78181818181818h4.2727272727272725s0 1.2818181818181817 -2.1363636363636362 1.2818181818181817 -2.1363636363636362 -1.2818181818181817 -2.1363636363636362 -1.2818181818181817Z" stroke-width="1"></path><path fill="#3e3e3f" d="M26.49090909090909 18.37272727272727c-1.121590909090909 0 -2.243181818181818 0.7477272727272727 -2.243181818181818 0.7477272727272727h-1.4954545454545454S21.630681818181817 18.37272727272727 20.509090909090908 18.37272727272727c-1.8693181818181817 0 -2.9909090909090907 0.7477272727272727 -2.9909090909090907 0.7477272727272727v0.37386363636363634h0.37386363636363634c0 2.243181818181818 0.7477272727272727 3.3647727272727272 2.695236363636363 3.3647727272727272 1.9470818181818181 0 2.3521363636363635 -1.8693181818181817 2.3521363636363635 -2.388027272727273C22.938990909090908 19.952781818181816 23.5 19.868181818181817 23.5 19.868181818181817s0.5605818181818182 0.0846 0.5605818181818182 0.6028818181818182c0 0.5187090909090909 0.4050545454545454 2.388027272727273 2.3521363636363635 2.388027272727273 1.9475090909090906 0 2.695236363636363 -1.121590909090909 2.695236363636363 -3.3647727272727272H29.48181818181818v-0.37386363636363634S28.360227272727272 18.37272727272727 26.49090909090909 18.37272727272727Z" stroke-width="1"></path><path fill="#9e9fa0" d="M20.509090909090908 19.120454545454546c-1.032290909090909 0 -1.8693181818181817 0.4631636363636364 -1.8693181818181817 1.4954545454545454 0 0.48281818181818176 0.188 0.9182090909090909 0.48794545454545446 1.249772727272727l2.5012545454545454 -2.5012545454545454c-0.31276363636363635 -0.16193636363636363 -0.6977363636363636 -0.24397272727272723 -1.1198818181818182 -0.24397272727272723Z" stroke-width="1"></path><path fill="#9e9fa0" d="M26.49090909090909 19.120454545454546c-1.032290909090909 0 -1.8693181818181817 0.4631636363636364 -1.8693181818181817 1.4954545454545454 0 0.48281818181818176 0.188 0.9182090909090909 0.48794545454545446 1.249772727272727l2.5012545454545454 -2.5012545454545454c-0.31276363636363635 -0.16193636363636363 -0.6977363636363636 -0.24397272727272723 -1.1198818181818182 -0.24397272727272723Z" stroke-width="1"></path></svg>