<svg xmlns="http://www.w3.org/2000/svg" fill="none" viewBox="-0.5 -0.5 48 48" id="Businesswoman-4--Streamline-Kameleon.svg" height="48" width="48"><desc>Businesswoman 4 Streamline Icon: https://streamlinehq.com</desc><path fill="#32bea6" d="M23.5 47c12.978836363636363 0 23.5 -10.521163636363635 23.5 -23.5S36.47883636363636 0 23.5 0 0 10.521163636363635 0 23.5s10.521163636363635 23.5 23.5 23.5Z" stroke-width="1"></path><path fill="#f3b607" d="m27.345454545454544 29.054545454545455 2.1244 -1.8885454545454543A5.127272727272727 5.127272727272727 0 0 0 31.190909090909088 23.333790909090908V18.776072727272727c0 -4.247090909090908 -3.4433909090909087 -7.6909090909090905 -7.6909090909090905 -7.6909090909090905s-7.6909090909090905 3.4438181818181817 -7.6909090909090905 7.6909090909090905v4.557718181818181a5.127272727272727 5.127272727272727 0 0 0 1.7210545454545452 3.8326363636363636L19.654545454545453 29.054545454545455h7.6909090909090905Z" stroke-width="1"></path><path fill="#facb1b" d="M15.809090909090909 18.776072727272727v4.557718181818181a5.127272727272727 5.127272727272727 0 0 0 1.7210545454545452 3.8326363636363636L19.654545454545453 29.054545454545455h3.8454545454545452V11.084736363636363c-4.247518181818182 0 -7.6909090909090905 3.4438181818181817 -7.6909090909090905 7.6909090909090905Z" stroke-width="1"></path><path fill="#3e3e3f" d="m23.5 29.909090909090907 -2.9909090909090907 -0.42727272727272725 -6.939336363636363 1.6543999999999999a3.418181818181818 3.418181818181818 0 0 0 -2.2081454545454546 2.0470636363636365L9.827272727272726 37.17272727272727h13.672727272727272V29.909090909090907Z" stroke-width="1"></path><path fill="#3e3e3f" d="m23.5 29.909090909090907 2.9909090909090907 -0.42727272727272725 6.939336363636363 1.6543999999999999a3.418181818181818 3.418181818181818 0 0 1 2.2081454545454546 2.0470636363636365L37.17272727272727 37.17272727272727H23.5V29.909090909090907Z" stroke-width="1"></path><path fill="#f7b4b4" d="M23.5 29.48181818181818c-1.4031636363636362 -0.4678636363636363 -3.0588454545454544 -1.3544545454545454 -4.2727272727272725 -3.2335999999999996V32.9l3.8454545454545452 4.2727272727272725h1.2818181818181817l3.418181818181818 -4.2727272727272725V26.24821818181818C26.55884545454545 28.127363636363633 24.903163636363633 29.013954545454546 23.5 29.48181818181818Z" stroke-width="1"></path><path fill="#fbc8c8" d="M19.227272727272727 26.24821818181818V32.9l3.8454545454545452 4.2727272727272725h0.42727272727272725V29.48181818181818c-1.4031636363636362 -0.4678636363636363 -3.0588454545454544 -1.3544545454545454 -4.2727272727272725 -3.2335999999999996Z" stroke-width="1"></path><path fill="#fff" d="m17.239172727272727 23.5 0.6524454545454544 1.5753545454545452a0.7062818181818181 0.7062818181818181 0 1 1 -1.3048909090909089 0L17.239172727272727 23.5Z" stroke-width="1"></path><path fill="#fff" d="m29.630081818181814 23.5 0.6524454545454544 1.5753545454545452a0.7062818181818181 0.7062818181818181 0 1 1 -1.3048909090909089 0L29.630081818181814 23.5Z" stroke-width="1"></path><path fill="#fff" d="M19.222572727272723 27.345454545454544 20.081818181818182 32.04545454545455l3.418181818181818 5.127272727272727h-0.8545454545454545l-5.554545454545455 -3.418181818181818 1.709090909090909 -2.1363636363636362 -3.8454545454545452 -0.8545454545454545 4.268027272727273 -3.418181818181818Z" stroke-width="1"></path><path fill="#fff" d="M27.77742727272727 27.345454545454544 26.918181818181818 32.04545454545455l-3.418181818181818 5.127272727272727h0.8545454545454545l5.554545454545455 -3.418181818181818 -1.709090909090909 -2.1363636363636362 3.8454545454545452 -0.8545454545454545 -4.268027272727273 -3.418181818181818Z" stroke-width="1"></path><path fill="#fbc8c8" d="M29.48181818181818 20.509090909090908c0 -6.836363636363636 -6.836363636363636 1.709090909090909 -9.346590909090908 -5.578472727272727 0 0 -0.7977181818181818 6.026681818181818 -3.7121454545454546 6.782954545454545 0.23072727272727273 0.8588181818181817 0.7067090909090908 1.6005636363636362 1.5988545454545453 1.754809090909091C19.06490909090909 27.356990909090907 21.532836363636363 28.826381818181815 23.5 29.48181818181818c1.9671636363636362 -0.6558636363636363 4.435090909090909 -2.1248272727272726 5.478490909090908 -6.013863636363635 0.6319363636363636 -0.10895454545454546 1.0540818181818181 -0.5140090909090909 1.3292454545454546 -1.0455363636363637C29.485663636363636 21.55761818181818 29.48181818181818 20.509090909090908 29.48181818181818 20.509090909090908Z" stroke-width="1"></path><path fill="#fbd7d7" d="M20.13522727272727 14.930618181818183S19.33750909090909 20.957727272727272 16.423081818181817 21.714c0.23072727272727273 0.8588181818181817 0.7067090909090908 1.6005636363636362 1.5988545454545453 1.754809090909091C19.06490909090909 27.356990909090907 21.532836363636363 28.826381818181815 23.5 29.48181818181818V18.082181818181816c-1.320272727272727 -0.11493636363636364 -2.5632090909090905 -0.8246363636363636 -3.3647727272727272 -3.1515636363636363Z" stroke-width="1"></path><path fill="#3e3e3f" d="M22.21818181818182 20.081818181818182a0.8545454545454545 0.8545454545454545 0 0 0 -0.8545454545454545 -0.8545454545454545l-0.0025636363636363634 0c0.00042727272727272726 0.008972727272727273 0.0025636363636363634 0.017945454545454546 0.0025636363636363634 0.026918181818181817a0.8545454545454545 0.8545454545454545 0 0 1 -0.8519818181818182 0.8545454545454545A0.8532636363636363 0.8532636363636363 0 0 0 22.21818181818182 20.081818181818182Z" stroke-width="1"></path><path fill="#3e3e3f" d="M26.488345454545453 20.081818181818182a0.8545454545454545 0.8545454545454545 0 0 0 -0.8545454545454545 -0.8545454545454545l-0.0025636363636363634 0c0.00042727272727272726 0.008972727272727273 0.0025636363636363634 0.017518181818181818 0.0025636363636363634 0.02649090909090909a0.8545454545454545 0.8545454545454545 0 0 1 -0.8519818181818182 0.8545454545454545A0.8528363636363636 0.8528363636363636 0 0 0 26.488345454545453 20.081818181818182Z" stroke-width="1"></path><path fill="#f79392" d="M21.363636363636363 24.78181818181818h4.2727272727272725s0 1.2818181818181817 -2.1363636363636362 1.2818181818181817 -2.1363636363636362 -1.2818181818181817 -2.1363636363636362 -1.2818181818181817Z" stroke-width="1"></path></svg>