<svg xmlns="http://www.w3.org/2000/svg" xmlns:xlink="http://www.w3.org/1999/xlink" width="520" zoomAndPan="magnify" viewBox="0 0 390 345.749992" height="461" preserveAspectRatio="xMidYMid meet" version="1.0"><defs><g/><clipPath id="8a50ae6759"><path d="M 0.140625 14 L 378 14 L 378 345.5 L 0.140625 345.5 Z M 0.140625 14 " clip-rule="nonzero"/></clipPath><clipPath id="b6e0f5685b"><path d="M 12 0 L 389.859375 0 L 389.859375 331 L 12 331 Z M 12 0 " clip-rule="nonzero"/></clipPath></defs><g clip-path="url(#8a50ae6759)"><path fill="#a6a6a6" d="M 220.660156 345.382812 C 200.039062 345.382812 180.078125 341.183594 161.34375 332.898438 C 145.136719 325.730469 130.546875 315.835938 117.902344 303.441406 C 110.859375 301.519531 103.96875 299.070312 97.289062 296.121094 C 81.96875 302.492188 64.648438 305.714844 45.640625 305.714844 C 20.539062 305.714844 1.050781 299.902344 0.230469 299.660156 L 4.105469 260.121094 C 4.105469 260.121094 3.988281 260.128906 3.765625 260.160156 C 4.515625 260.058594 19.636719 257.820312 33.359375 241.710938 C 27.226562 232.296875 22.207031 222.226562 18.371094 211.632812 C 12.574219 195.621094 9.636719 178.800781 9.636719 161.644531 C 9.636719 122.386719 24.921875 85.476562 52.683594 57.71875 C 80.441406 29.957031 117.347656 14.671875 156.609375 14.671875 C 177.25 14.671875 197.226562 18.875 215.976562 27.164062 C 232.203125 34.339844 246.804688 44.246094 259.453125 56.660156 C 289.015625 64.753906 315.6875 82.171875 335.066406 106.164062 C 345.394531 118.949219 353.441406 133.242188 358.984375 148.644531 C 364.726562 164.585938 367.632812 181.328125 367.632812 198.410156 C 367.632812 215.566406 364.695312 232.386719 358.898438 248.398438 C 355.0625 258.992188 350.042969 269.0625 343.910156 278.476562 C 357.632812 294.585938 372.753906 296.824219 373.503906 296.925781 C 373.28125 296.894531 373.164062 296.886719 373.164062 296.886719 L 377.039062 336.421875 C 376.21875 336.671875 356.734375 342.480469 331.632812 342.480469 C 331.632812 342.480469 331.632812 342.480469 331.628906 342.480469 C 312.621094 342.480469 295.292969 339.253906 279.972656 332.886719 C 261.371094 341.085938 241.0625 345.382812 220.660156 345.382812 " fill-opacity="1" fill-rule="nonzero"/></g><g clip-path="url(#b6e0f5685b)"><path fill="#ffffff" d="M 233.316406 330.699219 C 212.695312 330.699219 192.734375 326.5 174 318.214844 C 157.792969 311.050781 143.203125 301.15625 130.558594 288.761719 C 123.515625 286.835938 116.625 284.390625 109.945312 281.4375 C 94.625 287.8125 77.304688 291.03125 58.296875 291.03125 C 33.195312 291.03125 13.707031 285.222656 12.890625 284.976562 L 16.761719 245.441406 C 16.761719 245.441406 16.644531 245.449219 16.421875 245.480469 C 17.171875 245.378906 32.296875 243.140625 46.015625 227.03125 C 39.882812 217.613281 34.863281 207.546875 31.027344 196.953125 C 25.230469 180.941406 22.292969 164.121094 22.292969 146.960938 C 22.292969 107.703125 37.578125 70.796875 65.339844 43.039062 C 93.097656 15.277344 130.003906 -0.0117188 169.265625 -0.0117188 C 189.910156 -0.0117188 209.882812 4.191406 228.632812 12.480469 C 244.863281 19.660156 259.460938 29.566406 272.109375 41.976562 C 301.671875 50.070312 328.34375 67.488281 347.722656 91.484375 C 358.050781 104.269531 366.097656 118.5625 371.640625 133.964844 C 377.382812 149.90625 380.289062 166.648438 380.289062 183.726562 C 380.289062 200.886719 377.351562 217.707031 371.554688 233.71875 C 367.71875 244.3125 362.699219 254.382812 356.566406 263.792969 C 370.289062 279.90625 385.410156 282.144531 386.160156 282.242188 C 385.9375 282.214844 385.820312 282.207031 385.820312 282.207031 L 389.695312 321.742188 C 388.875 321.988281 369.390625 327.800781 344.289062 327.800781 C 344.289062 327.800781 344.289062 327.800781 344.285156 327.800781 C 325.277344 327.800781 307.949219 324.574219 292.628906 318.203125 C 274.027344 326.402344 253.722656 330.699219 233.316406 330.699219 " fill-opacity="1" fill-rule="nonzero"/></g><path fill="#38b6ff" d="M 110.058594 254.445312 C 110.792969 254.445312 111.523438 254.625 112.191406 254.976562 C 129.675781 264.234375 149.410156 269.125 169.265625 269.125 C 236.625 269.125 291.429688 214.324219 291.429688 146.960938 C 291.429688 79.597656 236.625 24.796875 169.265625 24.796875 C 101.902344 24.796875 47.097656 79.597656 47.097656 146.960938 C 47.097656 174.914062 56.796875 202.246094 74.410156 223.925781 C 75.605469 225.398438 75.765625 227.460938 74.808594 229.097656 C 63.136719 249.058594 48.417969 259.367188 37.050781 264.660156 C 54.785156 267.152344 83.382812 268.125 107.910156 254.988281 C 108.582031 254.625 109.320312 254.445312 110.058594 254.445312 Z M 169.265625 278.238281 C 148.734375 278.238281 128.320312 273.371094 110.0625 264.136719 C 88.59375 274.898438 65.035156 276.039062 48.820312 275.046875 C 30.773438 273.941406 17.96875 270.117188 17.433594 269.953125 C 15.351562 269.324219 14.007812 267.3125 14.21875 265.148438 C 14.429688 262.984375 16.140625 261.273438 18.304688 261.058594 C 18.359375 261.050781 25.707031 260.230469 35.328125 255.320312 C 47.351562 249.179688 57.4375 239.710938 65.335938 227.144531 C 47.675781 204.269531 37.988281 175.925781 37.988281 146.960938 C 37.988281 111.898438 51.640625 78.929688 76.4375 54.132812 C 101.230469 29.339844 134.199219 15.683594 169.265625 15.683594 C 204.328125 15.683594 237.296875 29.339844 262.09375 54.132812 C 286.886719 78.929688 300.542969 111.898438 300.542969 146.960938 C 300.542969 182.027344 286.886719 214.992188 262.09375 239.789062 C 237.296875 264.582031 204.328125 278.238281 169.265625 278.238281 " fill-opacity="1" fill-rule="nonzero"/><path fill="#38b6ff" d="M 154.949219 277.4375 C 176.867188 295.882812 204.203125 305.894531 233.316406 305.894531 C 253.171875 305.894531 272.90625 301 290.390625 291.742188 C 291.730469 291.035156 293.335938 291.035156 294.671875 291.753906 C 319.195312 304.886719 347.792969 303.921875 365.53125 301.425781 C 354.164062 296.132812 339.445312 285.824219 327.777344 265.867188 C 326.816406 264.226562 326.976562 262.164062 328.171875 260.691406 C 345.785156 239.015625 355.484375 211.679688 355.484375 183.726562 C 355.484375 131.316406 322.914062 85.921875 274.679688 68.75 C 291.449219 91.289062 300.542969 118.554688 300.542969 146.960938 C 300.542969 182.027344 286.886719 214.992188 262.09375 239.789062 C 237.296875 264.582031 204.328125 278.238281 169.265625 278.238281 C 164.511719 278.238281 159.730469 277.972656 154.949219 277.4375 Z M 233.316406 315.007812 C 214.878906 315.007812 197.039062 311.25 180.300781 303.84375 C 164.144531 296.695312 149.792969 286.503906 137.636719 273.5625 C 136.261719 272.101562 136.007812 269.914062 137.003906 268.175781 C 138.003906 266.4375 140.019531 265.554688 141.972656 266 C 151.027344 268.078125 160.210938 269.125 169.265625 269.125 C 236.625 269.125 291.429688 214.324219 291.429688 146.960938 C 291.429688 115.78125 279.65625 86.078125 258.273438 63.332031 C 256.902344 61.871094 256.644531 59.6875 257.636719 57.945312 C 258.636719 56.207031 260.648438 55.324219 262.605469 55.769531 C 291.128906 62.273438 317.015625 78.453125 335.5 101.328125 C 344.726562 112.75 351.917969 125.515625 356.871094 139.269531 C 361.996094 153.503906 364.597656 168.460938 364.597656 183.726562 C 364.597656 212.691406 354.90625 241.035156 337.246094 263.910156 C 345.144531 276.476562 355.230469 285.945312 367.257812 292.085938 C 376.875 296.996094 384.222656 297.820312 384.292969 297.828125 C 386.449219 298.054688 388.15625 299.769531 388.359375 301.929688 C 388.5625 304.089844 387.222656 306.089844 385.148438 306.71875 C 384.613281 306.882812 371.808594 310.707031 353.761719 311.8125 C 337.542969 312.804688 313.988281 311.664062 292.519531 300.898438 C 274.265625 310.136719 253.847656 315.007812 233.316406 315.007812 " fill-opacity="1" fill-rule="nonzero"/><path fill="#38b6ff" d="M 74.75 123.175781 L 74.75 152.363281 C 74.75 160.175781 76.722656 165.992188 80.613281 169.652344 C 84.585938 173.390625 90.4375 175.285156 98.015625 175.285156 C 105.765625 175.285156 111.53125 173.421875 115.648438 169.59375 C 119.609375 165.902344 121.621094 159.960938 121.621094 151.933594 L 121.621094 123.175781 L 113.820312 123.175781 L 113.820312 152.449219 C 113.820312 157.769531 112.394531 161.949219 109.589844 164.875 C 106.730469 167.859375 102.894531 169.371094 98.1875 169.371094 C 93.507812 169.371094 89.542969 167.746094 86.71875 164.679688 C 83.957031 161.675781 82.554688 157.414062 82.554688 152.019531 L 82.554688 123.175781 Z M 98.015625 184.398438 C 88.039062 184.398438 80.082031 181.667969 74.371094 176.289062 C 68.574219 170.839844 65.640625 162.789062 65.640625 152.363281 L 65.640625 118.617188 C 65.640625 116.101562 67.679688 114.0625 70.195312 114.0625 L 87.109375 114.0625 C 89.625 114.0625 91.664062 116.101562 91.664062 118.617188 L 91.664062 152.019531 C 91.664062 155.058594 92.257812 157.238281 93.425781 158.507812 C 94.117188 159.261719 95.363281 160.257812 98.1875 160.257812 C 101.0625 160.257812 102.316406 159.296875 103.011719 158.570312 C 104.136719 157.398438 104.707031 155.339844 104.707031 152.449219 L 104.707031 118.617188 C 104.707031 116.101562 106.746094 114.0625 109.261719 114.0625 L 126.179688 114.0625 C 128.695312 114.0625 130.734375 116.101562 130.734375 118.617188 L 130.734375 151.933594 C 130.734375 162.59375 127.746094 170.78125 121.855469 176.261719 C 116.058594 181.660156 108.035156 184.398438 98.015625 184.398438 " fill-opacity="1" fill-rule="nonzero"/><path fill="#38b6ff" d="M 182.957031 174.167969 L 190.769531 174.167969 L 190.769531 123.175781 L 183.398438 123.175781 L 183.398438 150.390625 C 183.398438 152.335938 182.160156 154.066406 180.320312 154.699219 C 178.480469 155.332031 176.441406 154.722656 175.246094 153.1875 L 151.882812 123.175781 L 143.125 123.175781 L 143.125 174.167969 L 150.5 174.167969 L 150.5 145.753906 C 150.5 143.804688 151.734375 142.074219 153.574219 141.441406 C 155.417969 140.8125 157.457031 141.417969 158.652344 142.953125 Z M 195.328125 183.28125 L 180.730469 183.28125 C 179.328125 183.28125 178 182.632812 177.136719 181.523438 L 159.613281 159.019531 L 159.613281 178.726562 C 159.613281 181.242188 157.574219 183.28125 155.058594 183.28125 L 138.570312 183.28125 C 136.054688 183.28125 134.015625 181.242188 134.015625 178.726562 L 134.015625 118.617188 C 134.015625 116.101562 136.054688 114.0625 138.570312 114.0625 L 154.113281 114.0625 C 155.519531 114.0625 156.84375 114.710938 157.707031 115.820312 L 174.285156 137.117188 L 174.285156 118.617188 C 174.285156 116.101562 176.324219 114.0625 178.839844 114.0625 L 195.328125 114.0625 C 197.84375 114.0625 199.882812 116.101562 199.882812 118.617188 L 199.882812 178.726562 C 199.882812 181.242188 197.84375 183.28125 195.328125 183.28125 " fill-opacity="1" fill-rule="nonzero"/><path fill="#38b6ff" d="M 238.71875 137 C 235.53125 137 233.128906 138.023438 231.15625 140.214844 C 229.085938 142.519531 228.074219 145.285156 228.074219 148.671875 C 228.074219 151.996094 229.105469 154.742188 231.226562 157.070312 C 233.257812 159.304688 235.691406 160.34375 238.890625 160.34375 C 242.132812 160.34375 244.5625 159.324219 246.535156 157.128906 C 248.609375 154.824219 249.617188 152.0625 249.617188 148.671875 C 249.617188 145.363281 248.578125 142.621094 246.441406 140.289062 C 244.375 138.046875 241.921875 137 238.71875 137 Z M 238.890625 169.457031 C 233.109375 169.457031 228.261719 167.351562 224.484375 163.203125 C 220.820312 159.175781 218.964844 154.285156 218.964844 148.671875 C 218.964844 143.015625 220.785156 138.117188 224.382812 134.117188 C 228.105469 129.984375 232.925781 127.886719 238.71875 127.886719 C 244.488281 127.886719 249.34375 129.984375 253.148438 134.125 C 256.851562 138.160156 258.730469 143.054688 258.730469 148.671875 C 258.730469 154.335938 256.90625 159.230469 253.308594 163.226562 C 249.585938 167.359375 244.738281 169.457031 238.890625 169.457031 Z M 238.890625 121.972656 C 230.835938 121.972656 224.308594 124.527344 218.933594 129.777344 C 213.585938 135 210.988281 141.179688 210.988281 148.671875 C 210.988281 156.222656 213.5625 162.421875 218.855469 167.613281 C 224.167969 172.835938 230.667969 175.371094 238.71875 175.371094 C 246.769531 175.371094 253.296875 172.816406 258.671875 167.566406 C 264.019531 162.34375 266.617188 156.164062 266.617188 148.671875 C 266.617188 141.121094 264.042969 134.921875 258.75 129.726562 C 253.4375 124.511719 246.9375 121.972656 238.890625 121.972656 Z M 238.71875 184.480469 C 228.308594 184.480469 219.476562 180.996094 212.46875 174.121094 C 205.441406 167.21875 201.875 158.660156 201.875 148.671875 C 201.875 138.738281 205.472656 130.1875 212.566406 123.261719 C 219.628906 116.359375 228.484375 112.859375 238.890625 112.859375 C 249.296875 112.859375 258.128906 116.347656 265.136719 123.222656 C 272.164062 130.125 275.730469 138.6875 275.730469 148.671875 C 275.730469 158.605469 272.132812 167.15625 265.039062 174.082031 C 257.976562 180.984375 249.121094 184.480469 238.71875 184.480469 " fill-opacity="1" fill-rule="nonzero"/><g fill="#ffbd59" fill-opacity="1"><g transform="translate(89.859885, 229.913653)"><g><path d="M 12.6875 0 L 7.125 -18.125 L 6.984375 -18.125 C 7.179688 -14.4375 7.28125 -11.976562 7.28125 -10.75 L 7.28125 0 L 2.90625 0 L 2.90625 -23.109375 L 9.578125 -23.109375 L 15.046875 -5.4375 L 15.140625 -5.4375 L 20.953125 -23.109375 L 27.609375 -23.109375 L 27.609375 0 L 23.046875 0 L 23.046875 -10.9375 C 23.046875 -11.457031 23.050781 -12.050781 23.0625 -12.71875 C 23.082031 -13.394531 23.15625 -15.1875 23.28125 -18.09375 L 23.140625 -18.09375 L 17.1875 0 Z M 12.6875 0 "/></g></g></g><g fill="#ffbd59" fill-opacity="1"><g transform="translate(120.379137, 229.913653)"><g><path d="M 13.75 0 L 12.828125 -2.40625 L 12.6875 -2.40625 C 11.882812 -1.382812 11.050781 -0.675781 10.1875 -0.28125 C 9.332031 0.113281 8.210938 0.3125 6.828125 0.3125 C 5.128906 0.3125 3.789062 -0.171875 2.8125 -1.140625 C 1.84375 -2.109375 1.359375 -3.488281 1.359375 -5.28125 C 1.359375 -7.15625 2.015625 -8.535156 3.328125 -9.421875 C 4.640625 -10.316406 6.617188 -10.8125 9.265625 -10.90625 L 12.328125 -11 L 12.328125 -11.78125 C 12.328125 -13.570312 11.410156 -14.46875 9.578125 -14.46875 C 8.171875 -14.46875 6.507812 -14.039062 4.59375 -13.1875 L 3 -16.4375 C 5.03125 -17.5 7.285156 -18.03125 9.765625 -18.03125 C 12.140625 -18.03125 13.957031 -17.515625 15.21875 -16.484375 C 16.488281 -15.453125 17.125 -13.882812 17.125 -11.78125 L 17.125 0 Z M 12.328125 -8.1875 L 10.46875 -8.125 C 9.0625 -8.082031 8.015625 -7.828125 7.328125 -7.359375 C 6.648438 -6.898438 6.3125 -6.195312 6.3125 -5.25 C 6.3125 -3.882812 7.085938 -3.203125 8.640625 -3.203125 C 9.765625 -3.203125 10.660156 -3.523438 11.328125 -4.171875 C 11.992188 -4.816406 12.328125 -5.671875 12.328125 -6.734375 Z M 12.328125 -8.1875 "/></g></g></g><g fill="#ffbd59" fill-opacity="1"><g transform="translate(139.929792, 229.913653)"><g><path d="M 18.84375 0 L 14.015625 0 L 14.015625 -10.328125 C 14.015625 -11.597656 13.785156 -12.550781 13.328125 -13.1875 C 12.878906 -13.820312 12.160156 -14.140625 11.171875 -14.140625 C 9.828125 -14.140625 8.851562 -13.6875 8.25 -12.78125 C 7.644531 -11.882812 7.34375 -10.394531 7.34375 -8.3125 L 7.34375 0 L 2.53125 0 L 2.53125 -17.671875 L 6.21875 -17.671875 L 6.859375 -15.40625 L 7.125 -15.40625 C 7.664062 -16.257812 8.40625 -16.90625 9.34375 -17.34375 C 10.289062 -17.78125 11.363281 -18 12.5625 -18 C 14.625 -18 16.1875 -17.441406 17.25 -16.328125 C 18.3125 -15.222656 18.84375 -13.625 18.84375 -11.53125 Z M 18.84375 0 "/></g></g></g><g fill="#ffbd59" fill-opacity="1"><g transform="translate(161.20318, 229.913653)"><g><path d="M 13.75 0 L 12.828125 -2.40625 L 12.6875 -2.40625 C 11.882812 -1.382812 11.050781 -0.675781 10.1875 -0.28125 C 9.332031 0.113281 8.210938 0.3125 6.828125 0.3125 C 5.128906 0.3125 3.789062 -0.171875 2.8125 -1.140625 C 1.84375 -2.109375 1.359375 -3.488281 1.359375 -5.28125 C 1.359375 -7.15625 2.015625 -8.535156 3.328125 -9.421875 C 4.640625 -10.316406 6.617188 -10.8125 9.265625 -10.90625 L 12.328125 -11 L 12.328125 -11.78125 C 12.328125 -13.570312 11.410156 -14.46875 9.578125 -14.46875 C 8.171875 -14.46875 6.507812 -14.039062 4.59375 -13.1875 L 3 -16.4375 C 5.03125 -17.5 7.285156 -18.03125 9.765625 -18.03125 C 12.140625 -18.03125 13.957031 -17.515625 15.21875 -16.484375 C 16.488281 -15.453125 17.125 -13.882812 17.125 -11.78125 L 17.125 0 Z M 12.328125 -8.1875 L 10.46875 -8.125 C 9.0625 -8.082031 8.015625 -7.828125 7.328125 -7.359375 C 6.648438 -6.898438 6.3125 -6.195312 6.3125 -5.25 C 6.3125 -3.882812 7.085938 -3.203125 8.640625 -3.203125 C 9.765625 -3.203125 10.660156 -3.523438 11.328125 -4.171875 C 11.992188 -4.816406 12.328125 -5.671875 12.328125 -6.734375 Z M 12.328125 -8.1875 "/></g></g></g><g fill="#ffbd59" fill-opacity="1"><g transform="translate(180.753834, 229.913653)"><g><path d="M 17.90625 -17.671875 L 17.90625 -15.21875 L 15.140625 -14.515625 C 15.648438 -13.722656 15.90625 -12.835938 15.90625 -11.859375 C 15.90625 -9.960938 15.242188 -8.484375 13.921875 -7.421875 C 12.597656 -6.359375 10.757812 -5.828125 8.40625 -5.828125 L 7.546875 -5.875 L 6.828125 -5.953125 C 6.335938 -5.578125 6.09375 -5.15625 6.09375 -4.6875 C 6.09375 -4 6.972656 -3.65625 8.734375 -3.65625 L 11.75 -3.65625 C 13.6875 -3.65625 15.160156 -3.238281 16.171875 -2.40625 C 17.191406 -1.570312 17.703125 -0.347656 17.703125 1.265625 C 17.703125 3.328125 16.835938 4.925781 15.109375 6.0625 C 13.390625 7.207031 10.921875 7.78125 7.703125 7.78125 C 5.234375 7.78125 3.347656 7.347656 2.046875 6.484375 C 0.742188 5.628906 0.09375 4.425781 0.09375 2.875 C 0.09375 1.8125 0.425781 0.921875 1.09375 0.203125 C 1.757812 -0.515625 2.734375 -1.023438 4.015625 -1.328125 C 3.515625 -1.535156 3.082031 -1.878906 2.71875 -2.359375 C 2.351562 -2.835938 2.171875 -3.347656 2.171875 -3.890625 C 2.171875 -4.566406 2.363281 -5.128906 2.75 -5.578125 C 3.132812 -6.023438 3.695312 -6.460938 4.4375 -6.890625 C 3.507812 -7.296875 2.773438 -7.941406 2.234375 -8.828125 C 1.691406 -9.710938 1.421875 -10.753906 1.421875 -11.953125 C 1.421875 -13.878906 2.046875 -15.367188 3.296875 -16.421875 C 4.554688 -17.472656 6.347656 -18 8.671875 -18 C 9.171875 -18 9.757812 -17.953125 10.4375 -17.859375 C 11.113281 -17.773438 11.550781 -17.710938 11.75 -17.671875 Z M 4.265625 2.5 C 4.265625 3.164062 4.582031 3.6875 5.21875 4.0625 C 5.863281 4.4375 6.757812 4.625 7.90625 4.625 C 9.632812 4.625 10.988281 4.382812 11.96875 3.90625 C 12.945312 3.4375 13.4375 2.789062 13.4375 1.96875 C 13.4375 1.3125 13.144531 0.851562 12.5625 0.59375 C 11.988281 0.34375 11.09375 0.21875 9.875 0.21875 L 7.375 0.21875 C 6.488281 0.21875 5.75 0.425781 5.15625 0.84375 C 4.5625 1.257812 4.265625 1.8125 4.265625 2.5 Z M 6.015625 -11.890625 C 6.015625 -10.929688 6.234375 -10.171875 6.671875 -9.609375 C 7.109375 -9.054688 7.773438 -8.78125 8.671875 -8.78125 C 9.578125 -8.78125 10.238281 -9.054688 10.65625 -9.609375 C 11.082031 -10.171875 11.296875 -10.929688 11.296875 -11.890625 C 11.296875 -14.015625 10.421875 -15.078125 8.671875 -15.078125 C 6.898438 -15.078125 6.015625 -14.015625 6.015625 -11.890625 Z M 6.015625 -11.890625 "/></g></g></g><g fill="#ffbd59" fill-opacity="1"><g transform="translate(199.040097, 229.913653)"><g><path d="M 9.84375 -14.578125 C 8.820312 -14.578125 8.019531 -14.25 7.4375 -13.59375 C 6.863281 -12.945312 6.535156 -12.03125 6.453125 -10.84375 L 13.21875 -10.84375 C 13.195312 -12.03125 12.882812 -12.945312 12.28125 -13.59375 C 11.675781 -14.25 10.863281 -14.578125 9.84375 -14.578125 Z M 10.53125 0.3125 C 7.6875 0.3125 5.460938 -0.46875 3.859375 -2.03125 C 2.253906 -3.601562 1.453125 -5.828125 1.453125 -8.703125 C 1.453125 -11.671875 2.191406 -13.960938 3.671875 -15.578125 C 5.148438 -17.191406 7.195312 -18 9.8125 -18 C 12.3125 -18 14.253906 -17.285156 15.640625 -15.859375 C 17.035156 -14.441406 17.734375 -12.476562 17.734375 -9.96875 L 17.734375 -7.640625 L 6.34375 -7.640625 C 6.394531 -6.265625 6.796875 -5.191406 7.546875 -4.421875 C 8.304688 -3.648438 9.375 -3.265625 10.75 -3.265625 C 11.8125 -3.265625 12.816406 -3.375 13.765625 -3.59375 C 14.710938 -3.820312 15.703125 -4.175781 16.734375 -4.65625 L 16.734375 -0.9375 C 15.890625 -0.507812 14.988281 -0.195312 14.03125 0 C 13.070312 0.207031 11.90625 0.3125 10.53125 0.3125 Z M 10.53125 0.3125 "/></g></g></g><g fill="#ffbd59" fill-opacity="1"><g transform="translate(218.16402, 229.913653)"><g><path d="M 12.390625 -18 C 13.046875 -18 13.585938 -17.953125 14.015625 -17.859375 L 13.65625 -13.34375 C 13.269531 -13.445312 12.796875 -13.5 12.234375 -13.5 C 10.691406 -13.5 9.488281 -13.101562 8.625 -12.3125 C 7.769531 -11.519531 7.34375 -10.414062 7.34375 -9 L 7.34375 0 L 2.53125 0 L 2.53125 -17.671875 L 6.1875 -17.671875 L 6.890625 -14.703125 L 7.125 -14.703125 C 7.675781 -15.691406 8.414062 -16.488281 9.34375 -17.09375 C 10.28125 -17.695312 11.296875 -18 12.390625 -18 Z M 12.390625 -18 "/></g></g></g><g fill="#ffbd59" fill-opacity="1"><g transform="translate(88.429013, 228.48279)"><g><path d="M 12.6875 0 L 7.125 -18.125 L 6.984375 -18.125 C 7.179688 -14.4375 7.28125 -11.976562 7.28125 -10.75 L 7.28125 0 L 2.90625 0 L 2.90625 -23.109375 L 9.578125 -23.109375 L 15.046875 -5.4375 L 15.140625 -5.4375 L 20.953125 -23.109375 L 27.609375 -23.109375 L 27.609375 0 L 23.046875 0 L 23.046875 -10.9375 C 23.046875 -11.457031 23.050781 -12.050781 23.0625 -12.71875 C 23.082031 -13.394531 23.15625 -15.1875 23.28125 -18.09375 L 23.140625 -18.09375 L 17.1875 0 Z M 12.6875 0 "/></g></g></g><g fill="#ffbd59" fill-opacity="1"><g transform="translate(118.948265, 228.48279)"><g><path d="M 13.75 0 L 12.828125 -2.40625 L 12.6875 -2.40625 C 11.882812 -1.382812 11.050781 -0.675781 10.1875 -0.28125 C 9.332031 0.113281 8.210938 0.3125 6.828125 0.3125 C 5.128906 0.3125 3.789062 -0.171875 2.8125 -1.140625 C 1.84375 -2.109375 1.359375 -3.488281 1.359375 -5.28125 C 1.359375 -7.15625 2.015625 -8.535156 3.328125 -9.421875 C 4.640625 -10.316406 6.617188 -10.8125 9.265625 -10.90625 L 12.328125 -11 L 12.328125 -11.78125 C 12.328125 -13.570312 11.410156 -14.46875 9.578125 -14.46875 C 8.171875 -14.46875 6.507812 -14.039062 4.59375 -13.1875 L 3 -16.4375 C 5.03125 -17.5 7.285156 -18.03125 9.765625 -18.03125 C 12.140625 -18.03125 13.957031 -17.515625 15.21875 -16.484375 C 16.488281 -15.453125 17.125 -13.882812 17.125 -11.78125 L 17.125 0 Z M 12.328125 -8.1875 L 10.46875 -8.125 C 9.0625 -8.082031 8.015625 -7.828125 7.328125 -7.359375 C 6.648438 -6.898438 6.3125 -6.195312 6.3125 -5.25 C 6.3125 -3.882812 7.085938 -3.203125 8.640625 -3.203125 C 9.765625 -3.203125 10.660156 -3.523438 11.328125 -4.171875 C 11.992188 -4.816406 12.328125 -5.671875 12.328125 -6.734375 Z M 12.328125 -8.1875 "/></g></g></g><g fill="#ffbd59" fill-opacity="1"><g transform="translate(138.498919, 228.48279)"><g><path d="M 18.84375 0 L 14.015625 0 L 14.015625 -10.328125 C 14.015625 -11.597656 13.785156 -12.550781 13.328125 -13.1875 C 12.878906 -13.820312 12.160156 -14.140625 11.171875 -14.140625 C 9.828125 -14.140625 8.851562 -13.6875 8.25 -12.78125 C 7.644531 -11.882812 7.34375 -10.394531 7.34375 -8.3125 L 7.34375 0 L 2.53125 0 L 2.53125 -17.671875 L 6.21875 -17.671875 L 6.859375 -15.40625 L 7.125 -15.40625 C 7.664062 -16.257812 8.40625 -16.90625 9.34375 -17.34375 C 10.289062 -17.78125 11.363281 -18 12.5625 -18 C 14.625 -18 16.1875 -17.441406 17.25 -16.328125 C 18.3125 -15.222656 18.84375 -13.625 18.84375 -11.53125 Z M 18.84375 0 "/></g></g></g><g fill="#ffbd59" fill-opacity="1"><g transform="translate(159.772307, 228.48279)"><g><path d="M 13.75 0 L 12.828125 -2.40625 L 12.6875 -2.40625 C 11.882812 -1.382812 11.050781 -0.675781 10.1875 -0.28125 C 9.332031 0.113281 8.210938 0.3125 6.828125 0.3125 C 5.128906 0.3125 3.789062 -0.171875 2.8125 -1.140625 C 1.84375 -2.109375 1.359375 -3.488281 1.359375 -5.28125 C 1.359375 -7.15625 2.015625 -8.535156 3.328125 -9.421875 C 4.640625 -10.316406 6.617188 -10.8125 9.265625 -10.90625 L 12.328125 -11 L 12.328125 -11.78125 C 12.328125 -13.570312 11.410156 -14.46875 9.578125 -14.46875 C 8.171875 -14.46875 6.507812 -14.039062 4.59375 -13.1875 L 3 -16.4375 C 5.03125 -17.5 7.285156 -18.03125 9.765625 -18.03125 C 12.140625 -18.03125 13.957031 -17.515625 15.21875 -16.484375 C 16.488281 -15.453125 17.125 -13.882812 17.125 -11.78125 L 17.125 0 Z M 12.328125 -8.1875 L 10.46875 -8.125 C 9.0625 -8.082031 8.015625 -7.828125 7.328125 -7.359375 C 6.648438 -6.898438 6.3125 -6.195312 6.3125 -5.25 C 6.3125 -3.882812 7.085938 -3.203125 8.640625 -3.203125 C 9.765625 -3.203125 10.660156 -3.523438 11.328125 -4.171875 C 11.992188 -4.816406 12.328125 -5.671875 12.328125 -6.734375 Z M 12.328125 -8.1875 "/></g></g></g><g fill="#ffbd59" fill-opacity="1"><g transform="translate(179.322962, 228.48279)"><g><path d="M 17.90625 -17.671875 L 17.90625 -15.21875 L 15.140625 -14.515625 C 15.648438 -13.722656 15.90625 -12.835938 15.90625 -11.859375 C 15.90625 -9.960938 15.242188 -8.484375 13.921875 -7.421875 C 12.597656 -6.359375 10.757812 -5.828125 8.40625 -5.828125 L 7.546875 -5.875 L 6.828125 -5.953125 C 6.335938 -5.578125 6.09375 -5.15625 6.09375 -4.6875 C 6.09375 -4 6.972656 -3.65625 8.734375 -3.65625 L 11.75 -3.65625 C 13.6875 -3.65625 15.160156 -3.238281 16.171875 -2.40625 C 17.191406 -1.570312 17.703125 -0.347656 17.703125 1.265625 C 17.703125 3.328125 16.835938 4.925781 15.109375 6.0625 C 13.390625 7.207031 10.921875 7.78125 7.703125 7.78125 C 5.234375 7.78125 3.347656 7.347656 2.046875 6.484375 C 0.742188 5.628906 0.09375 4.425781 0.09375 2.875 C 0.09375 1.8125 0.425781 0.921875 1.09375 0.203125 C 1.757812 -0.515625 2.734375 -1.023438 4.015625 -1.328125 C 3.515625 -1.535156 3.082031 -1.878906 2.71875 -2.359375 C 2.351562 -2.835938 2.171875 -3.347656 2.171875 -3.890625 C 2.171875 -4.566406 2.363281 -5.128906 2.75 -5.578125 C 3.132812 -6.023438 3.695312 -6.460938 4.4375 -6.890625 C 3.507812 -7.296875 2.773438 -7.941406 2.234375 -8.828125 C 1.691406 -9.710938 1.421875 -10.753906 1.421875 -11.953125 C 1.421875 -13.878906 2.046875 -15.367188 3.296875 -16.421875 C 4.554688 -17.472656 6.347656 -18 8.671875 -18 C 9.171875 -18 9.757812 -17.953125 10.4375 -17.859375 C 11.113281 -17.773438 11.550781 -17.710938 11.75 -17.671875 Z M 4.265625 2.5 C 4.265625 3.164062 4.582031 3.6875 5.21875 4.0625 C 5.863281 4.4375 6.757812 4.625 7.90625 4.625 C 9.632812 4.625 10.988281 4.382812 11.96875 3.90625 C 12.945312 3.4375 13.4375 2.789062 13.4375 1.96875 C 13.4375 1.3125 13.144531 0.851562 12.5625 0.59375 C 11.988281 0.34375 11.09375 0.21875 9.875 0.21875 L 7.375 0.21875 C 6.488281 0.21875 5.75 0.425781 5.15625 0.84375 C 4.5625 1.257812 4.265625 1.8125 4.265625 2.5 Z M 6.015625 -11.890625 C 6.015625 -10.929688 6.234375 -10.171875 6.671875 -9.609375 C 7.109375 -9.054688 7.773438 -8.78125 8.671875 -8.78125 C 9.578125 -8.78125 10.238281 -9.054688 10.65625 -9.609375 C 11.082031 -10.171875 11.296875 -10.929688 11.296875 -11.890625 C 11.296875 -14.015625 10.421875 -15.078125 8.671875 -15.078125 C 6.898438 -15.078125 6.015625 -14.015625 6.015625 -11.890625 Z M 6.015625 -11.890625 "/></g></g></g><g fill="#ffbd59" fill-opacity="1"><g transform="translate(197.609225, 228.48279)"><g><path d="M 9.84375 -14.578125 C 8.820312 -14.578125 8.019531 -14.25 7.4375 -13.59375 C 6.863281 -12.945312 6.535156 -12.03125 6.453125 -10.84375 L 13.21875 -10.84375 C 13.195312 -12.03125 12.882812 -12.945312 12.28125 -13.59375 C 11.675781 -14.25 10.863281 -14.578125 9.84375 -14.578125 Z M 10.53125 0.3125 C 7.6875 0.3125 5.460938 -0.46875 3.859375 -2.03125 C 2.253906 -3.601562 1.453125 -5.828125 1.453125 -8.703125 C 1.453125 -11.671875 2.191406 -13.960938 3.671875 -15.578125 C 5.148438 -17.191406 7.195312 -18 9.8125 -18 C 12.3125 -18 14.253906 -17.285156 15.640625 -15.859375 C 17.035156 -14.441406 17.734375 -12.476562 17.734375 -9.96875 L 17.734375 -7.640625 L 6.34375 -7.640625 C 6.394531 -6.265625 6.796875 -5.191406 7.546875 -4.421875 C 8.304688 -3.648438 9.375 -3.265625 10.75 -3.265625 C 11.8125 -3.265625 12.816406 -3.375 13.765625 -3.59375 C 14.710938 -3.820312 15.703125 -4.175781 16.734375 -4.65625 L 16.734375 -0.9375 C 15.890625 -0.507812 14.988281 -0.195312 14.03125 0 C 13.070312 0.207031 11.90625 0.3125 10.53125 0.3125 Z M 10.53125 0.3125 "/></g></g></g><g fill="#ffbd59" fill-opacity="1"><g transform="translate(216.733148, 228.48279)"><g><path d="M 12.390625 -18 C 13.046875 -18 13.585938 -17.953125 14.015625 -17.859375 L 13.65625 -13.34375 C 13.269531 -13.445312 12.796875 -13.5 12.234375 -13.5 C 10.691406 -13.5 9.488281 -13.101562 8.625 -12.3125 C 7.769531 -11.519531 7.34375 -10.414062 7.34375 -9 L 7.34375 0 L 2.53125 0 L 2.53125 -17.671875 L 6.1875 -17.671875 L 6.890625 -14.703125 L 7.125 -14.703125 C 7.675781 -15.691406 8.414062 -16.488281 9.34375 -17.09375 C 10.28125 -17.695312 11.296875 -18 12.390625 -18 Z M 12.390625 -18 "/></g></g></g></svg>