<svg width="200" height="200" viewBox="0 0 200 200" xmlns="http://www.w3.org/2000/svg">
    <defs>
        <linearGradient id="grad1" x1="0%" y1="0%" x2="100%" y2="100%">
            <stop offset="0%" style="stop-color:#ffffff;stop-opacity:1" />
            <stop offset="100%" style="stop-color:#d3d3d3;stop-opacity:1" />
        </linearGradient>
        <linearGradient id="grad2" x1="0%" y1="0%" x2="100%" y2="100%">
            <stop offset="0%" style="stop-color:#d3d3d3;stop-opacity:1" />
            <stop offset="100%" style="stop-color:#a9a9a9;stop-opacity:1" />
        </linearGradient>
        <filter id="shadow" x="-50%" y="-50%" width="200%" height="200%">
            <feGaussianBlur in="SourceAlpha" stdDeviation="4" result="blur"/>
            <feOffset in="blur" dx="4" dy="4" result="offsetBlur"/>
            <feMerge>
                <feMergeNode in="offsetBlur"/>
                <feMergeNode in="SourceGraphic"/>
            </feMerge>
        </filter>
    </defs>
    <g filter="url(#shadow)">
        <path fill="url(#grad1)" stroke="black" stroke-width="2" d="M100,30
      C85,30 70,45 70,60
      C70,75 85,90 100,90
      C115,90 130,105 130,120
      C130,135 115,150 100,150
      C85,150 70,135 70,120
      L90,120
      C90,130 100,140 110,140
      C120,140 130,130 130,120
      C130,110 120,100 110,100
      C100,100 90,90 90,80
      C90,70 100,60 110,60
      C120,60 130,70 130,80
      L110,80
      C110,70 100,60 90,60
      C80,60 70,70 70,80
      " />
        <circle cx="100" cy="170" r="10" fill="url(#grad1)" stroke="black" stroke-width="2" />
    </g>
</svg>
